STARTFONT 2.1
COMMENT
COMMENT Converted from OpenType font "Ubuntu-Regular.ttf" by "otf2bdf 3.0".
COMMENT
FONT -FreeType-Ubuntu-Medium-R-Normal--17-120-100-100-P-91-ISO10646-1
SIZE 12 100 100
FONTBOUNDINGBOX 60 19 -2 -3
STARTPROPERTIES 19
FOUNDRY "FreeType"
FAMILY_NAME "Ubuntu"
WEIGHT_NAME "Medium"
SLANT "R"
SETWIDTH_NAME "Normal"
ADD_STYLE_NAME ""
PIXEL_SIZE 17
POINT_SIZE 120
RESOLUTION_X 100
RESOLUTION_Y 100
SPACING "P"
AVERAGE_WIDTH 91
CHARSET_REGISTRY "ISO10646"
CHARSET_ENCODING "1"
FONT_ASCENT 15
FONT_DESCENT 3
COPYRIGHT "Copyright 2011 Canonical Ltd.  Licensed under the Ubuntu Font Licence 1.0"
_OTF_FONTFILE "Ubuntu-Regular.ttf"
_OTF_PSNAME "Ubuntu-Regular"
ENDPROPERTIES
CHARS 1194
STARTCHAR 0000
ENCODING 0
SWIDTH 0 0
DWIDTH 0 0
BBX 0 0 0 0
BITMAP
ENDCHAR
STARTCHAR 0008
ENCODING 8
SWIDTH 0 0
DWIDTH 0 0
BBX 0 0 0 0
BITMAP
ENDCHAR
STARTCHAR 0009
ENCODING 9
SWIDTH 180 0
DWIDTH 3 0
BBX 0 0 0 0
BITMAP
ENDCHAR
STARTCHAR 000D
ENCODING 13
SWIDTH 180 0
DWIDTH 3 0
BBX 0 0 0 0
BITMAP
ENDCHAR
STARTCHAR 001D
ENCODING 29
SWIDTH 0 0
DWIDTH 0 0
BBX 0 0 0 0
BITMAP
ENDCHAR
STARTCHAR 0020
ENCODING 32
SWIDTH 180 0
DWIDTH 3 0
BBX 0 0 0 0
BITMAP
ENDCHAR
STARTCHAR 0021
ENCODING 33
SWIDTH 240 0
DWIDTH 4 0
BBX 2 12 1 0
BITMAP
C0
C0
C0
C0
C0
40
40
40
00
00
C0
C0
ENDCHAR
STARTCHAR 0022
ENCODING 34
SWIDTH 360 0
DWIDTH 6 0
BBX 5 5 1 8
BITMAP
D8
D8
D8
D8
10
ENDCHAR
STARTCHAR 0023
ENCODING 35
SWIDTH 660 0
DWIDTH 11 0
BBX 9 12 1 0
BITMAP
1100
1100
1100
FF80
FF80
2200
2200
2200
FF80
6600
4400
4400
ENDCHAR
STARTCHAR 0024
ENCODING 36
SWIDTH 540 0
DWIDTH 9 0
BBX 7 15 1 -2
BITMAP
10
10
3E
62
C0
C0
70
3C
06
02
02
FE
78
10
10
ENDCHAR
STARTCHAR 0025
ENCODING 37
SWIDTH 840 0
DWIDTH 14 0
BBX 12 12 1 0
BITMAP
7040
D8C0
8880
8900
8B00
7200
06E0
0490
0D90
0910
1990
30F0
ENDCHAR
STARTCHAR 0026
ENCODING 38
SWIDTH 660 0
DWIDTH 11 0
BBX 10 12 1 0
BITMAP
3800
6400
6600
6600
6C00
3800
7880
CC80
8780
8300
C780
7CC0
ENDCHAR
STARTCHAR 0027
ENCODING 39
SWIDTH 240 0
DWIDTH 4 0
BBX 2 4 1 8
BITMAP
C0
C0
C0
C0
ENDCHAR
STARTCHAR 0028
ENCODING 40
SWIDTH 300 0
DWIDTH 5 0
BBX 4 16 1 -3
BITMAP
10
30
20
60
40
40
C0
C0
C0
C0
40
40
60
20
30
10
ENDCHAR
STARTCHAR 0029
ENCODING 41
SWIDTH 300 0
DWIDTH 5 0
BBX 4 16 0 -3
BITMAP
C0
40
60
20
30
30
30
10
10
30
30
30
20
60
40
C0
ENDCHAR
STARTCHAR 002A
ENCODING 42
SWIDTH 480 0
DWIDTH 8 0
BBX 6 7 1 5
BITMAP
30
30
B4
FC
30
48
48
ENDCHAR
STARTCHAR 002B
ENCODING 43
SWIDTH 540 0
DWIDTH 9 0
BBX 8 8 1 1
BITMAP
10
10
10
FF
FF
10
10
10
ENDCHAR
STARTCHAR 002C
ENCODING 44
SWIDTH 240 0
DWIDTH 4 0
BBX 2 5 1 -3
BITMAP
C0
C0
C0
80
80
ENDCHAR
STARTCHAR 002D
ENCODING 45
SWIDTH 240 0
DWIDTH 4 0
BBX 5 2 0 4
BITMAP
F8
F8
ENDCHAR
STARTCHAR 002E
ENCODING 46
SWIDTH 240 0
DWIDTH 4 0
BBX 2 2 1 0
BITMAP
C0
C0
ENDCHAR
STARTCHAR 002F
ENCODING 47
SWIDTH 360 0
DWIDTH 6 0
BBX 7 16 0 -3
BITMAP
06
04
0C
0C
08
18
18
10
30
20
20
60
40
C0
C0
80
ENDCHAR
STARTCHAR 0030
ENCODING 48
SWIDTH 540 0
DWIDTH 9 0
BBX 8 12 1 0
BITMAP
38
7C
C6
C2
C2
83
83
C3
C2
C6
66
3C
ENDCHAR
STARTCHAR 0031
ENCODING 49
SWIDTH 540 0
DWIDTH 9 0
BBX 4 12 2 0
BITMAP
10
30
F0
90
10
10
10
10
10
10
10
10
ENDCHAR
STARTCHAR 0032
ENCODING 50
SWIDTH 540 0
DWIDTH 9 0
BBX 7 12 1 0
BITMAP
38
FC
06
06
06
0C
18
30
60
40
C0
FE
ENDCHAR
STARTCHAR 0033
ENCODING 51
SWIDTH 540 0
DWIDTH 9 0
BBX 7 12 1 0
BITMAP
78
FC
06
06
04
38
1C
06
02
06
86
FC
ENDCHAR
STARTCHAR 0034
ENCODING 52
SWIDTH 540 0
DWIDTH 9 0
BBX 8 12 1 0
BITMAP
04
0C
1C
34
24
44
C4
84
FF
04
04
04
ENDCHAR
STARTCHAR 0035
ENCODING 53
SWIDTH 540 0
DWIDTH 9 0
BBX 7 12 1 0
BITMAP
7E
7E
60
40
40
78
0C
06
02
06
86
FC
ENDCHAR
STARTCHAR 0036
ENCODING 54
SWIDTH 540 0
DWIDTH 9 0
BBX 8 12 1 0
BITMAP
06
1E
30
60
C0
FC
C6
C2
C3
C2
66
3C
ENDCHAR
STARTCHAR 0037
ENCODING 55
SWIDTH 540 0
DWIDTH 9 0
BBX 7 12 1 0
BITMAP
FE
FE
06
0C
0C
18
18
10
30
30
30
20
ENDCHAR
STARTCHAR 0038
ENCODING 56
SWIDTH 540 0
DWIDTH 9 0
BBX 7 12 1 0
BITMAP
38
6E
C6
C2
C6
7C
7C
C6
C2
C2
C6
7C
ENDCHAR
STARTCHAR 0039
ENCODING 57
SWIDTH 540 0
DWIDTH 9 0
BBX 7 12 1 0
BITMAP
38
6C
C6
82
82
C2
7E
06
06
0C
18
70
ENDCHAR
STARTCHAR 003A
ENCODING 58
SWIDTH 240 0
DWIDTH 4 0
BBX 2 9 1 0
BITMAP
C0
C0
00
00
00
00
00
C0
C0
ENDCHAR
STARTCHAR 003B
ENCODING 59
SWIDTH 240 0
DWIDTH 4 0
BBX 2 12 1 -3
BITMAP
C0
C0
00
00
00
00
00
C0
C0
C0
80
80
ENDCHAR
STARTCHAR 003C
ENCODING 60
SWIDTH 540 0
DWIDTH 9 0
BBX 7 6 1 2
BITMAP
0E
38
E0
E0
38
0E
ENDCHAR
STARTCHAR 003D
ENCODING 61
SWIDTH 540 0
DWIDTH 9 0
BBX 8 4 1 3
BITMAP
FF
00
00
FF
ENDCHAR
STARTCHAR 003E
ENCODING 62
SWIDTH 540 0
DWIDTH 9 0
BBX 8 8 1 1
BITMAP
80
E0
3C
07
07
3C
E0
80
ENDCHAR
STARTCHAR 003F
ENCODING 63
SWIDTH 360 0
DWIDTH 6 0
BBX 5 12 1 0
BITMAP
F0
F8
08
08
18
30
60
40
00
00
60
60
ENDCHAR
STARTCHAR 0040
ENCODING 64
SWIDTH 900 0
DWIDTH 15 0
BBX 14 15 1 -3
BITMAP
0780
1CE0
3030
6118
47C8
CCCC
C8CC
C8CC
C8CC
CCC8
47F0
6000
3000
1FC0
0300
ENDCHAR
STARTCHAR 0041
ENCODING 65
SWIDTH 660 0
DWIDTH 11 0
BBX 11 12 0 0
BITMAP
0400
0E00
0A00
1B00
1B00
1100
3180
2080
7FC0
60C0
4040
C060
ENDCHAR
STARTCHAR 0042
ENCODING 66
SWIDTH 600 0
DWIDTH 10 0
BBX 9 12 1 0
BITMAP
7C00
FF00
C300
C100
C300
FE00
FF00
C180
C180
C180
C300
FE00
ENDCHAR
STARTCHAR 0043
ENCODING 67
SWIDTH 600 0
DWIDTH 10 0
BBX 9 12 1 0
BITMAP
0F00
3F80
6000
C000
C000
C000
C000
C000
C000
6000
7080
3F80
ENDCHAR
STARTCHAR 0044
ENCODING 68
SWIDTH 660 0
DWIDTH 11 0
BBX 10 12 1 0
BITMAP
7800
FF00
C180
C080
C0C0
C0C0
C0C0
C0C0
C0C0
C180
C700
FE00
ENDCHAR
STARTCHAR 0045
ENCODING 69
SWIDTH 540 0
DWIDTH 9 0
BBX 8 12 1 0
BITMAP
FE
FE
C0
C0
C0
FE
FE
C0
C0
C0
C0
FF
ENDCHAR
STARTCHAR 0046
ENCODING 70
SWIDTH 480 0
DWIDTH 8 0
BBX 7 12 1 0
BITMAP
FE
FE
C0
C0
C0
FE
FE
C0
C0
C0
C0
C0
ENDCHAR
STARTCHAR 0047
ENCODING 71
SWIDTH 660 0
DWIDTH 11 0
BBX 9 12 1 0
BITMAP
0F00
3F80
6000
C000
C000
C000
C180
C180
C180
6180
7180
1F80
ENDCHAR
STARTCHAR 0048
ENCODING 72
SWIDTH 660 0
DWIDTH 11 0
BBX 9 12 1 0
BITMAP
C080
C080
C080
C080
C080
FF80
FF80
C080
C080
C080
C080
C080
ENDCHAR
STARTCHAR 0049
ENCODING 73
SWIDTH 240 0
DWIDTH 4 0
BBX 2 12 1 0
BITMAP
C0
C0
C0
C0
C0
C0
C0
C0
C0
C0
C0
C0
ENDCHAR
STARTCHAR 004A
ENCODING 74
SWIDTH 480 0
DWIDTH 8 0
BBX 7 12 0 0
BITMAP
06
06
06
06
06
06
06
06
06
06
4E
FC
ENDCHAR
STARTCHAR 004B
ENCODING 75
SWIDTH 600 0
DWIDTH 10 0
BBX 9 12 1 0
BITMAP
C180
C300
C600
CC00
D800
F000
F800
DC00
C600
C300
C300
C180
ENDCHAR
STARTCHAR 004C
ENCODING 76
SWIDTH 480 0
DWIDTH 8 0
BBX 7 12 1 0
BITMAP
C0
C0
C0
C0
C0
C0
C0
C0
C0
C0
C0
FE
ENDCHAR
STARTCHAR 004D
ENCODING 77
SWIDTH 840 0
DWIDTH 14 0
BBX 12 12 1 0
BITMAP
4030
6030
7070
7070
50F0
D890
C990
CD10
C710
C610
C010
C010
ENDCHAR
STARTCHAR 004E
ENCODING 78
SWIDTH 720 0
DWIDTH 12 0
BBX 10 12 1 0
BITMAP
C0C0
E0C0
E0C0
F0C0
D8C0
CCC0
C4C0
C6C0
C3C0
C1C0
C1C0
C0C0
ENDCHAR
STARTCHAR 004F
ENCODING 79
SWIDTH 720 0
DWIDTH 12 0
BBX 11 12 1 0
BITMAP
0E00
3F80
60C0
C060
C060
C060
C060
C060
C060
60C0
71C0
1F00
ENDCHAR
STARTCHAR 0050
ENCODING 80
SWIDTH 600 0
DWIDTH 10 0
BBX 9 12 1 0
BITMAP
7800
FF00
C300
C180
C180
C300
FF00
FC00
C000
C000
C000
C000
ENDCHAR
STARTCHAR 0051
ENCODING 81
SWIDTH 720 0
DWIDTH 12 0
BBX 11 15 1 -3
BITMAP
0E00
3F80
60C0
C060
C060
C060
C060
C060
C060
60C0
71C0
1F00
0600
0300
01C0
ENDCHAR
STARTCHAR 0052
ENCODING 82
SWIDTH 600 0
DWIDTH 10 0
BBX 9 12 1 0
BITMAP
7800
FF00
C300
C100
C100
C300
FE00
CC00
C600
C300
C100
C180
ENDCHAR
STARTCHAR 0053
ENCODING 83
SWIDTH 480 0
DWIDTH 8 0
BBX 7 12 1 0
BITMAP
3C
FE
C0
C0
C0
70
3C
06
02
02
86
FC
ENDCHAR
STARTCHAR 0054
ENCODING 84
SWIDTH 540 0
DWIDTH 9 0
BBX 9 12 0 0
BITMAP
FF80
FF80
0C00
0C00
0C00
0C00
0C00
0C00
0C00
0C00
0C00
0C00
ENDCHAR
STARTCHAR 0055
ENCODING 85
SWIDTH 660 0
DWIDTH 11 0
BBX 9 12 1 0
BITMAP
C180
C180
C180
C180
C180
C180
C180
C180
C180
4180
6300
3E00
ENDCHAR
STARTCHAR 0056
ENCODING 86
SWIDTH 600 0
DWIDTH 10 0
BBX 11 12 0 0
BITMAP
C060
4040
60C0
60C0
2080
3180
3180
1100
1B00
0A00
0E00
0C00
ENDCHAR
STARTCHAR 0057
ENCODING 87
SWIDTH 900 0
DWIDTH 15 0
BBX 15 12 0 0
BITMAP
C006
4006
6186
6184
6384
62CC
224C
364C
3468
3C38
1838
1830
ENDCHAR
STARTCHAR 0058
ENCODING 88
SWIDTH 600 0
DWIDTH 10 0
BBX 9 12 1 0
BITMAP
8180
C300
6300
2600
3C00
1C00
1C00
3400
6600
6300
C100
8180
ENDCHAR
STARTCHAR 0059
ENCODING 89
SWIDTH 540 0
DWIDTH 9 0
BBX 10 12 0 0
BITMAP
C0C0
6080
6180
3300
3300
1E00
0C00
0C00
0C00
0C00
0C00
0C00
ENDCHAR
STARTCHAR 005A
ENCODING 90
SWIDTH 540 0
DWIDTH 9 0
BBX 8 12 1 0
BITMAP
FF
FF
06
0C
0C
18
30
20
60
C0
80
FF
ENDCHAR
STARTCHAR 005B
ENCODING 91
SWIDTH 300 0
DWIDTH 5 0
BBX 3 16 2 -3
BITMAP
E0
80
80
80
80
80
80
80
80
80
80
80
80
80
80
E0
ENDCHAR
STARTCHAR 005C
ENCODING 92
SWIDTH 360 0
DWIDTH 6 0
BBX 7 16 0 -3
BITMAP
80
C0
C0
40
60
20
20
30
10
10
18
08
0C
0C
04
06
ENDCHAR
STARTCHAR 005D
ENCODING 93
SWIDTH 300 0
DWIDTH 5 0
BBX 4 16 0 -3
BITMAP
F0
30
30
30
30
30
30
30
30
30
30
30
30
30
30
F0
ENDCHAR
STARTCHAR 005E
ENCODING 94
SWIDTH 540 0
DWIDTH 9 0
BBX 7 7 1 5
BITMAP
10
38
2C
64
46
C2
02
ENDCHAR
STARTCHAR 005F
ENCODING 95
SWIDTH 480 0
DWIDTH 8 0
BBX 8 1 0 -3
BITMAP
FF
ENDCHAR
STARTCHAR 0060
ENCODING 96
SWIDTH 360 0
DWIDTH 6 0
BBX 3 2 1 11
BITMAP
C0
20
ENDCHAR
STARTCHAR 0061
ENCODING 97
SWIDTH 480 0
DWIDTH 8 0
BBX 6 9 1 0
BITMAP
78
4C
04
04
7C
C4
84
C4
7C
ENDCHAR
STARTCHAR 0062
ENCODING 98
SWIDTH 540 0
DWIDTH 9 0
BBX 8 13 1 0
BITMAP
C0
C0
C0
C0
FC
FE
C3
C3
C3
C3
C3
C6
FC
ENDCHAR
STARTCHAR 0063
ENCODING 99
SWIDTH 420 0
DWIDTH 7 0
BBX 6 9 1 0
BITMAP
3C
7C
C0
C0
80
C0
C0
60
3C
ENDCHAR
STARTCHAR 0064
ENCODING 100
SWIDTH 540 0
DWIDTH 9 0
BBX 7 13 1 0
BITMAP
02
02
02
02
3E
7E
C2
C2
82
C2
C2
62
3E
ENDCHAR
STARTCHAR 0065
ENCODING 101
SWIDTH 540 0
DWIDTH 9 0
BBX 7 9 1 0
BITMAP
3C
6E
C2
C2
FE
C0
C0
62
3E
ENDCHAR
STARTCHAR 0066
ENCODING 102
SWIDTH 360 0
DWIDTH 6 0
BBX 6 13 1 0
BITMAP
3C
60
C0
C0
F8
F8
C0
C0
C0
C0
C0
C0
C0
ENDCHAR
STARTCHAR 0067
ENCODING 103
SWIDTH 540 0
DWIDTH 9 0
BBX 7 12 1 -3
BITMAP
3E
7E
C2
C2
82
C2
C2
7E
3A
02
06
FC
ENDCHAR
STARTCHAR 0068
ENCODING 104
SWIDTH 540 0
DWIDTH 9 0
BBX 7 13 1 0
BITMAP
C0
C0
C0
C0
FC
FE
C6
C2
C2
C2
C2
C2
C2
ENDCHAR
STARTCHAR 0069
ENCODING 105
SWIDTH 240 0
DWIDTH 4 0
BBX 2 12 1 0
BITMAP
C0
C0
00
C0
C0
C0
C0
C0
C0
C0
C0
C0
ENDCHAR
STARTCHAR 006A
ENCODING 106
SWIDTH 240 0
DWIDTH 4 0
BBX 4 15 -1 -3
BITMAP
30
30
00
30
30
30
30
30
30
30
30
30
30
30
E0
ENDCHAR
STARTCHAR 006B
ENCODING 107
SWIDTH 480 0
DWIDTH 8 0
BBX 7 13 1 0
BITMAP
C0
C0
C0
C0
C6
CC
D8
F0
F0
D8
CC
C4
C6
ENDCHAR
STARTCHAR 006C
ENCODING 108
SWIDTH 240 0
DWIDTH 4 0
BBX 3 13 1 0
BITMAP
C0
C0
C0
C0
C0
C0
C0
C0
C0
C0
C0
C0
60
ENDCHAR
STARTCHAR 006D
ENCODING 109
SWIDTH 840 0
DWIDTH 14 0
BBX 12 9 1 0
BITMAP
79E0
FFF0
C630
C610
C610
C610
C610
C610
C610
ENDCHAR
STARTCHAR 006E
ENCODING 110
SWIDTH 540 0
DWIDTH 9 0
BBX 7 9 1 0
BITMAP
7C
FE
C6
C2
C2
C2
C2
C2
C2
ENDCHAR
STARTCHAR 006F
ENCODING 111
SWIDTH 540 0
DWIDTH 9 0
BBX 8 9 1 0
BITMAP
3C
7E
C3
C3
83
C3
C3
66
3C
ENDCHAR
STARTCHAR 0070
ENCODING 112
SWIDTH 540 0
DWIDTH 9 0
BBX 8 12 1 -3
BITMAP
7C
FE
C3
C3
C3
C3
C3
C6
FC
C0
C0
C0
ENDCHAR
STARTCHAR 0071
ENCODING 113
SWIDTH 540 0
DWIDTH 9 0
BBX 7 12 1 -3
BITMAP
3E
7E
C2
C2
82
C2
C2
66
7E
02
02
02
ENDCHAR
STARTCHAR 0072
ENCODING 114
SWIDTH 360 0
DWIDTH 6 0
BBX 5 9 1 0
BITMAP
78
F8
C0
C0
C0
C0
C0
C0
C0
ENDCHAR
STARTCHAR 0073
ENCODING 115
SWIDTH 420 0
DWIDTH 7 0
BBX 6 9 1 0
BITMAP
78
C8
80
C0
70
18
0C
0C
F8
ENDCHAR
STARTCHAR 0074
ENCODING 116
SWIDTH 360 0
DWIDTH 6 0
BBX 5 11 1 0
BITMAP
C0
C0
F8
F8
C0
C0
C0
C0
C0
C0
78
ENDCHAR
STARTCHAR 0075
ENCODING 117
SWIDTH 540 0
DWIDTH 9 0
BBX 7 9 1 0
BITMAP
C2
C2
C2
C2
C2
C2
C2
62
7E
ENDCHAR
STARTCHAR 0076
ENCODING 118
SWIDTH 480 0
DWIDTH 8 0
BBX 8 9 0 0
BITMAP
C3
43
62
62
26
34
3C
1C
18
ENDCHAR
STARTCHAR 0077
ENCODING 119
SWIDTH 720 0
DWIDTH 12 0
BBX 13 9 0 0
BITMAP
C218
4210
4710
6530
6520
2DA0
38E0
18C0
18C0
ENDCHAR
STARTCHAR 0078
ENCODING 120
SWIDTH 480 0
DWIDTH 8 0
BBX 7 9 1 0
BITMAP
86
CC
68
38
30
78
4C
C4
86
ENDCHAR
STARTCHAR 0079
ENCODING 121
SWIDTH 480 0
DWIDTH 8 0
BBX 8 12 0 -3
BITMAP
C3
43
62
62
26
36
34
1C
18
08
10
F0
ENDCHAR
STARTCHAR 007A
ENCODING 122
SWIDTH 420 0
DWIDTH 7 0
BBX 6 9 1 0
BITMAP
FC
FC
18
10
30
60
C0
C0
FC
ENDCHAR
STARTCHAR 007B
ENCODING 123
SWIDTH 300 0
DWIDTH 5 0
BBX 4 16 1 -3
BITMAP
30
60
60
60
60
60
60
C0
C0
60
60
60
60
60
60
30
ENDCHAR
STARTCHAR 007C
ENCODING 124
SWIDTH 240 0
DWIDTH 4 0
BBX 1 16 2 -3
BITMAP
80
80
80
80
80
80
80
80
80
80
80
80
80
80
80
80
ENDCHAR
STARTCHAR 007D
ENCODING 125
SWIDTH 300 0
DWIDTH 5 0
BBX 5 16 0 -3
BITMAP
C0
60
20
20
20
20
20
38
38
20
20
20
20
20
20
E0
ENDCHAR
STARTCHAR 007E
ENCODING 126
SWIDTH 540 0
DWIDTH 9 0
BBX 8 2 1 4
BITMAP
F3
9E
ENDCHAR
STARTCHAR 00A0
ENCODING 160
SWIDTH 180 0
DWIDTH 3 0
BBX 0 0 0 0
BITMAP
ENDCHAR
STARTCHAR 00A1
ENCODING 161
SWIDTH 240 0
DWIDTH 4 0
BBX 2 12 1 -3
BITMAP
40
C0
40
00
40
40
40
C0
C0
C0
C0
C0
ENDCHAR
STARTCHAR 00A2
ENCODING 162
SWIDTH 540 0
DWIDTH 9 0
BBX 7 14 1 -2
BITMAP
08
08
08
3E
60
40
C0
C0
40
60
3E
08
08
08
ENDCHAR
STARTCHAR 00A3
ENCODING 163
SWIDTH 540 0
DWIDTH 9 0
BBX 8 12 1 0
BITMAP
1E
3E
20
20
20
20
FC
20
20
60
60
7F
ENDCHAR
STARTCHAR 00A4
ENCODING 164
SWIDTH 540 0
DWIDTH 9 0
BBX 7 8 1 2
BITMAP
82
FE
64
42
C2
46
FE
82
ENDCHAR
STARTCHAR 00A5
ENCODING 165
SWIDTH 540 0
DWIDTH 9 0
BBX 9 12 0 0
BITMAP
C180
4180
6300
3200
1600
1C00
7F00
0800
0800
7F00
0800
0800
ENDCHAR
STARTCHAR 00A6
ENCODING 166
SWIDTH 240 0
DWIDTH 4 0
BBX 1 16 2 -3
BITMAP
80
80
80
80
80
80
00
00
00
00
80
80
80
80
80
80
ENDCHAR
STARTCHAR 00A7
ENCODING 167
SWIDTH 480 0
DWIDTH 8 0
BBX 6 14 1 -2
BITMAP
3C
6C
C0
C0
78
CC
84
84
EC
38
0C
04
DC
F8
ENDCHAR
STARTCHAR 00A8
ENCODING 168
SWIDTH 360 0
DWIDTH 6 0
BBX 5 2 1 10
BITMAP
98
90
ENDCHAR
STARTCHAR 00A9
ENCODING 169
SWIDTH 780 0
DWIDTH 13 0
BBX 11 12 1 0
BITMAP
0F00
3180
6040
4F20
D820
9020
9020
9020
DD20
4660
20C0
1F80
ENDCHAR
STARTCHAR 00AA
ENCODING 170
SWIDTH 360 0
DWIDTH 6 0
BBX 5 7 1 5
BITMAP
F0
90
18
F8
98
F8
20
ENDCHAR
STARTCHAR 00AB
ENCODING 171
SWIDTH 480 0
DWIDTH 8 0
BBX 6 7 1 1
BITMAP
64
4C
C8
98
CC
64
24
ENDCHAR
STARTCHAR 00AC
ENCODING 172
SWIDTH 540 0
DWIDTH 9 0
BBX 8 6 1 1
BITMAP
FF
FF
03
03
03
03
ENDCHAR
STARTCHAR 00AD
ENCODING 173
SWIDTH 240 0
DWIDTH 4 0
BBX 5 2 0 4
BITMAP
F8
F8
ENDCHAR
STARTCHAR 00AE
ENCODING 174
SWIDTH 780 0
DWIDTH 13 0
BBX 11 12 1 0
BITMAP
0F00
3180
6040
5F20
D920
9920
9F20
9B20
D920
59E0
20C0
1F80
ENDCHAR
STARTCHAR 00AF
ENCODING 175
SWIDTH 360 0
DWIDTH 6 0
BBX 5 1 1 11
BITMAP
F8
ENDCHAR
STARTCHAR 00B0
ENCODING 176
SWIDTH 300 0
DWIDTH 5 0
BBX 5 5 0 8
BITMAP
70
48
C8
58
30
ENDCHAR
STARTCHAR 00B1
ENCODING 177
SWIDTH 540 0
DWIDTH 9 0
BBX 8 10 1 0
BITMAP
10
10
10
FF
10
10
10
10
00
FF
ENDCHAR
STARTCHAR 00B2
ENCODING 178
SWIDTH 300 0
DWIDTH 5 0
BBX 4 7 1 5
BITMAP
E0
90
10
20
40
80
F0
ENDCHAR
STARTCHAR 00B3
ENCODING 179
SWIDTH 300 0
DWIDTH 5 0
BBX 4 7 1 5
BITMAP
E0
30
30
60
10
10
E0
ENDCHAR
STARTCHAR 00B4
ENCODING 180
SWIDTH 360 0
DWIDTH 6 0
BBX 3 3 2 10
BITMAP
20
60
C0
ENDCHAR
STARTCHAR 00B5
ENCODING 181
SWIDTH 540 0
DWIDTH 9 0
BBX 7 12 1 -3
BITMAP
C2
C2
C2
C2
C2
C2
C2
E2
FE
C0
C0
C0
ENDCHAR
STARTCHAR 00B6
ENCODING 182
SWIDTH 600 0
DWIDTH 10 0
BBX 8 15 1 -3
BITMAP
1F
7F
F9
F9
F9
F9
79
19
09
09
09
09
09
09
09
ENDCHAR
STARTCHAR 00B7
ENCODING 183
SWIDTH 240 0
DWIDTH 4 0
BBX 2 2 1 4
BITMAP
C0
C0
ENDCHAR
STARTCHAR 00B8
ENCODING 184
SWIDTH 360 0
DWIDTH 6 0
BBX 3 3 1 -3
BITMAP
40
20
E0
ENDCHAR
STARTCHAR 00B9
ENCODING 185
SWIDTH 300 0
DWIDTH 5 0
BBX 3 7 1 5
BITMAP
20
E0
20
20
20
20
20
ENDCHAR
STARTCHAR 00BA
ENCODING 186
SWIDTH 420 0
DWIDTH 7 0
BBX 6 7 1 5
BITMAP
70
C8
8C
8C
8C
F8
20
ENDCHAR
STARTCHAR 00BB
ENCODING 187
SWIDTH 480 0
DWIDTH 8 0
BBX 7 7 1 1
BITMAP
98
CC
64
66
4C
C8
98
ENDCHAR
STARTCHAR 00BC
ENCODING 188
SWIDTH 840 0
DWIDTH 14 0
BBX 13 12 1 0
BITMAP
2040
E0C0
2080
2180
2300
2200
2630
0470
0C50
08F8
1810
1010
ENDCHAR
STARTCHAR 00BD
ENCODING 189
SWIDTH 840 0
DWIDTH 14 0
BBX 13 12 1 0
BITMAP
20C0
E080
2180
2100
2300
2260
24D0
0C18
0810
1860
1040
30F8
ENDCHAR
STARTCHAR 00BE
ENCODING 190
SWIDTH 840 0
DWIDTH 14 0
BBX 13 12 1 0
BITMAP
E040
30C0
3080
6180
1100
1300
E230
0670
0C50
08F8
1810
1010
ENDCHAR
STARTCHAR 00BF
ENCODING 191
SWIDTH 360 0
DWIDTH 6 0
BBX 6 12 0 -3
BITMAP
10
18
10
00
18
18
30
60
40
C0
64
7C
ENDCHAR
STARTCHAR 00C0
ENCODING 192
SWIDTH 660 0
DWIDTH 11 0
BBX 11 16 0 0
BITMAP
0800
0800
0400
0000
0400
0E00
0A00
1B00
1B00
1100
3180
2080
7FC0
60C0
4040
C060
ENDCHAR
STARTCHAR 00C1
ENCODING 193
SWIDTH 660 0
DWIDTH 11 0
BBX 11 15 0 1
BITMAP
0300
0600
0400
0400
0E00
0A00
1B00
1B00
1100
3180
2080
7FC0
60C0
4040
C060
ENDCHAR
STARTCHAR 00C2
ENCODING 194
SWIDTH 660 0
DWIDTH 11 0
BBX 11 15 0 0
BITMAP
0400
0A00
0000
0400
0E00
0A00
1B00
1B00
1100
3180
2080
7FC0
60C0
4040
C060
ENDCHAR
STARTCHAR 00C3
ENCODING 195
SWIDTH 660 0
DWIDTH 11 0
BBX 11 15 0 0
BITMAP
0900
1700
0000
0400
0E00
0A00
1B00
1B00
1100
3180
2080
7FC0
60C0
4040
C060
ENDCHAR
STARTCHAR 00C4
ENCODING 196
SWIDTH 660 0
DWIDTH 11 0
BBX 11 15 0 0
BITMAP
1B00
1B00
0000
0400
0E00
0A00
1B00
1B00
1100
3180
2080
7FC0
60C0
4040
C060
ENDCHAR
STARTCHAR 00C5
ENCODING 197
SWIDTH 660 0
DWIDTH 11 0
BBX 11 14 0 0
BITMAP
0E00
0A00
0A00
0E00
0A00
1B00
1B00
1100
3180
2080
7FC0
60C0
4040
C060
ENDCHAR
STARTCHAR 00C6
ENCODING 198
SWIDTH 900 0
DWIDTH 15 0
BBX 15 12 0 0
BITMAP
01FE
03FE
02C0
06C0
0CC0
08FC
18FC
10C0
3FC0
60C0
60C0
C0FE
ENDCHAR
STARTCHAR 00C7
ENCODING 199
SWIDTH 600 0
DWIDTH 10 0
BBX 9 15 1 -3
BITMAP
0F00
3F80
6000
C000
C000
C000
C000
C000
C000
6000
7080
3F80
0800
0400
1C00
ENDCHAR
STARTCHAR 00C8
ENCODING 200
SWIDTH 540 0
DWIDTH 9 0
BBX 8 15 1 1
BITMAP
30
18
08
FE
FE
C0
C0
C0
FE
FE
C0
C0
C0
C0
FF
ENDCHAR
STARTCHAR 00C9
ENCODING 201
SWIDTH 540 0
DWIDTH 9 0
BBX 8 15 1 1
BITMAP
0C
08
00
FE
FE
C0
C0
C0
FE
FE
C0
C0
C0
C0
FF
ENDCHAR
STARTCHAR 00CA
ENCODING 202
SWIDTH 540 0
DWIDTH 9 0
BBX 8 15 1 0
BITMAP
18
3C
24
FE
FE
C0
C0
C0
FE
FE
C0
C0
C0
C0
FF
ENDCHAR
STARTCHAR 00CB
ENCODING 203
SWIDTH 540 0
DWIDTH 9 0
BBX 8 15 1 0
BITMAP
24
64
00
FE
FE
C0
C0
C0
FE
FE
C0
C0
C0
C0
FF
ENDCHAR
STARTCHAR 00CC
ENCODING 204
SWIDTH 240 0
DWIDTH 4 0
BBX 3 15 0 1
BITMAP
C0
60
20
60
60
60
60
60
60
60
60
60
60
60
60
ENDCHAR
STARTCHAR 00CD
ENCODING 205
SWIDTH 240 0
DWIDTH 4 0
BBX 3 15 1 1
BITMAP
60
40
00
C0
C0
C0
C0
C0
C0
C0
C0
C0
C0
C0
C0
ENDCHAR
STARTCHAR 00CE
ENCODING 206
SWIDTH 240 0
DWIDTH 4 0
BBX 4 15 0 0
BITMAP
60
D0
80
60
60
60
60
60
60
60
60
60
60
60
60
ENDCHAR
STARTCHAR 00CF
ENCODING 207
SWIDTH 240 0
DWIDTH 4 0
BBX 5 15 0 0
BITMAP
98
D8
00
60
60
60
60
60
60
60
60
60
60
60
60
ENDCHAR
STARTCHAR 00D0
ENCODING 208
SWIDTH 720 0
DWIDTH 12 0
BBX 11 12 0 0
BITMAP
3E00
3F80
20C0
2060
2060
F860
F860
2060
2060
20C0
23C0
3F00
ENDCHAR
STARTCHAR 00D1
ENCODING 209
SWIDTH 720 0
DWIDTH 12 0
BBX 10 15 1 0
BITMAP
1900
3E00
0000
C0C0
E0C0
E0C0
F0C0
D8C0
CCC0
C4C0
C6C0
C3C0
C1C0
C1C0
C0C0
ENDCHAR
STARTCHAR 00D2
ENCODING 210
SWIDTH 720 0
DWIDTH 12 0
BBX 11 16 1 0
BITMAP
0800
0800
0400
0000
0E00
3F80
60C0
C060
C060
C060
C060
C060
C060
60C0
71C0
1F00
ENDCHAR
STARTCHAR 00D3
ENCODING 211
SWIDTH 720 0
DWIDTH 12 0
BBX 11 16 1 0
BITMAP
0200
0200
0400
0000
0E00
3F80
60C0
C060
C060
C060
C060
C060
C060
60C0
71C0
1F00
ENDCHAR
STARTCHAR 00D4
ENCODING 212
SWIDTH 720 0
DWIDTH 12 0
BBX 11 15 1 0
BITMAP
0400
0A00
0000
0E00
3F80
60C0
C060
C060
C060
C060
C060
C060
60C0
71C0
1F00
ENDCHAR
STARTCHAR 00D5
ENCODING 213
SWIDTH 720 0
DWIDTH 12 0
BBX 11 15 1 0
BITMAP
0900
1700
0000
0E00
3F80
60C0
C060
C060
C060
C060
C060
C060
60C0
71C0
1F00
ENDCHAR
STARTCHAR 00D6
ENCODING 214
SWIDTH 720 0
DWIDTH 12 0
BBX 11 15 1 0
BITMAP
1B00
1B00
0000
0E00
3F80
60C0
C060
C060
C060
C060
C060
C060
60C0
71C0
1F00
ENDCHAR
STARTCHAR 00D7
ENCODING 215
SWIDTH 540 0
DWIDTH 9 0
BBX 7 6 1 2
BITMAP
C6
6C
38
38
6C
C6
ENDCHAR
STARTCHAR 00D8
ENCODING 216
SWIDTH 720 0
DWIDTH 12 0
BBX 11 12 1 -1
BITMAP
0E60
3FC0
60C0
C160
C360
C660
CC60
C860
D860
70C0
71C0
5F00
ENDCHAR
STARTCHAR 00D9
ENCODING 217
SWIDTH 660 0
DWIDTH 11 0
BBX 9 15 1 1
BITMAP
1800
0800
0000
C180
C180
C180
C180
C180
C180
C180
C180
C180
4180
6300
3E00
ENDCHAR
STARTCHAR 00DA
ENCODING 218
SWIDTH 660 0
DWIDTH 11 0
BBX 9 15 1 1
BITMAP
0600
0C00
0800
C180
C180
C180
C180
C180
C180
C180
C180
C180
4180
6300
3E00
ENDCHAR
STARTCHAR 00DB
ENCODING 219
SWIDTH 660 0
DWIDTH 11 0
BBX 9 15 1 0
BITMAP
0C00
1600
0200
C180
C180
C180
C180
C180
C180
C180
C180
C180
4180
6300
3E00
ENDCHAR
STARTCHAR 00DC
ENCODING 220
SWIDTH 660 0
DWIDTH 11 0
BBX 9 15 1 0
BITMAP
3200
3600
0000
C180
C180
C180
C180
C180
C180
C180
C180
C180
4180
6300
3E00
ENDCHAR
STARTCHAR 00DD
ENCODING 221
SWIDTH 540 0
DWIDTH 9 0
BBX 10 15 0 1
BITMAP
0600
0C00
0800
C0C0
6080
6180
3300
3300
1E00
0C00
0C00
0C00
0C00
0C00
0C00
ENDCHAR
STARTCHAR 00DE
ENCODING 222
SWIDTH 600 0
DWIDTH 10 0
BBX 9 12 1 0
BITMAP
C000
C000
FC00
FF00
C300
C180
C180
C300
FF00
F800
C000
C000
ENDCHAR
STARTCHAR 00DF
ENCODING 223
SWIDTH 600 0
DWIDTH 10 0
BBX 9 13 1 0
BITMAP
3C00
6600
C200
C200
C600
CC00
C800
CC00
C700
C180
C180
D180
DF00
ENDCHAR
STARTCHAR 00E0
ENCODING 224
SWIDTH 480 0
DWIDTH 8 0
BBX 6 13 1 0
BITMAP
20
30
10
00
78
4C
04
04
7C
C4
84
C4
7C
ENDCHAR
STARTCHAR 00E1
ENCODING 225
SWIDTH 480 0
DWIDTH 8 0
BBX 6 13 1 0
BITMAP
08
18
30
00
78
4C
04
04
7C
C4
84
C4
7C
ENDCHAR
STARTCHAR 00E2
ENCODING 226
SWIDTH 480 0
DWIDTH 8 0
BBX 6 13 1 0
BITMAP
10
38
6C
00
78
4C
04
04
7C
C4
84
C4
7C
ENDCHAR
STARTCHAR 00E3
ENCODING 227
SWIDTH 480 0
DWIDTH 8 0
BBX 6 12 1 0
BITMAP
7C
48
00
78
4C
04
04
7C
C4
84
C4
7C
ENDCHAR
STARTCHAR 00E4
ENCODING 228
SWIDTH 480 0
DWIDTH 8 0
BBX 6 12 1 0
BITMAP
6C
4C
00
78
4C
04
04
7C
C4
84
C4
7C
ENDCHAR
STARTCHAR 00E5
ENCODING 229
SWIDTH 480 0
DWIDTH 8 0
BBX 6 13 1 0
BITMAP
38
28
28
10
78
4C
04
04
7C
C4
84
C4
7C
ENDCHAR
STARTCHAR 00E6
ENCODING 230
SWIDTH 840 0
DWIDTH 14 0
BBX 12 9 1 0
BITMAP
79E0
4F70
0610
0610
7FF0
C600
8600
C710
7DF0
ENDCHAR
STARTCHAR 00E7
ENCODING 231
SWIDTH 420 0
DWIDTH 7 0
BBX 6 12 1 -3
BITMAP
3C
7C
C0
C0
80
C0
C0
60
3C
10
08
38
ENDCHAR
STARTCHAR 00E8
ENCODING 232
SWIDTH 540 0
DWIDTH 9 0
BBX 7 13 1 0
BITMAP
20
30
18
00
3C
6E
C2
C2
FE
C0
C0
62
3E
ENDCHAR
STARTCHAR 00E9
ENCODING 233
SWIDTH 540 0
DWIDTH 9 0
BBX 7 13 1 0
BITMAP
08
08
10
00
3C
6E
C2
C2
FE
C0
C0
62
3E
ENDCHAR
STARTCHAR 00EA
ENCODING 234
SWIDTH 540 0
DWIDTH 9 0
BBX 7 13 1 0
BITMAP
10
18
24
00
3C
6E
C2
C2
FE
C0
C0
62
3E
ENDCHAR
STARTCHAR 00EB
ENCODING 235
SWIDTH 540 0
DWIDTH 9 0
BBX 7 12 1 0
BITMAP
6C
24
00
3C
6E
C2
C2
FE
C0
C0
62
3E
ENDCHAR
STARTCHAR 00EC
ENCODING 236
SWIDTH 240 0
DWIDTH 4 0
BBX 2 12 1 1
BITMAP
80
40
00
C0
C0
C0
C0
C0
C0
C0
C0
C0
ENDCHAR
STARTCHAR 00ED
ENCODING 237
SWIDTH 240 0
DWIDTH 4 0
BBX 3 13 1 0
BITMAP
20
60
C0
00
C0
C0
C0
C0
C0
C0
C0
C0
C0
ENDCHAR
STARTCHAR 00EE
ENCODING 238
SWIDTH 240 0
DWIDTH 4 0
BBX 4 12 0 1
BITMAP
60
90
00
60
60
60
60
60
60
60
60
60
ENDCHAR
STARTCHAR 00EF
ENCODING 239
SWIDTH 240 0
DWIDTH 4 0
BBX 5 12 0 0
BITMAP
98
90
00
60
60
60
60
60
60
60
60
60
ENDCHAR
STARTCHAR 00F0
ENCODING 240
SWIDTH 540 0
DWIDTH 9 0
BBX 8 13 1 0
BITMAP
08
0D
0E
16
02
7F
E7
C3
83
83
C2
66
7C
ENDCHAR
STARTCHAR 00F1
ENCODING 241
SWIDTH 540 0
DWIDTH 9 0
BBX 7 12 1 0
BITMAP
3C
48
00
7C
FE
C6
C2
C2
C2
C2
C2
C2
ENDCHAR
STARTCHAR 00F2
ENCODING 242
SWIDTH 540 0
DWIDTH 9 0
BBX 8 13 1 0
BITMAP
20
30
18
00
3C
7E
C3
C3
83
C3
C3
66
3C
ENDCHAR
STARTCHAR 00F3
ENCODING 243
SWIDTH 540 0
DWIDTH 9 0
BBX 8 12 1 1
BITMAP
08
10
00
3C
7E
C3
C3
83
C3
C3
66
3C
ENDCHAR
STARTCHAR 00F4
ENCODING 244
SWIDTH 540 0
DWIDTH 9 0
BBX 8 12 1 1
BITMAP
18
24
00
3C
7E
C3
C3
83
C3
C3
66
3C
ENDCHAR
STARTCHAR 00F5
ENCODING 245
SWIDTH 540 0
DWIDTH 9 0
BBX 8 12 1 0
BITMAP
3C
4C
00
3C
7E
C3
C3
83
C3
C3
66
3C
ENDCHAR
STARTCHAR 00F6
ENCODING 246
SWIDTH 540 0
DWIDTH 9 0
BBX 8 12 1 0
BITMAP
64
24
00
3C
7E
C3
C3
83
C3
C3
66
3C
ENDCHAR
STARTCHAR 00F7
ENCODING 247
SWIDTH 540 0
DWIDTH 9 0
BBX 8 8 1 1
BITMAP
18
10
00
FF
FF
00
10
18
ENDCHAR
STARTCHAR 00F8
ENCODING 248
SWIDTH 540 0
DWIDTH 9 0
BBX 8 9 1 -1
BITMAP
3F
7E
C7
CF
9B
D3
E3
66
FC
ENDCHAR
STARTCHAR 00F9
ENCODING 249
SWIDTH 540 0
DWIDTH 9 0
BBX 7 13 1 0
BITMAP
20
30
18
00
C2
C2
C2
C2
C2
C2
C2
62
7E
ENDCHAR
STARTCHAR 00FA
ENCODING 250
SWIDTH 540 0
DWIDTH 9 0
BBX 7 13 1 0
BITMAP
08
08
10
00
C2
C2
C2
C2
C2
C2
C2
62
7E
ENDCHAR
STARTCHAR 00FB
ENCODING 251
SWIDTH 540 0
DWIDTH 9 0
BBX 7 13 1 0
BITMAP
10
38
2C
00
C2
C2
C2
C2
C2
C2
C2
62
7E
ENDCHAR
STARTCHAR 00FC
ENCODING 252
SWIDTH 540 0
DWIDTH 9 0
BBX 7 12 1 0
BITMAP
6C
24
00
C2
C2
C2
C2
C2
C2
C2
62
7E
ENDCHAR
STARTCHAR 00FD
ENCODING 253
SWIDTH 480 0
DWIDTH 8 0
BBX 8 16 0 -3
BITMAP
04
0C
18
00
C3
43
62
62
26
36
34
1C
18
08
10
F0
ENDCHAR
STARTCHAR 00FE
ENCODING 254
SWIDTH 540 0
DWIDTH 9 0
BBX 8 16 1 -3
BITMAP
C0
C0
C0
C0
FC
FE
C3
C3
C3
C3
C3
C6
FC
C0
C0
C0
ENDCHAR
STARTCHAR 00FF
ENCODING 255
SWIDTH 480 0
DWIDTH 8 0
BBX 8 15 0 -3
BITMAP
36
26
00
C3
43
62
62
26
36
34
1C
18
08
10
F0
ENDCHAR
STARTCHAR 0100
ENCODING 256
SWIDTH 660 0
DWIDTH 11 0
BBX 11 14 0 0
BITMAP
1F00
0000
0400
0E00
0A00
1B00
1B00
1100
3180
2080
7FC0
60C0
4040
C060
ENDCHAR
STARTCHAR 0101
ENCODING 257
SWIDTH 480 0
DWIDTH 8 0
BBX 6 12 1 0
BITMAP
7C
00
00
78
4C
04
04
7C
C4
84
C4
7C
ENDCHAR
STARTCHAR 0102
ENCODING 258
SWIDTH 660 0
DWIDTH 11 0
BBX 11 15 0 0
BITMAP
1100
0E00
0000
0400
0E00
0A00
1B00
1B00
1100
3180
2080
7FC0
60C0
4040
C060
ENDCHAR
STARTCHAR 0103
ENCODING 259
SWIDTH 480 0
DWIDTH 8 0
BBX 6 12 1 0
BITMAP
68
38
00
78
4C
04
04
7C
C4
84
C4
7C
ENDCHAR
STARTCHAR 0104
ENCODING 260
SWIDTH 660 0
DWIDTH 11 0
BBX 11 15 0 -3
BITMAP
0400
0E00
0A00
1B00
1B00
1100
3180
2080
7FC0
60C0
4040
C060
0040
00C0
00E0
ENDCHAR
STARTCHAR 0105
ENCODING 261
SWIDTH 480 0
DWIDTH 8 0
BBX 6 12 1 -3
BITMAP
78
4C
04
04
7C
C4
84
C4
7C
0C
08
0C
ENDCHAR
STARTCHAR 0106
ENCODING 262
SWIDTH 600 0
DWIDTH 10 0
BBX 9 15 1 1
BITMAP
0600
0C00
0000
0F00
3F80
6000
C000
C000
C000
C000
C000
C000
6000
7080
3F80
ENDCHAR
STARTCHAR 0107
ENCODING 263
SWIDTH 420 0
DWIDTH 7 0
BBX 6 13 1 0
BITMAP
08
08
10
00
3C
7C
C0
C0
80
C0
C0
60
3C
ENDCHAR
STARTCHAR 0108
ENCODING 264
SWIDTH 600 0
DWIDTH 10 0
BBX 9 15 1 0
BITMAP
0C00
1E00
1000
0F00
3F80
6000
C000
C000
C000
C000
C000
C000
6000
7080
3F80
ENDCHAR
STARTCHAR 0109
ENCODING 265
SWIDTH 420 0
DWIDTH 7 0
BBX 6 13 1 0
BITMAP
10
18
24
00
3C
7C
C0
C0
80
C0
C0
60
3C
ENDCHAR
STARTCHAR 010A
ENCODING 266
SWIDTH 600 0
DWIDTH 10 0
BBX 9 15 1 0
BITMAP
0C00
0C00
0000
0F00
3F80
6000
C000
C000
C000
C000
C000
C000
6000
7080
3F80
ENDCHAR
STARTCHAR 010B
ENCODING 267
SWIDTH 420 0
DWIDTH 7 0
BBX 6 12 1 0
BITMAP
18
10
00
3C
7C
C0
C0
80
C0
C0
60
3C
ENDCHAR
STARTCHAR 010C
ENCODING 268
SWIDTH 600 0
DWIDTH 10 0
BBX 9 15 1 0
BITMAP
1A00
0C00
0000
0F00
3F80
6000
C000
C000
C000
C000
C000
C000
6000
7080
3F80
ENDCHAR
STARTCHAR 010D
ENCODING 269
SWIDTH 420 0
DWIDTH 7 0
BBX 6 13 1 0
BITMAP
24
38
10
00
3C
7C
C0
C0
80
C0
C0
60
3C
ENDCHAR
STARTCHAR 010E
ENCODING 270
SWIDTH 660 0
DWIDTH 11 0
BBX 10 15 1 0
BITMAP
3600
1C00
0800
7800
FF00
C180
C080
C0C0
C0C0
C0C0
C0C0
C0C0
C180
C700
FE00
ENDCHAR
STARTCHAR 010F
ENCODING 271
SWIDTH 600 0
DWIDTH 10 0
BBX 10 13 1 0
BITMAP
0240
0240
0240
0240
3E00
7E00
C200
C200
8200
C200
C200
6200
3E00
ENDCHAR
STARTCHAR 0110
ENCODING 272
SWIDTH 720 0
DWIDTH 12 0
BBX 11 12 0 0
BITMAP
3E00
3F80
20C0
2060
2060
F860
F860
2060
2060
20C0
23C0
3F00
ENDCHAR
STARTCHAR 0111
ENCODING 273
SWIDTH 540 0
DWIDTH 9 0
BBX 9 13 1 0
BITMAP
0200
0200
1F80
0200
3A00
7E00
C200
C200
8200
C200
C200
6200
3E00
ENDCHAR
STARTCHAR 0112
ENCODING 274
SWIDTH 540 0
DWIDTH 9 0
BBX 8 14 1 0
BITMAP
3C
00
FE
FE
C0
C0
C0
FE
FE
C0
C0
C0
C0
FF
ENDCHAR
STARTCHAR 0113
ENCODING 275
SWIDTH 540 0
DWIDTH 9 0
BBX 7 12 1 0
BITMAP
7C
00
00
3C
6E
C2
C2
FE
C0
C0
62
3E
ENDCHAR
STARTCHAR 0114
ENCODING 276
SWIDTH 540 0
DWIDTH 9 0
BBX 8 15 1 0
BITMAP
24
3C
00
FE
FE
C0
C0
C0
FE
FE
C0
C0
C0
C0
FF
ENDCHAR
STARTCHAR 0115
ENCODING 277
SWIDTH 540 0
DWIDTH 9 0
BBX 7 12 1 0
BITMAP
2C
38
00
3C
6E
C2
C2
FE
C0
C0
62
3E
ENDCHAR
STARTCHAR 0116
ENCODING 278
SWIDTH 540 0
DWIDTH 9 0
BBX 8 15 1 0
BITMAP
18
18
00
FE
FE
C0
C0
C0
FE
FE
C0
C0
C0
C0
FF
ENDCHAR
STARTCHAR 0117
ENCODING 279
SWIDTH 540 0
DWIDTH 9 0
BBX 7 12 1 0
BITMAP
18
10
00
3C
6E
C2
C2
FE
C0
C0
62
3E
ENDCHAR
STARTCHAR 0118
ENCODING 280
SWIDTH 540 0
DWIDTH 9 0
BBX 8 15 1 -3
BITMAP
FE
FE
C0
C0
C0
FE
FE
C0
C0
C0
C0
FF
02
06
07
ENDCHAR
STARTCHAR 0119
ENCODING 281
SWIDTH 540 0
DWIDTH 9 0
BBX 7 12 1 -3
BITMAP
3C
6E
C2
C2
FE
C0
C0
62
3E
0C
08
0E
ENDCHAR
STARTCHAR 011A
ENCODING 282
SWIDTH 540 0
DWIDTH 9 0
BBX 8 15 1 0
BITMAP
2C
18
00
FE
FE
C0
C0
C0
FE
FE
C0
C0
C0
C0
FF
ENDCHAR
STARTCHAR 011B
ENCODING 283
SWIDTH 540 0
DWIDTH 9 0
BBX 7 13 1 0
BITMAP
24
38
10
00
3C
6E
C2
C2
FE
C0
C0
62
3E
ENDCHAR
STARTCHAR 011C
ENCODING 284
SWIDTH 660 0
DWIDTH 11 0
BBX 9 15 1 0
BITMAP
0C00
1A00
1000
0F00
3F80
6000
C000
C000
C000
C180
C180
C180
6180
7180
1F80
ENDCHAR
STARTCHAR 011D
ENCODING 285
SWIDTH 540 0
DWIDTH 9 0
BBX 7 15 1 -2
BITMAP
18
24
00
3E
7E
C2
C2
82
C2
C2
7E
3A
02
06
FC
ENDCHAR
STARTCHAR 011E
ENCODING 286
SWIDTH 660 0
DWIDTH 11 0
BBX 9 15 1 0
BITMAP
1200
0E00
0000
0F00
3F80
6000
C000
C000
C000
C180
C180
C180
6180
7180
1F80
ENDCHAR
STARTCHAR 011F
ENCODING 287
SWIDTH 540 0
DWIDTH 9 0
BBX 7 15 1 -3
BITMAP
24
18
00
3E
7E
C2
C2
82
C2
C2
7E
3A
02
06
FC
ENDCHAR
STARTCHAR 0120
ENCODING 288
SWIDTH 660 0
DWIDTH 11 0
BBX 9 15 1 0
BITMAP
0C00
0C00
0000
0F00
3F80
6000
C000
C000
C000
C180
C180
C180
6180
7180
1F80
ENDCHAR
STARTCHAR 0121
ENCODING 289
SWIDTH 540 0
DWIDTH 9 0
BBX 7 15 1 -3
BITMAP
18
18
00
3E
7E
C2
C2
82
C2
C2
7E
3A
02
06
FC
ENDCHAR
STARTCHAR 0122
ENCODING 290
SWIDTH 660 0
DWIDTH 11 0
BBX 9 15 1 -3
BITMAP
0F00
3F80
6000
C000
C000
C000
C180
C180
C180
6180
7180
1F80
0000
0400
1C00
ENDCHAR
STARTCHAR 0123
ENCODING 291
SWIDTH 540 0
DWIDTH 9 0
BBX 7 16 1 -3
BITMAP
0C
18
18
00
3E
7E
C2
C2
82
C2
C2
7E
3A
02
06
FC
ENDCHAR
STARTCHAR 0124
ENCODING 292
SWIDTH 660 0
DWIDTH 11 0
BBX 9 15 1 0
BITMAP
0C00
1E00
0200
C080
C080
C080
C080
C080
FF80
FF80
C080
C080
C080
C080
C080
ENDCHAR
STARTCHAR 0125
ENCODING 293
SWIDTH 540 0
DWIDTH 9 0
BBX 7 16 1 0
BITMAP
60
F0
00
C0
C0
C0
C0
FC
FE
C6
C2
C2
C2
C2
C2
C2
ENDCHAR
STARTCHAR 0126
ENCODING 294
SWIDTH 720 0
DWIDTH 12 0
BBX 12 12 0 0
BITMAP
2060
2060
FFF0
2060
2060
3FE0
3FE0
2060
2060
2060
2060
2060
ENDCHAR
STARTCHAR 0127
ENCODING 295
SWIDTH 540 0
DWIDTH 9 0
BBX 8 13 0 0
BITMAP
60
60
FC
60
7C
7F
63
61
61
61
61
61
61
ENDCHAR
STARTCHAR 0128
ENCODING 296
SWIDTH 240 0
DWIDTH 4 0
BBX 5 15 0 0
BITMAP
C8
B0
00
60
60
60
60
60
60
60
60
60
60
60
60
ENDCHAR
STARTCHAR 0129
ENCODING 297
SWIDTH 240 0
DWIDTH 4 0
BBX 5 12 0 0
BITMAP
F8
30
00
60
60
60
60
60
60
60
60
60
ENDCHAR
STARTCHAR 012A
ENCODING 298
SWIDTH 240 0
DWIDTH 4 0
BBX 5 14 0 0
BITMAP
F8
00
60
60
60
60
60
60
60
60
60
60
60
60
ENDCHAR
STARTCHAR 012B
ENCODING 299
SWIDTH 240 0
DWIDTH 4 0
BBX 4 12 0 0
BITMAP
F0
00
00
60
60
60
60
60
60
60
60
60
ENDCHAR
STARTCHAR 012C
ENCODING 300
SWIDTH 240 0
DWIDTH 4 0
BBX 4 15 0 0
BITMAP
90
70
00
60
60
60
60
60
60
60
60
60
60
60
60
ENDCHAR
STARTCHAR 012D
ENCODING 301
SWIDTH 240 0
DWIDTH 4 0
BBX 4 12 0 0
BITMAP
90
60
00
60
60
60
60
60
60
60
60
60
ENDCHAR
STARTCHAR 012E
ENCODING 302
SWIDTH 240 0
DWIDTH 4 0
BBX 3 15 0 -3
BITMAP
60
60
60
60
60
60
60
60
60
60
60
60
40
C0
E0
ENDCHAR
STARTCHAR 012F
ENCODING 303
SWIDTH 240 0
DWIDTH 4 0
BBX 3 15 0 -3
BITMAP
60
60
00
60
60
60
60
60
60
60
60
60
40
C0
E0
ENDCHAR
STARTCHAR 0130
ENCODING 304
SWIDTH 240 0
DWIDTH 4 0
BBX 2 15 1 0
BITMAP
C0
C0
00
C0
C0
C0
C0
C0
C0
C0
C0
C0
C0
C0
C0
ENDCHAR
STARTCHAR 0131
ENCODING 305
SWIDTH 240 0
DWIDTH 4 0
BBX 2 9 1 0
BITMAP
C0
C0
C0
C0
C0
C0
C0
C0
C0
ENDCHAR
STARTCHAR 0132
ENCODING 306
SWIDTH 720 0
DWIDTH 12 0
BBX 11 12 1 0
BITMAP
C060
C060
C060
C060
C060
C060
C060
C060
C060
C040
C8C0
CF80
ENDCHAR
STARTCHAR 0133
ENCODING 307
SWIDTH 480 0
DWIDTH 8 0
BBX 6 15 1 -3
BITMAP
CC
C4
00
C4
C4
C4
C4
C4
C4
C4
C4
C4
04
0C
38
ENDCHAR
STARTCHAR 0134
ENCODING 308
SWIDTH 480 0
DWIDTH 8 0
BBX 8 15 0 0
BITMAP
06
0F
08
06
06
06
06
06
06
06
06
06
06
4E
FC
ENDCHAR
STARTCHAR 0135
ENCODING 309
SWIDTH 240 0
DWIDTH 4 0
BBX 5 15 -1 -2
BITMAP
30
48
00
30
30
30
30
30
30
30
30
30
30
30
E0
ENDCHAR
STARTCHAR 0136
ENCODING 310
SWIDTH 600 0
DWIDTH 10 0
BBX 9 15 1 -3
BITMAP
C180
C300
C600
CC00
D800
F000
F800
DC00
C600
C300
C300
C180
0000
0800
1800
ENDCHAR
STARTCHAR 0137
ENCODING 311
SWIDTH 480 0
DWIDTH 8 0
BBX 7 16 1 -3
BITMAP
C0
C0
C0
C0
C6
CC
D8
F0
F0
D8
CC
C4
C6
00
10
30
ENDCHAR
STARTCHAR 0138
ENCODING 312
SWIDTH 480 0
DWIDTH 8 0
BBX 7 9 1 0
BITMAP
C6
CC
D8
F0
F0
D8
CC
C6
C2
ENDCHAR
STARTCHAR 0139
ENCODING 313
SWIDTH 480 0
DWIDTH 8 0
BBX 7 15 1 1
BITMAP
30
60
40
C0
C0
C0
C0
C0
C0
C0
C0
C0
C0
C0
FE
ENDCHAR
STARTCHAR 013A
ENCODING 314
SWIDTH 240 0
DWIDTH 4 0
BBX 3 16 1 0
BITMAP
20
E0
00
C0
C0
C0
C0
C0
C0
C0
C0
C0
C0
C0
C0
60
ENDCHAR
STARTCHAR 013B
ENCODING 315
SWIDTH 480 0
DWIDTH 8 0
BBX 7 15 1 -3
BITMAP
C0
C0
C0
C0
C0
C0
C0
C0
C0
C0
C0
FE
00
18
30
ENDCHAR
STARTCHAR 013C
ENCODING 316
SWIDTH 240 0
DWIDTH 4 0
BBX 3 16 1 -3
BITMAP
C0
C0
C0
C0
C0
C0
C0
C0
C0
C0
C0
C0
60
00
40
C0
ENDCHAR
STARTCHAR 013D
ENCODING 317
SWIDTH 480 0
DWIDTH 8 0
BBX 7 12 1 0
BITMAP
C8
C8
C8
C8
C0
C0
C0
C0
C0
C0
C0
FE
ENDCHAR
STARTCHAR 013E
ENCODING 318
SWIDTH 240 0
DWIDTH 4 0
BBX 4 13 1 0
BITMAP
D0
D0
D0
D0
C0
C0
C0
C0
C0
C0
C0
C0
60
ENDCHAR
STARTCHAR 013F
ENCODING 319
SWIDTH 480 0
DWIDTH 8 0
BBX 7 12 1 0
BITMAP
C0
C0
C0
C0
C0
C6
C4
C0
C0
C0
C0
FE
ENDCHAR
STARTCHAR 0140
ENCODING 320
SWIDTH 360 0
DWIDTH 6 0
BBX 5 13 1 0
BITMAP
C0
C0
C0
C0
C0
C0
D8
D8
C0
C0
C0
C0
60
ENDCHAR
STARTCHAR 0141
ENCODING 321
SWIDTH 480 0
DWIDTH 8 0
BBX 9 12 0 0
BITMAP
2000
2000
2000
2000
2C00
3800
E000
A000
2000
2000
2000
3F80
ENDCHAR
STARTCHAR 0142
ENCODING 322
SWIDTH 240 0
DWIDTH 4 0
BBX 5 13 0 0
BITMAP
20
20
20
20
20
38
60
A0
20
20
20
20
30
ENDCHAR
STARTCHAR 0143
ENCODING 323
SWIDTH 720 0
DWIDTH 12 0
BBX 10 15 1 1
BITMAP
0600
0C00
0800
C0C0
E0C0
E0C0
F0C0
D8C0
CCC0
C4C0
C6C0
C3C0
C1C0
C1C0
C0C0
ENDCHAR
STARTCHAR 0144
ENCODING 324
SWIDTH 540 0
DWIDTH 9 0
BBX 7 13 1 0
BITMAP
08
08
10
00
7C
FE
C6
C2
C2
C2
C2
C2
C2
ENDCHAR
STARTCHAR 0145
ENCODING 325
SWIDTH 720 0
DWIDTH 12 0
BBX 10 15 1 -3
BITMAP
C0C0
E0C0
E0C0
F0C0
D8C0
CCC0
C4C0
C6C0
C3C0
C1C0
C1C0
C0C0
0000
0C00
1800
ENDCHAR
STARTCHAR 0146
ENCODING 326
SWIDTH 540 0
DWIDTH 9 0
BBX 7 12 1 -3
BITMAP
7C
FE
C6
C2
C2
C2
C2
C2
C2
00
18
30
ENDCHAR
STARTCHAR 0147
ENCODING 327
SWIDTH 720 0
DWIDTH 12 0
BBX 10 15 1 0
BITMAP
1A00
0C00
0000
C0C0
E0C0
E0C0
F0C0
D8C0
CCC0
C4C0
C6C0
C3C0
C1C0
C1C0
C0C0
ENDCHAR
STARTCHAR 0148
ENCODING 328
SWIDTH 540 0
DWIDTH 9 0
BBX 7 13 1 0
BITMAP
24
38
18
00
7C
FE
C6
C2
C2
C2
C2
C2
C2
ENDCHAR
STARTCHAR 0149
ENCODING 329
SWIDTH 540 0
DWIDTH 9 0
BBX 8 13 0 0
BITMAP
40
40
C0
00
3E
7F
63
61
61
61
61
61
61
ENDCHAR
STARTCHAR 014A
ENCODING 330
SWIDTH 720 0
DWIDTH 12 0
BBX 10 15 1 -3
BITMAP
C0C0
E0C0
E0C0
F0C0
D8C0
CCC0
C4C0
C6C0
C3C0
C1C0
C1C0
C0C0
00C0
00C0
0380
ENDCHAR
STARTCHAR 014B
ENCODING 331
SWIDTH 540 0
DWIDTH 9 0
BBX 7 12 1 -3
BITMAP
7C
FE
C6
C2
C2
C2
C2
C2
C2
02
06
0E
ENDCHAR
STARTCHAR 014C
ENCODING 332
SWIDTH 720 0
DWIDTH 12 0
BBX 11 14 1 0
BITMAP
1F00
0000
0E00
3F80
60C0
C060
C060
C060
C060
C060
C060
60C0
71C0
1F00
ENDCHAR
STARTCHAR 014D
ENCODING 333
SWIDTH 540 0
DWIDTH 9 0
BBX 8 12 1 0
BITMAP
3C
00
00
3C
7E
C3
C3
83
C3
C3
66
3C
ENDCHAR
STARTCHAR 014E
ENCODING 334
SWIDTH 720 0
DWIDTH 12 0
BBX 11 15 1 0
BITMAP
1100
0E00
0000
0E00
3F80
60C0
C060
C060
C060
C060
C060
C060
60C0
71C0
1F00
ENDCHAR
STARTCHAR 014F
ENCODING 335
SWIDTH 540 0
DWIDTH 9 0
BBX 8 12 1 0
BITMAP
24
18
00
3C
7E
C3
C3
83
C3
C3
66
3C
ENDCHAR
STARTCHAR 0150
ENCODING 336
SWIDTH 720 0
DWIDTH 12 0
BBX 11 15 1 1
BITMAP
0580
0900
0000
0E00
3F80
60C0
C060
C060
C060
C060
C060
C060
60C0
71C0
1F00
ENDCHAR
STARTCHAR 0151
ENCODING 337
SWIDTH 540 0
DWIDTH 9 0
BBX 8 13 1 0
BITMAP
12
16
24
00
3C
7E
C3
C3
83
C3
C3
66
3C
ENDCHAR
STARTCHAR 0152
ENCODING 338
SWIDTH 960 0
DWIDTH 16 0
BBX 15 12 1 0
BITMAP
07FE
3FFE
6080
4080
C080
C0FC
C0FC
C080
C080
6080
3880
1FFE
ENDCHAR
STARTCHAR 0153
ENCODING 339
SWIDTH 900 0
DWIDTH 15 0
BBX 14 9 1 0
BITMAP
3C70
7FD8
C30C
C30C
83FC
C300
C300
6780
3CF8
ENDCHAR
STARTCHAR 0154
ENCODING 340
SWIDTH 600 0
DWIDTH 10 0
BBX 9 15 1 1
BITMAP
0C00
1800
1000
7800
FF00
C300
C100
C100
C300
FE00
CC00
C600
C300
C100
C180
ENDCHAR
STARTCHAR 0155
ENCODING 341
SWIDTH 360 0
DWIDTH 6 0
BBX 5 13 1 0
BITMAP
10
10
20
00
78
F8
C0
C0
C0
C0
C0
C0
C0
ENDCHAR
STARTCHAR 0156
ENCODING 342
SWIDTH 600 0
DWIDTH 10 0
BBX 9 15 1 -3
BITMAP
7800
FF00
C300
C100
C100
C300
FE00
CC00
C600
C300
C100
C180
0000
0800
1800
ENDCHAR
STARTCHAR 0157
ENCODING 343
SWIDTH 360 0
DWIDTH 6 0
BBX 6 12 0 -3
BITMAP
3C
7C
60
60
60
60
60
60
60
00
60
C0
ENDCHAR
STARTCHAR 0158
ENCODING 344
SWIDTH 600 0
DWIDTH 10 0
BBX 9 15 1 0
BITMAP
2C00
1800
0000
7800
FF00
C300
C100
C100
C300
FE00
CC00
C600
C300
C100
C180
ENDCHAR
STARTCHAR 0159
ENCODING 345
SWIDTH 360 0
DWIDTH 6 0
BBX 5 13 1 0
BITMAP
48
70
30
00
78
F8
C0
C0
C0
C0
C0
C0
C0
ENDCHAR
STARTCHAR 015A
ENCODING 346
SWIDTH 480 0
DWIDTH 8 0
BBX 7 15 1 1
BITMAP
0C
18
10
3C
FE
C0
C0
C0
70
3C
06
02
02
86
FC
ENDCHAR
STARTCHAR 015B
ENCODING 347
SWIDTH 420 0
DWIDTH 7 0
BBX 6 13 1 0
BITMAP
10
10
20
00
78
C8
80
C0
70
18
0C
0C
F8
ENDCHAR
STARTCHAR 015C
ENCODING 348
SWIDTH 480 0
DWIDTH 8 0
BBX 7 15 1 0
BITMAP
10
28
00
3C
FE
C0
C0
C0
70
3C
06
02
02
86
FC
ENDCHAR
STARTCHAR 015D
ENCODING 349
SWIDTH 420 0
DWIDTH 7 0
BBX 6 13 1 0
BITMAP
20
30
48
00
78
C8
80
C0
70
18
0C
0C
F8
ENDCHAR
STARTCHAR 015E
ENCODING 350
SWIDTH 480 0
DWIDTH 8 0
BBX 7 15 1 -3
BITMAP
3C
FE
C0
C0
C0
70
3C
06
02
02
86
FC
10
18
30
ENDCHAR
STARTCHAR 015F
ENCODING 351
SWIDTH 420 0
DWIDTH 7 0
BBX 6 12 1 -3
BITMAP
78
C8
80
C0
70
18
0C
0C
F8
20
30
70
ENDCHAR
STARTCHAR 0160
ENCODING 352
SWIDTH 480 0
DWIDTH 8 0
BBX 7 15 1 0
BITMAP
2C
18
10
3C
FE
C0
C0
C0
70
3C
06
02
02
86
FC
ENDCHAR
STARTCHAR 0161
ENCODING 353
SWIDTH 420 0
DWIDTH 7 0
BBX 6 13 1 0
BITMAP
48
70
20
00
78
C8
80
C0
70
18
0C
0C
F8
ENDCHAR
STARTCHAR 0162
ENCODING 354
SWIDTH 540 0
DWIDTH 9 0
BBX 9 15 0 -3
BITMAP
FF80
FF80
0C00
0C00
0C00
0C00
0C00
0C00
0C00
0C00
0C00
0C00
0800
0C00
1C00
ENDCHAR
STARTCHAR 0163
ENCODING 355
SWIDTH 360 0
DWIDTH 6 0
BBX 5 14 1 -3
BITMAP
C0
C0
F8
F8
C0
C0
C0
C0
C0
C0
78
20
10
70
ENDCHAR
STARTCHAR 0164
ENCODING 356
SWIDTH 540 0
DWIDTH 9 0
BBX 9 15 0 0
BITMAP
1600
0C00
0000
FF80
FF80
0C00
0C00
0C00
0C00
0C00
0C00
0C00
0C00
0C00
0C00
ENDCHAR
STARTCHAR 0165
ENCODING 357
SWIDTH 360 0
DWIDTH 6 0
BBX 5 13 1 0
BITMAP
10
10
D0
C0
F8
F8
C0
C0
C0
C0
C0
C0
78
ENDCHAR
STARTCHAR 0166
ENCODING 358
SWIDTH 540 0
DWIDTH 9 0
BBX 9 12 0 0
BITMAP
FF80
FF80
0C00
0C00
0C00
3F00
3F00
0C00
0C00
0C00
0C00
0C00
ENDCHAR
STARTCHAR 0167
ENCODING 359
SWIDTH 360 0
DWIDTH 6 0
BBX 5 11 1 0
BITMAP
C0
C0
F8
F8
C0
C0
F8
C0
C0
C0
78
ENDCHAR
STARTCHAR 0168
ENCODING 360
SWIDTH 660 0
DWIDTH 11 0
BBX 9 15 1 0
BITMAP
1A00
2E00
0000
C180
C180
C180
C180
C180
C180
C180
C180
C180
4180
6300
3E00
ENDCHAR
STARTCHAR 0169
ENCODING 361
SWIDTH 540 0
DWIDTH 9 0
BBX 7 12 1 0
BITMAP
3C
48
00
C2
C2
C2
C2
C2
C2
C2
62
7E
ENDCHAR
STARTCHAR 016A
ENCODING 362
SWIDTH 660 0
DWIDTH 11 0
BBX 9 14 1 0
BITMAP
3E00
0000
C180
C180
C180
C180
C180
C180
C180
C180
C180
4180
6300
3E00
ENDCHAR
STARTCHAR 016B
ENCODING 363
SWIDTH 540 0
DWIDTH 9 0
BBX 7 12 1 0
BITMAP
7C
00
00
C2
C2
C2
C2
C2
C2
C2
62
7E
ENDCHAR
STARTCHAR 016C
ENCODING 364
SWIDTH 660 0
DWIDTH 11 0
BBX 9 15 1 0
BITMAP
1200
1C00
0000
C180
C180
C180
C180
C180
C180
C180
C180
C180
4180
6300
3E00
ENDCHAR
STARTCHAR 016D
ENCODING 365
SWIDTH 540 0
DWIDTH 9 0
BBX 7 12 1 0
BITMAP
2C
18
00
C2
C2
C2
C2
C2
C2
C2
62
7E
ENDCHAR
STARTCHAR 016E
ENCODING 366
SWIDTH 660 0
DWIDTH 11 0
BBX 9 16 1 0
BITMAP
0800
1400
1400
0C00
C180
C180
C180
C180
C180
C180
C180
C180
C180
4180
6300
3E00
ENDCHAR
STARTCHAR 016F
ENCODING 367
SWIDTH 540 0
DWIDTH 9 0
BBX 7 13 1 0
BITMAP
18
28
28
10
C2
C2
C2
C2
C2
C2
C2
62
7E
ENDCHAR
STARTCHAR 0170
ENCODING 368
SWIDTH 660 0
DWIDTH 11 0
BBX 9 15 1 1
BITMAP
0900
1A00
1000
C180
C180
C180
C180
C180
C180
C180
C180
C180
4180
6300
3E00
ENDCHAR
STARTCHAR 0171
ENCODING 369
SWIDTH 540 0
DWIDTH 9 0
BBX 7 13 1 0
BITMAP
12
16
24
00
C2
C2
C2
C2
C2
C2
C2
62
7E
ENDCHAR
STARTCHAR 0172
ENCODING 370
SWIDTH 660 0
DWIDTH 11 0
BBX 9 15 1 -3
BITMAP
C180
C180
C180
C180
C180
C180
C180
C180
C180
4180
6300
3E00
0400
0800
0E00
ENDCHAR
STARTCHAR 0173
ENCODING 371
SWIDTH 540 0
DWIDTH 9 0
BBX 7 12 1 -3
BITMAP
C2
C2
C2
C2
C2
C2
C2
62
7E
04
0C
0E
ENDCHAR
STARTCHAR 0174
ENCODING 372
SWIDTH 900 0
DWIDTH 15 0
BBX 15 15 0 0
BITMAP
0180
02C0
0040
C006
4006
6186
6184
6384
62CC
224C
364C
3468
3C38
1838
1830
ENDCHAR
STARTCHAR 0175
ENCODING 373
SWIDTH 720 0
DWIDTH 12 0
BBX 13 13 0 0
BITMAP
0200
0700
0D80
0000
C218
4210
4710
6530
6520
2DA0
38E0
18C0
18C0
ENDCHAR
STARTCHAR 0176
ENCODING 374
SWIDTH 540 0
DWIDTH 9 0
BBX 10 15 0 0
BITMAP
0C00
1E00
1200
C0C0
6080
6180
3300
3300
1E00
0C00
0C00
0C00
0C00
0C00
0C00
ENDCHAR
STARTCHAR 0177
ENCODING 375
SWIDTH 480 0
DWIDTH 8 0
BBX 8 16 0 -3
BITMAP
08
1C
36
00
C3
43
62
62
26
36
34
1C
18
08
10
F0
ENDCHAR
STARTCHAR 0178
ENCODING 376
SWIDTH 540 0
DWIDTH 9 0
BBX 10 15 0 0
BITMAP
1200
3200
0000
C0C0
6080
6180
3300
3300
1E00
0C00
0C00
0C00
0C00
0C00
0C00
ENDCHAR
STARTCHAR 0179
ENCODING 377
SWIDTH 540 0
DWIDTH 9 0
BBX 8 15 1 1
BITMAP
0C
18
10
FF
FF
06
0C
0C
18
30
20
60
C0
80
FF
ENDCHAR
STARTCHAR 017A
ENCODING 378
SWIDTH 420 0
DWIDTH 7 0
BBX 6 13 1 0
BITMAP
10
10
20
00
FC
FC
18
10
30
60
C0
C0
FC
ENDCHAR
STARTCHAR 017B
ENCODING 379
SWIDTH 540 0
DWIDTH 9 0
BBX 8 15 1 0
BITMAP
18
18
00
FF
FF
06
0C
0C
18
30
20
60
C0
80
FF
ENDCHAR
STARTCHAR 017C
ENCODING 380
SWIDTH 420 0
DWIDTH 7 0
BBX 6 12 1 0
BITMAP
30
30
00
FC
FC
18
10
30
60
C0
C0
FC
ENDCHAR
STARTCHAR 017D
ENCODING 381
SWIDTH 540 0
DWIDTH 9 0
BBX 8 15 1 0
BITMAP
2C
18
00
FF
FF
06
0C
0C
18
30
20
60
C0
80
FF
ENDCHAR
STARTCHAR 017E
ENCODING 382
SWIDTH 420 0
DWIDTH 7 0
BBX 6 13 1 0
BITMAP
48
78
30
00
FC
FC
18
10
30
60
C0
C0
FC
ENDCHAR
STARTCHAR 017F
ENCODING 383
SWIDTH 240 0
DWIDTH 4 0
BBX 6 13 1 0
BITMAP
3C
60
C0
C0
C0
C0
C0
C0
C0
C0
C0
C0
C0
ENDCHAR
STARTCHAR 0180
ENCODING 384
SWIDTH 540 0
DWIDTH 9 0
BBX 9 13 0 0
BITMAP
6000
6000
FC00
6000
7E00
7F00
6180
6180
6180
6180
6180
6300
7E00
ENDCHAR
STARTCHAR 0181
ENCODING 385
SWIDTH 720 0
DWIDTH 12 0
BBX 12 12 0 0
BITMAP
1F00
7FC0
D860
D860
1860
1FC0
1FE0
1820
1830
1820
18E0
1FC0
ENDCHAR
STARTCHAR 0182
ENCODING 386
SWIDTH 600 0
DWIDTH 10 0
BBX 9 12 1 0
BITMAP
FF00
FF00
C000
C000
C000
FE00
C300
C180
C180
C180
C700
FE00
ENDCHAR
STARTCHAR 0183
ENCODING 387
SWIDTH 540 0
DWIDTH 9 0
BBX 8 13 1 0
BITMAP
FE
C0
C0
C0
FC
FE
C3
C3
C3
C3
C3
C6
FC
ENDCHAR
STARTCHAR 0184
ENCODING 388
SWIDTH 540 0
DWIDTH 9 0
BBX 9 13 0 0
BITMAP
2000
E000
6000
6000
7E00
7F00
6180
6180
6180
6180
6180
6300
7E00
ENDCHAR
STARTCHAR 0185
ENCODING 389
SWIDTH 600 0
DWIDTH 10 0
BBX 10 11 0 1
BITMAP
E000
6000
6000
6000
7F00
6180
60C0
60C0
60C0
6380
7F00
ENDCHAR
STARTCHAR 0186
ENCODING 390
SWIDTH 600 0
DWIDTH 10 0
BBX 9 12 0 0
BITMAP
7C00
7F00
0300
0180
0180
0080
0080
0080
0180
0180
4700
FE00
ENDCHAR
STARTCHAR 0187
ENCODING 391
SWIDTH 660 0
DWIDTH 11 0
BBX 11 13 1 0
BITMAP
00E0
0E80
3F80
6000
C000
C000
C000
C000
C000
C000
6000
7080
3F80
ENDCHAR
STARTCHAR 0188
ENCODING 392
SWIDTH 480 0
DWIDTH 8 0
BBX 8 10 1 0
BITMAP
07
3C
7C
C0
C0
80
C0
C0
60
3C
ENDCHAR
STARTCHAR 0189
ENCODING 393
SWIDTH 720 0
DWIDTH 12 0
BBX 11 12 0 0
BITMAP
3E00
3F80
20C0
2060
2060
F860
F860
2060
2060
20C0
23C0
3F00
ENDCHAR
STARTCHAR 018A
ENCODING 394
SWIDTH 780 0
DWIDTH 13 0
BBX 13 12 0 0
BITMAP
1F00
7FC0
D870
D830
1810
1818
1818
1818
1830
1830
18E0
1F80
ENDCHAR
STARTCHAR 018B
ENCODING 395
SWIDTH 600 0
DWIDTH 10 0
BBX 8 12 1 0
BITMAP
7F
7F
03
03
03
7F
E3
C3
83
C3
E3
3F
ENDCHAR
STARTCHAR 018C
ENCODING 396
SWIDTH 540 0
DWIDTH 9 0
BBX 7 13 1 0
BITMAP
7E
02
02
02
3A
7E
C2
C2
82
C2
C2
62
3E
ENDCHAR
STARTCHAR 018D
ENCODING 397
SWIDTH 540 0
DWIDTH 9 0
BBX 8 12 1 -3
BITMAP
3C
6E
C3
C3
83
C3
C6
7C
1C
04
04
7C
ENDCHAR
STARTCHAR 018E
ENCODING 398
SWIDTH 540 0
DWIDTH 9 0
BBX 7 12 1 0
BITMAP
FE
FE
06
06
06
7E
7E
06
06
06
06
FE
ENDCHAR
STARTCHAR 018F
ENCODING 399
SWIDTH 660 0
DWIDTH 11 0
BBX 10 12 1 0
BITMAP
3C00
7F00
0180
0080
00C0
00C0
FFC0
C0C0
C080
C180
6300
3E00
ENDCHAR
STARTCHAR 0190
ENCODING 400
SWIDTH 540 0
DWIDTH 9 0
BBX 8 12 1 0
BITMAP
3E
7E
C0
C0
60
3C
7C
C0
C0
C0
E1
7F
ENDCHAR
STARTCHAR 0191
ENCODING 401
SWIDTH 480 0
DWIDTH 8 0
BBX 8 15 0 -3
BITMAP
7F
7F
60
60
60
7F
7F
60
60
60
60
60
60
60
C0
ENDCHAR
STARTCHAR 0192
ENCODING 402
SWIDTH 360 0
DWIDTH 6 0
BBX 8 16 -1 -3
BITMAP
0F
18
30
30
3E
3E
30
30
30
30
30
30
30
30
30
E0
ENDCHAR
STARTCHAR 0193
ENCODING 403
SWIDTH 660 0
DWIDTH 11 0
BBX 11 13 1 0
BITMAP
00E0
0F80
3F80
6000
C000
C000
C000
C180
C180
C180
6180
7180
1F80
ENDCHAR
STARTCHAR 0194
ENCODING 404
SWIDTH 600 0
DWIDTH 10 0
BBX 11 15 0 -3
BITMAP
C060
4040
60C0
2080
3180
3100
1B00
0A00
0E00
0C00
0E00
1B00
1300
1B00
0E00
ENDCHAR
STARTCHAR 0195
ENCODING 405
SWIDTH 840 0
DWIDTH 14 0
BBX 13 13 1 0
BITMAP
C000
C000
C000
C000
FC18
FE18
C618
C218
C218
C218
C218
C330
C1E0
ENDCHAR
STARTCHAR 0196
ENCODING 406
SWIDTH 360 0
DWIDTH 6 0
BBX 5 12 1 0
BITMAP
C0
C0
C0
C0
C0
C0
C0
C0
C0
C0
60
78
ENDCHAR
STARTCHAR 0197
ENCODING 407
SWIDTH 300 0
DWIDTH 5 0
BBX 5 12 0 0
BITMAP
30
30
30
30
30
F8
F8
30
30
30
30
30
ENDCHAR
STARTCHAR 0198
ENCODING 408
SWIDTH 660 0
DWIDTH 11 0
BBX 9 12 1 0
BITMAP
C180
C380
C600
CC00
D800
F000
F800
DC00
C600
C300
C100
C180
ENDCHAR
STARTCHAR 0199
ENCODING 409
SWIDTH 480 0
DWIDTH 8 0
BBX 7 13 1 0
BITMAP
70
40
C0
C0
C6
CC
D8
F0
F0
D8
CC
C4
C6
ENDCHAR
STARTCHAR 019A
ENCODING 410
SWIDTH 240 0
DWIDTH 4 0
BBX 5 13 0 0
BITMAP
20
20
20
20
20
20
F8
20
20
20
20
20
30
ENDCHAR
STARTCHAR 019B
ENCODING 411
SWIDTH 480 0
DWIDTH 8 0
BBX 8 13 0 0
BITMAP
60
34
3C
78
08
1C
14
34
26
62
62
43
C3
ENDCHAR
STARTCHAR 019C
ENCODING 412
SWIDTH 960 0
DWIDTH 16 0
BBX 14 12 1 0
BITMAP
C30C
C30C
C30C
C30C
C30C
C30C
C30C
C30C
C30C
430C
638C
3EFC
ENDCHAR
STARTCHAR 019D
ENCODING 413
SWIDTH 720 0
DWIDTH 12 0
BBX 11 15 0 -3
BITMAP
6060
7060
7060
7860
6C60
6660
6260
6360
61E0
60E0
60E0
6060
6000
6000
C000
ENDCHAR
STARTCHAR 019E
ENCODING 414
SWIDTH 540 0
DWIDTH 9 0
BBX 7 12 1 -3
BITMAP
7C
FE
C6
C2
C2
C2
C2
C2
C2
02
02
02
ENDCHAR
STARTCHAR 019F
ENCODING 415
SWIDTH 720 0
DWIDTH 12 0
BBX 11 12 1 0
BITMAP
0E00
3F80
60C0
C060
C060
C060
FFE0
C060
C060
60C0
71C0
1F00
ENDCHAR
STARTCHAR 01A0
ENCODING 416
SWIDTH 720 0
DWIDTH 12 0
BBX 11 13 1 0
BITMAP
0060
0E60
3FC0
60C0
C060
C060
C060
C060
C060
C060
60C0
71C0
1F00
ENDCHAR
STARTCHAR 01A1
ENCODING 417
SWIDTH 540 0
DWIDTH 9 0
BBX 9 10 1 0
BITMAP
0180
3D00
7F00
C300
C300
8300
C300
C300
6600
3C00
ENDCHAR
STARTCHAR 01A2
ENCODING 418
SWIDTH 1020 0
DWIDTH 17 0
BBX 15 12 1 0
BITMAP
1E38
3FFC
60C4
C0C6
C046
C066
C066
C046
C0C6
60C6
7186
1F06
ENDCHAR
STARTCHAR 01A3
ENCODING 419
SWIDTH 780 0
DWIDTH 13 0
BBX 11 12 1 -3
BITMAP
39C0
7FE0
C220
C320
8320
C320
C220
6620
3C20
0020
0020
0020
ENDCHAR
STARTCHAR 01A4
ENCODING 420
SWIDTH 660 0
DWIDTH 11 0
BBX 11 12 0 0
BITMAP
1F00
7FC0
D860
D820
1820
1860
1FC0
1F00
1800
1800
1800
1800
ENDCHAR
STARTCHAR 01A5
ENCODING 421
SWIDTH 540 0
DWIDTH 9 0
BBX 8 16 1 -3
BITMAP
70
40
C0
C0
FC
FE
C3
C3
C3
C3
C3
C6
FC
C0
C0
C0
ENDCHAR
STARTCHAR 01A6
ENCODING 422
SWIDTH 600 0
DWIDTH 10 0
BBX 10 15 1 -2
BITMAP
C000
F800
FF00
C300
C100
C100
C300
FE00
CC00
C600
C300
C300
C180
0080
00C0
ENDCHAR
STARTCHAR 01A7
ENCODING 423
SWIDTH 480 0
DWIDTH 8 0
BBX 7 12 1 0
BITMAP
78
FC
06
06
06
1C
70
C0
80
80
C2
7E
ENDCHAR
STARTCHAR 01A8
ENCODING 424
SWIDTH 420 0
DWIDTH 7 0
BBX 6 9 1 0
BITMAP
F0
98
0C
18
78
C0
80
84
FC
ENDCHAR
STARTCHAR 01A9
ENCODING 425
SWIDTH 540 0
DWIDTH 9 0
BBX 8 12 1 0
BITMAP
FF
FF
40
60
30
18
18
30
60
C0
C0
FF
ENDCHAR
STARTCHAR 01AA
ENCODING 426
SWIDTH 240 0
DWIDTH 4 0
BBX 7 16 -2 -3
BITMAP
70
58
C8
78
28
08
08
08
08
08
08
08
08
08
0C
0E
ENDCHAR
STARTCHAR 01AB
ENCODING 427
SWIDTH 360 0
DWIDTH 6 0
BBX 5 14 1 -3
BITMAP
C0
C0
F8
F8
C0
C0
C0
C0
C0
C0
78
08
08
38
ENDCHAR
STARTCHAR 01AC
ENCODING 428
SWIDTH 540 0
DWIDTH 9 0
BBX 10 12 0 0
BITMAP
3FC0
7FC0
CC00
CC00
0C00
0C00
0C00
0C00
0C00
0C00
0C00
0C00
ENDCHAR
STARTCHAR 01AD
ENCODING 429
SWIDTH 360 0
DWIDTH 6 0
BBX 5 13 1 0
BITMAP
38
60
C0
C0
F8
F8
C0
C0
C0
C0
C0
C0
78
ENDCHAR
STARTCHAR 01AE
ENCODING 430
SWIDTH 540 0
DWIDTH 9 0
BBX 9 15 0 -3
BITMAP
FF80
FF80
0C00
0C00
0C00
0C00
0C00
0C00
0C00
0C00
0C00
0C00
0C00
0C00
0600
ENDCHAR
STARTCHAR 01AF
ENCODING 431
SWIDTH 660 0
DWIDTH 11 0
BBX 11 13 1 0
BITMAP
0020
C1E0
C180
C180
C180
C180
C180
C180
C180
C180
4180
6300
3E00
ENDCHAR
STARTCHAR 01B0
ENCODING 432
SWIDTH 540 0
DWIDTH 9 0
BBX 9 10 1 0
BITMAP
0080
C380
C200
C200
C200
C200
C200
C200
6200
7E00
ENDCHAR
STARTCHAR 01B1
ENCODING 433
SWIDTH 780 0
DWIDTH 13 0
BBX 11 12 1 0
BITMAP
F1E0
F1E0
2080
60C0
4060
C060
C060
C060
C060
60C0
71C0
1F00
ENDCHAR
STARTCHAR 01B2
ENCODING 434
SWIDTH 660 0
DWIDTH 11 0
BBX 9 12 1 0
BITMAP
C600
C700
C180
C180
C080
C080
C080
C080
C080
4180
6300
3E00
ENDCHAR
STARTCHAR 01B3
ENCODING 435
SWIDTH 660 0
DWIDTH 11 0
BBX 11 12 0 0
BITMAP
C0C0
61E0
6100
3300
3200
1E00
0C00
0C00
0C00
0C00
0C00
0C00
ENDCHAR
STARTCHAR 01B4
ENCODING 436
SWIDTH 540 0
DWIDTH 9 0
BBX 9 12 0 -3
BITMAP
C180
4300
6200
6200
2600
3400
3400
1C00
1800
0800
1000
E000
ENDCHAR
STARTCHAR 01B5
ENCODING 437
SWIDTH 540 0
DWIDTH 9 0
BBX 8 12 1 0
BITMAP
FF
FF
06
0C
0C
FE
FE
20
60
C0
C0
FF
ENDCHAR
STARTCHAR 01B6
ENCODING 438
SWIDTH 420 0
DWIDTH 7 0
BBX 6 9 1 0
BITMAP
FC
FC
18
10
FC
60
40
C0
FC
ENDCHAR
STARTCHAR 01B7
ENCODING 439
SWIDTH 540 0
DWIDTH 9 0
BBX 8 12 1 0
BITMAP
FE
FE
06
0C
18
38
1E
02
03
03
86
FC
ENDCHAR
STARTCHAR 01B8
ENCODING 440
SWIDTH 540 0
DWIDTH 9 0
BBX 8 12 1 0
BITMAP
FF
FF
60
30
10
18
70
C0
C0
C0
E1
7F
ENDCHAR
STARTCHAR 01B9
ENCODING 441
SWIDTH 420 0
DWIDTH 7 0
BBX 7 12 1 -3
BITMAP
FE
FE
60
20
30
38
E0
80
80
80
E2
7E
ENDCHAR
STARTCHAR 01BA
ENCODING 442
SWIDTH 420 0
DWIDTH 7 0
BBX 7 12 0 -3
BITMAP
FE
FE
0C
18
38
0E
06
06
0E
78
C0
C0
ENDCHAR
STARTCHAR 01BB
ENCODING 443
SWIDTH 540 0
DWIDTH 9 0
BBX 7 12 1 0
BITMAP
78
FC
86
06
04
0C
FE
30
60
C0
C0
FE
ENDCHAR
STARTCHAR 01BC
ENCODING 444
SWIDTH 480 0
DWIDTH 8 0
BBX 8 12 0 0
BITMAP
FF
FF
20
20
20
3C
07
03
01
01
43
7E
ENDCHAR
STARTCHAR 01BD
ENCODING 445
SWIDTH 480 0
DWIDTH 8 0
BBX 8 9 0 0
BITMAP
FE
FE
20
20
3E
02
03
06
7E
ENDCHAR
STARTCHAR 01BE
ENCODING 446
SWIDTH 420 0
DWIDTH 7 0
BBX 6 11 1 0
BITMAP
C0
C0
F8
F8
C0
C0
78
1C
0C
0C
F8
ENDCHAR
STARTCHAR 01BF
ENCODING 447
SWIDTH 540 0
DWIDTH 9 0
BBX 8 12 1 -3
BITMAP
7C
FE
C2
C3
C3
C3
C6
CC
F8
E0
C0
C0
ENDCHAR
STARTCHAR 01C0
ENCODING 448
SWIDTH 240 0
DWIDTH 4 0
BBX 1 16 2 -3
BITMAP
80
80
80
80
80
80
80
80
80
80
80
80
80
80
80
80
ENDCHAR
STARTCHAR 01C1
ENCODING 449
SWIDTH 480 0
DWIDTH 8 0
BBX 4 16 2 -3
BITMAP
90
90
90
90
90
90
90
90
90
90
90
90
90
90
90
90
ENDCHAR
STARTCHAR 01C2
ENCODING 450
SWIDTH 540 0
DWIDTH 9 0
BBX 8 16 1 -3
BITMAP
10
10
10
10
10
10
FF
10
10
FF
10
10
10
10
10
10
ENDCHAR
STARTCHAR 01C3
ENCODING 451
SWIDTH 240 0
DWIDTH 4 0
BBX 2 12 1 0
BITMAP
C0
C0
C0
C0
C0
40
40
40
00
00
C0
C0
ENDCHAR
STARTCHAR 01C4
ENCODING 452
SWIDTH 1260 0
DWIDTH 21 0
BBX 20 15 1 0
BITMAP
0002C0
000180
000000
780FF0
FF0FF0
C18060
C080C0
C0C080
C0C180
C0C300
C0C200
C0C600
C18C00
C70800
FE1FF0
ENDCHAR
STARTCHAR 01C5
ENCODING 453
SWIDTH 1140 0
DWIDTH 19 0
BBX 18 13 1 0
BITMAP
000480
780700
FF0300
C18000
C08FC0
C0CFC0
C0C180
C0C100
C0C300
C0C600
C18C00
C70C00
FE0FC0
ENDCHAR
STARTCHAR 01C6
ENCODING 454
SWIDTH 1020 0
DWIDTH 17 0
BBX 16 13 1 0
BITMAP
0212
021C
0208
0200
3E3F
7E3F
C206
C204
820C
C218
C230
6220
3E7F
ENDCHAR
STARTCHAR 01C7
ENCODING 455
SWIDTH 960 0
DWIDTH 16 0
BBX 15 12 1 0
BITMAP
C006
C006
C006
C006
C006
C006
C006
C006
C006
C006
C08C
FEFC
ENDCHAR
STARTCHAR 01C8
ENCODING 456
SWIDTH 720 0
DWIDTH 12 0
BBX 11 15 1 -3
BITMAP
C060
C060
C000
C060
C060
C060
C060
C060
C060
C060
C060
FE60
0060
0040
01C0
ENDCHAR
STARTCHAR 01C9
ENCODING 457
SWIDTH 480 0
DWIDTH 8 0
BBX 7 16 1 -3
BITMAP
C0
C6
C4
C0
C6
C6
C6
C6
C6
C6
C6
C6
66
04
0C
1C
ENDCHAR
STARTCHAR 01CA
ENCODING 458
SWIDTH 1200 0
DWIDTH 20 0
BBX 18 12 1 0
BITMAP
C0C040
E0C040
E0C040
F0C040
D8C040
CCC040
C4C040
C6C040
C3C040
C1C0C0
C1C8C0
C0CF80
ENDCHAR
STARTCHAR 01CB
ENCODING 459
SWIDTH 960 0
DWIDTH 16 0
BBX 14 15 1 -3
BITMAP
C0CC
E0C4
E0C0
F0C4
D8C4
CCC4
C4C4
C6C4
C3C4
C1C4
C1C4
C0C4
000C
000C
0038
ENDCHAR
STARTCHAR 01CC
ENCODING 460
SWIDTH 780 0
DWIDTH 13 0
BBX 12 15 1 -3
BITMAP
0030
0020
0000
7C30
FE30
C630
C230
C230
C230
C230
C230
C230
0020
0060
00E0
ENDCHAR
STARTCHAR 01CD
ENCODING 461
SWIDTH 660 0
DWIDTH 11 0
BBX 11 15 0 0
BITMAP
1B00
0E00
0400
0400
0E00
0A00
1B00
1B00
1100
3180
2080
7FC0
60C0
4040
C060
ENDCHAR
STARTCHAR 01CE
ENCODING 462
SWIDTH 480 0
DWIDTH 8 0
BBX 6 13 1 0
BITMAP
40
38
10
00
78
4C
04
04
7C
C4
84
C4
7C
ENDCHAR
STARTCHAR 01CF
ENCODING 463
SWIDTH 240 0
DWIDTH 4 0
BBX 4 15 0 0
BITMAP
D0
60
00
60
60
60
60
60
60
60
60
60
60
60
60
ENDCHAR
STARTCHAR 01D0
ENCODING 464
SWIDTH 240 0
DWIDTH 4 0
BBX 4 13 0 0
BITMAP
90
70
60
00
60
60
60
60
60
60
60
60
60
ENDCHAR
STARTCHAR 01D1
ENCODING 465
SWIDTH 720 0
DWIDTH 12 0
BBX 11 15 1 0
BITMAP
1B00
0E00
0400
0E00
3F80
60C0
C060
C060
C060
C060
C060
C060
60C0
71C0
1F00
ENDCHAR
STARTCHAR 01D2
ENCODING 466
SWIDTH 540 0
DWIDTH 9 0
BBX 8 13 1 0
BITMAP
24
3C
18
00
3C
7E
C3
C3
83
C3
C3
66
3C
ENDCHAR
STARTCHAR 01D3
ENCODING 467
SWIDTH 660 0
DWIDTH 11 0
BBX 9 15 1 0
BITMAP
1600
0C00
0000
C180
C180
C180
C180
C180
C180
C180
C180
C180
4180
6300
3E00
ENDCHAR
STARTCHAR 01D4
ENCODING 468
SWIDTH 540 0
DWIDTH 9 0
BBX 7 13 1 0
BITMAP
24
38
10
00
C2
C2
C2
C2
C2
C2
C2
62
7E
ENDCHAR
STARTCHAR 01D5
ENCODING 469
SWIDTH 660 0
DWIDTH 11 0
BBX 9 16 1 0
BITMAP
1E00
0000
3200
0200
C180
C180
C180
C180
C180
C180
C180
C180
C180
4180
6300
3E00
ENDCHAR
STARTCHAR 01D6
ENCODING 470
SWIDTH 540 0
DWIDTH 9 0
BBX 7 13 1 0
BITMAP
3C
24
64
00
C2
C2
C2
C2
C2
C2
C2
62
7E
ENDCHAR
STARTCHAR 01D7
ENCODING 471
SWIDTH 660 0
DWIDTH 11 0
BBX 9 16 1 0
BITMAP
0400
0C00
2B00
2000
C180
C180
C180
C180
C180
C180
C180
C180
C180
4180
6300
3E00
ENDCHAR
STARTCHAR 01D8
ENCODING 472
SWIDTH 540 0
DWIDTH 9 0
BBX 7 14 1 0
BITMAP
08
18
54
64
00
C2
C2
C2
C2
C2
C2
C2
62
7E
ENDCHAR
STARTCHAR 01D9
ENCODING 473
SWIDTH 660 0
DWIDTH 11 0
BBX 9 16 1 0
BITMAP
1600
0C00
2300
2000
C180
C180
C180
C180
C180
C180
C180
C180
C180
4180
6300
3E00
ENDCHAR
STARTCHAR 01DA
ENCODING 474
SWIDTH 540 0
DWIDTH 9 0
BBX 7 14 1 0
BITMAP
24
38
04
64
00
C2
C2
C2
C2
C2
C2
C2
62
7E
ENDCHAR
STARTCHAR 01DB
ENCODING 475
SWIDTH 660 0
DWIDTH 11 0
BBX 9 16 1 0
BITMAP
1000
0800
2B00
2000
C180
C180
C180
C180
C180
C180
C180
C180
C180
4180
6300
3E00
ENDCHAR
STARTCHAR 01DC
ENCODING 476
SWIDTH 540 0
DWIDTH 9 0
BBX 7 14 1 0
BITMAP
20
10
54
64
00
C2
C2
C2
C2
C2
C2
C2
62
7E
ENDCHAR
STARTCHAR 01DD
ENCODING 477
SWIDTH 540 0
DWIDTH 9 0
BBX 7 9 1 0
BITMAP
78
7C
06
02
FE
82
C6
C6
7C
ENDCHAR
STARTCHAR 01DE
ENCODING 478
SWIDTH 660 0
DWIDTH 11 0
BBX 11 16 0 0
BITMAP
1F00
0000
1B00
0000
0400
0E00
0A00
1B00
1B00
1100
3180
2080
7FC0
60C0
4040
C060
ENDCHAR
STARTCHAR 01DF
ENCODING 479
SWIDTH 480 0
DWIDTH 8 0
BBX 6 13 1 0
BITMAP
7C
44
6C
00
78
4C
04
04
7C
C4
84
C4
7C
ENDCHAR
STARTCHAR 01E0
ENCODING 480
SWIDTH 660 0
DWIDTH 11 0
BBX 11 16 0 0
BITMAP
1F00
0000
0400
0400
0400
0E00
0A00
1B00
1B00
1100
3180
2080
7FC0
60C0
4040
C060
ENDCHAR
STARTCHAR 01E1
ENCODING 481
SWIDTH 480 0
DWIDTH 8 0
BBX 6 13 1 0
BITMAP
7C
10
30
00
78
4C
04
04
7C
C4
84
C4
7C
ENDCHAR
STARTCHAR 01E2
ENCODING 482
SWIDTH 900 0
DWIDTH 15 0
BBX 15 14 0 0
BITMAP
01F0
0000
01FE
03FE
02C0
06C0
0CC0
08FC
18FC
10C0
3FC0
60C0
60C0
C0FE
ENDCHAR
STARTCHAR 01E3
ENCODING 483
SWIDTH 840 0
DWIDTH 14 0
BBX 12 12 1 0
BITMAP
0F00
0000
0000
79E0
4F70
0610
0610
7FF0
C600
8600
C710
7DF0
ENDCHAR
STARTCHAR 01E4
ENCODING 484
SWIDTH 660 0
DWIDTH 11 0
BBX 10 12 1 0
BITMAP
0F00
3F80
6000
C000
C000
C000
C180
C180
C3C0
6180
7180
1F80
ENDCHAR
STARTCHAR 01E5
ENCODING 485
SWIDTH 540 0
DWIDTH 9 0
BBX 9 12 1 -3
BITMAP
3E00
7E00
C200
C200
8F80
C200
C200
7E00
3A00
0200
0600
FC00
ENDCHAR
STARTCHAR 01E6
ENCODING 486
SWIDTH 660 0
DWIDTH 11 0
BBX 9 15 1 0
BITMAP
1A00
0C00
0000
0F00
3F80
6000
C000
C000
C000
C180
C180
C180
6180
7180
1F80
ENDCHAR
STARTCHAR 01E7
ENCODING 487
SWIDTH 540 0
DWIDTH 9 0
BBX 7 16 1 -3
BITMAP
24
38
18
00
3E
7E
C2
C2
82
C2
C2
7E
3A
02
06
FC
ENDCHAR
STARTCHAR 01E8
ENCODING 488
SWIDTH 600 0
DWIDTH 10 0
BBX 9 15 1 0
BITMAP
3400
1800
0000
C180
C300
C600
CC00
D800
F000
F800
DC00
C600
C300
C300
C180
ENDCHAR
STARTCHAR 01E9
ENCODING 489
SWIDTH 480 0
DWIDTH 8 0
BBX 7 16 1 0
BITMAP
90
60
00
C0
C0
C0
C0
C6
CC
D8
F0
F0
D8
CC
C4
C6
ENDCHAR
STARTCHAR 01EA
ENCODING 490
SWIDTH 720 0
DWIDTH 12 0
BBX 11 15 1 -3
BITMAP
0E00
3F80
60C0
C060
C060
C060
C060
C060
C060
60C0
71C0
1F00
0600
0400
0700
ENDCHAR
STARTCHAR 01EB
ENCODING 491
SWIDTH 540 0
DWIDTH 9 0
BBX 8 12 1 -3
BITMAP
3C
7E
C3
C3
83
C3
C3
66
3C
18
10
1C
ENDCHAR
STARTCHAR 01EC
ENCODING 492
SWIDTH 720 0
DWIDTH 12 0
BBX 11 17 1 -3
BITMAP
1F00
0000
0E00
3F80
60C0
C060
C060
C060
C060
C060
C060
60C0
71C0
1F00
0600
0400
0700
ENDCHAR
STARTCHAR 01ED
ENCODING 493
SWIDTH 540 0
DWIDTH 9 0
BBX 8 15 1 -3
BITMAP
3C
00
00
3C
7E
C3
C3
83
C3
C3
66
3C
18
10
1C
ENDCHAR
STARTCHAR 01EE
ENCODING 494
SWIDTH 540 0
DWIDTH 9 0
BBX 8 15 1 0
BITMAP
2C
18
00
FE
FE
06
0C
18
38
1E
02
03
03
86
FC
ENDCHAR
STARTCHAR 01EF
ENCODING 495
SWIDTH 420 0
DWIDTH 7 0
BBX 7 16 0 -3
BITMAP
40
38
10
00
FE
FE
0C
08
10
38
0E
06
02
06
8E
FC
ENDCHAR
STARTCHAR 01F0
ENCODING 496
SWIDTH 240 0
DWIDTH 4 0
BBX 5 16 -1 -3
BITMAP
48
38
30
00
30
30
30
30
30
30
30
30
30
30
30
E0
ENDCHAR
STARTCHAR 01F1
ENCODING 497
SWIDTH 1260 0
DWIDTH 21 0
BBX 20 12 1 0
BITMAP
780FF0
FF0FF0
C18060
C080C0
C0C080
C0C180
C0C300
C0C200
C0C600
C18C00
C70800
FE1FF0
ENDCHAR
STARTCHAR 01F2
ENCODING 498
SWIDTH 1140 0
DWIDTH 19 0
BBX 18 12 1 0
BITMAP
780000
FF0000
C18000
C08FC0
C0CFC0
C0C180
C0C100
C0C300
C0C600
C18C00
C70C00
FE0FC0
ENDCHAR
STARTCHAR 01F3
ENCODING 499
SWIDTH 1020 0
DWIDTH 17 0
BBX 16 13 1 0
BITMAP
0200
0200
0200
0200
3E3F
7E3F
C206
C204
820C
C218
C230
6220
3E7F
ENDCHAR
STARTCHAR 01F4
ENCODING 500
SWIDTH 660 0
DWIDTH 11 0
BBX 9 15 1 1
BITMAP
0200
0400
0000
0F00
3F80
6000
C000
C000
C000
C180
C180
C180
6180
7180
1F80
ENDCHAR
STARTCHAR 01F5
ENCODING 501
SWIDTH 540 0
DWIDTH 9 0
BBX 7 15 1 -2
BITMAP
08
10
00
3E
7E
C2
C2
82
C2
C2
7E
3A
02
06
FC
ENDCHAR
STARTCHAR 01F6
ENCODING 502
SWIDTH 1020 0
DWIDTH 17 0
BBX 15 12 1 0
BITMAP
C080
C080
C080
C082
C082
FF82
FF82
C082
C082
C0C2
C0C6
C07C
ENDCHAR
STARTCHAR 01F7
ENCODING 503
SWIDTH 600 0
DWIDTH 10 0
BBX 9 15 1 -3
BITMAP
3C00
FF00
C300
C180
C180
C180
C180
C300
C700
CE00
F800
E000
C000
C000
C000
ENDCHAR
STARTCHAR 01F8
ENCODING 504
SWIDTH 720 0
DWIDTH 12 0
BBX 10 15 1 1
BITMAP
1800
0C00
0400
C0C0
E0C0
E0C0
F0C0
D8C0
CCC0
C4C0
C6C0
C3C0
C1C0
C1C0
C0C0
ENDCHAR
STARTCHAR 01F9
ENCODING 505
SWIDTH 540 0
DWIDTH 9 0
BBX 7 13 1 0
BITMAP
20
30
18
00
7C
FE
C6
C2
C2
C2
C2
C2
C2
ENDCHAR
STARTCHAR 01FA
ENCODING 506
SWIDTH 660 0
DWIDTH 11 0
BBX 11 16 0 0
BITMAP
0200
0C00
0400
0A00
0A00
0E00
0A00
1B00
1B00
1100
3180
2080
7FC0
60C0
4040
C060
ENDCHAR
STARTCHAR 01FB
ENCODING 507
SWIDTH 480 0
DWIDTH 8 0
BBX 6 15 1 0
BITMAP
18
30
10
28
28
10
78
4C
04
04
7C
C4
84
C4
7C
ENDCHAR
STARTCHAR 01FC
ENCODING 508
SWIDTH 900 0
DWIDTH 15 0
BBX 15 16 0 0
BITMAP
0020
0020
0040
0000
01FE
03FE
02C0
06C0
0CC0
08FC
18FC
10C0
3FC0
60C0
60C0
C0FE
ENDCHAR
STARTCHAR 01FD
ENCODING 509
SWIDTH 840 0
DWIDTH 14 0
BBX 12 13 1 0
BITMAP
0100
0300
0600
0000
79E0
4F70
0610
0610
7FF0
C600
8600
C710
7DF0
ENDCHAR
STARTCHAR 01FE
ENCODING 510
SWIDTH 720 0
DWIDTH 12 0
BBX 11 16 1 -1
BITMAP
0200
0200
0400
0000
0E60
3FC0
60C0
C160
C360
C660
CC60
C860
D860
70C0
71C0
5F00
ENDCHAR
STARTCHAR 01FF
ENCODING 511
SWIDTH 540 0
DWIDTH 9 0
BBX 8 12 1 0
BITMAP
08
10
00
3F
7E
C7
CF
9B
D3
E3
66
FC
ENDCHAR
STARTCHAR 0200
ENCODING 512
SWIDTH 660 0
DWIDTH 11 0
BBX 11 15 0 1
BITMAP
3600
1200
0000
0400
0E00
0A00
1B00
1B00
1100
3180
2080
7FC0
60C0
4040
C060
ENDCHAR
STARTCHAR 0201
ENCODING 513
SWIDTH 480 0
DWIDTH 8 0
BBX 6 13 1 0
BITMAP
90
D8
68
00
78
4C
04
04
7C
C4
84
C4
7C
ENDCHAR
STARTCHAR 0202
ENCODING 514
SWIDTH 660 0
DWIDTH 11 0
BBX 11 15 0 0
BITMAP
0E00
1300
0000
0400
0E00
0A00
1B00
1B00
1100
3180
2080
7FC0
60C0
4040
C060
ENDCHAR
STARTCHAR 0203
ENCODING 515
SWIDTH 480 0
DWIDTH 8 0
BBX 6 12 1 0
BITMAP
78
44
00
78
4C
04
04
7C
C4
84
C4
7C
ENDCHAR
STARTCHAR 0204
ENCODING 516
SWIDTH 540 0
DWIDTH 9 0
BBX 8 16 1 0
BITMAP
08
68
24
04
FE
FE
C0
C0
C0
FE
FE
C0
C0
C0
C0
FF
ENDCHAR
STARTCHAR 0205
ENCODING 517
SWIDTH 540 0
DWIDTH 9 0
BBX 7 13 1 0
BITMAP
40
58
2C
00
3C
6E
C2
C2
FE
C0
C0
62
3E
ENDCHAR
STARTCHAR 0206
ENCODING 518
SWIDTH 540 0
DWIDTH 9 0
BBX 8 15 1 0
BITMAP
3C
24
00
FE
FE
C0
C0
C0
FE
FE
C0
C0
C0
C0
FF
ENDCHAR
STARTCHAR 0207
ENCODING 519
SWIDTH 540 0
DWIDTH 9 0
BBX 7 12 1 0
BITMAP
3C
24
00
3C
6E
C2
C2
FE
C0
C0
62
3E
ENDCHAR
STARTCHAR 0208
ENCODING 520
SWIDTH 240 0
DWIDTH 4 0
BBX 5 15 -1 1
BITMAP
90
58
08
30
30
30
30
30
30
30
30
30
30
30
30
ENDCHAR
STARTCHAR 0209
ENCODING 521
SWIDTH 240 0
DWIDTH 4 0
BBX 5 13 -1 0
BITMAP
90
D0
48
00
30
30
30
30
30
30
30
30
30
ENDCHAR
STARTCHAR 020A
ENCODING 522
SWIDTH 240 0
DWIDTH 4 0
BBX 4 15 0 0
BITMAP
70
90
00
60
60
60
60
60
60
60
60
60
60
60
60
ENDCHAR
STARTCHAR 020B
ENCODING 523
SWIDTH 240 0
DWIDTH 4 0
BBX 4 12 0 0
BITMAP
F0
90
00
60
60
60
60
60
60
60
60
60
ENDCHAR
STARTCHAR 020C
ENCODING 524
SWIDTH 720 0
DWIDTH 12 0
BBX 11 15 1 1
BITMAP
3400
1200
0000
0E00
3F80
60C0
C060
C060
C060
C060
C060
C060
60C0
71C0
1F00
ENDCHAR
STARTCHAR 020D
ENCODING 525
SWIDTH 540 0
DWIDTH 9 0
BBX 8 13 1 0
BITMAP
40
48
2C
00
3C
7E
C3
C3
83
C3
C3
66
3C
ENDCHAR
STARTCHAR 020E
ENCODING 526
SWIDTH 720 0
DWIDTH 12 0
BBX 11 15 1 0
BITMAP
0E00
1300
0000
0E00
3F80
60C0
C060
C060
C060
C060
C060
C060
60C0
71C0
1F00
ENDCHAR
STARTCHAR 020F
ENCODING 527
SWIDTH 540 0
DWIDTH 9 0
BBX 8 12 1 0
BITMAP
3C
24
00
3C
7E
C3
C3
83
C3
C3
66
3C
ENDCHAR
STARTCHAR 0210
ENCODING 528
SWIDTH 600 0
DWIDTH 10 0
BBX 9 15 1 1
BITMAP
D800
6C00
2400
7800
FF00
C300
C100
C100
C300
FE00
CC00
C600
C300
C100
C180
ENDCHAR
STARTCHAR 0211
ENCODING 529
SWIDTH 360 0
DWIDTH 6 0
BBX 5 13 1 0
BITMAP
80
90
58
00
78
F8
C0
C0
C0
C0
C0
C0
C0
ENDCHAR
STARTCHAR 0212
ENCODING 530
SWIDTH 600 0
DWIDTH 10 0
BBX 9 15 1 0
BITMAP
3800
2400
0000
7800
FF00
C300
C100
C100
C300
FE00
CC00
C600
C300
C100
C180
ENDCHAR
STARTCHAR 0213
ENCODING 531
SWIDTH 360 0
DWIDTH 6 0
BBX 5 12 1 0
BITMAP
78
48
00
78
F8
C0
C0
C0
C0
C0
C0
C0
ENDCHAR
STARTCHAR 0214
ENCODING 532
SWIDTH 660 0
DWIDTH 11 0
BBX 9 15 1 1
BITMAP
6C00
3400
1000
C180
C180
C180
C180
C180
C180
C180
C180
C180
4180
6300
3E00
ENDCHAR
STARTCHAR 0215
ENCODING 533
SWIDTH 540 0
DWIDTH 9 0
BBX 7 13 1 0
BITMAP
10
58
2C
00
C2
C2
C2
C2
C2
C2
C2
62
7E
ENDCHAR
STARTCHAR 0216
ENCODING 534
SWIDTH 660 0
DWIDTH 11 0
BBX 9 15 1 0
BITMAP
1C00
1200
0000
C180
C180
C180
C180
C180
C180
C180
C180
C180
4180
6300
3E00
ENDCHAR
STARTCHAR 0217
ENCODING 535
SWIDTH 540 0
DWIDTH 9 0
BBX 7 12 1 0
BITMAP
3C
24
00
C2
C2
C2
C2
C2
C2
C2
62
7E
ENDCHAR
STARTCHAR 0218
ENCODING 536
SWIDTH 480 0
DWIDTH 8 0
BBX 7 15 1 -3
BITMAP
3C
FE
C0
C0
C0
70
3C
06
02
02
86
FC
00
10
30
ENDCHAR
STARTCHAR 0219
ENCODING 537
SWIDTH 420 0
DWIDTH 7 0
BBX 6 12 1 -3
BITMAP
78
C8
80
C0
70
18
0C
0C
F8
00
20
60
ENDCHAR
STARTCHAR 021A
ENCODING 538
SWIDTH 540 0
DWIDTH 9 0
BBX 9 15 0 -3
BITMAP
FF80
FF80
0C00
0C00
0C00
0C00
0C00
0C00
0C00
0C00
0C00
0C00
0000
0C00
1800
ENDCHAR
STARTCHAR 021B
ENCODING 539
SWIDTH 360 0
DWIDTH 6 0
BBX 5 14 1 -3
BITMAP
C0
C0
F8
F8
C0
C0
C0
C0
C0
C0
78
00
30
60
ENDCHAR
STARTCHAR 021C
ENCODING 540
SWIDTH 480 0
DWIDTH 8 0
BBX 8 15 0 -3
BITMAP
78
7E
02
03
02
06
3C
3E
07
03
03
03
03
1E
F8
ENDCHAR
STARTCHAR 021D
ENCODING 541
SWIDTH 420 0
DWIDTH 7 0
BBX 7 12 0 -3
BITMAP
F8
DC
04
04
0C
30
0C
04
06
0C
3C
F0
ENDCHAR
STARTCHAR 021E
ENCODING 542
SWIDTH 660 0
DWIDTH 11 0
BBX 9 15 1 0
BITMAP
1600
0C00
0000
C080
C080
C080
C080
C080
FF80
FF80
C080
C080
C080
C080
C080
ENDCHAR
STARTCHAR 021F
ENCODING 543
SWIDTH 540 0
DWIDTH 9 0
BBX 7 16 1 0
BITMAP
90
60
00
C0
C0
C0
C0
FC
FE
C6
C2
C2
C2
C2
C2
C2
ENDCHAR
STARTCHAR 0220
ENCODING 544
SWIDTH 660 0
DWIDTH 11 0
BBX 9 15 1 -3
BITMAP
3E00
FF00
C180
C180
C180
C180
C180
C180
C180
C180
C180
C180
0180
0180
0180
ENDCHAR
STARTCHAR 0221
ENCODING 545
SWIDTH 720 0
DWIDTH 12 0
BBX 11 16 1 -3
BITMAP
0200
0200
0200
0200
3E00
7E00
C200
C200
8200
C200
C200
62C0
3FE0
0220
0720
0DC0
ENDCHAR
STARTCHAR 0222
ENCODING 546
SWIDTH 660 0
DWIDTH 11 0
BBX 9 12 1 0
BITMAP
4100
4100
4180
4180
6300
3E00
7380
C180
C080
C180
E380
3F00
ENDCHAR
STARTCHAR 0223
ENCODING 547
SWIDTH 540 0
DWIDTH 9 0
BBX 8 13 1 0
BITMAP
42
42
C2
C2
66
3C
66
C3
C3
C3
C3
66
3C
ENDCHAR
STARTCHAR 0224
ENCODING 548
SWIDTH 540 0
DWIDTH 9 0
BBX 8 15 1 -3
BITMAP
FF
FF
06
0C
0C
18
30
20
60
C0
C0
FF
03
03
06
ENDCHAR
STARTCHAR 0225
ENCODING 549
SWIDTH 420 0
DWIDTH 7 0
BBX 6 12 1 -3
BITMAP
FC
FC
18
10
30
60
C0
C0
FC
04
04
1C
ENDCHAR
STARTCHAR 0226
ENCODING 550
SWIDTH 660 0
DWIDTH 11 0
BBX 11 15 0 0
BITMAP
0400
0400
0000
0400
0E00
0A00
1B00
1B00
1100
3180
2080
7FC0
60C0
4040
C060
ENDCHAR
STARTCHAR 0227
ENCODING 551
SWIDTH 480 0
DWIDTH 8 0
BBX 6 12 1 0
BITMAP
30
10
00
78
4C
04
04
7C
C4
84
C4
7C
ENDCHAR
STARTCHAR 0228
ENCODING 552
SWIDTH 540 0
DWIDTH 9 0
BBX 8 15 1 -3
BITMAP
FE
FE
C0
C0
C0
FE
FE
C0
C0
C0
C0
FF
08
08
38
ENDCHAR
STARTCHAR 0229
ENCODING 553
SWIDTH 540 0
DWIDTH 9 0
BBX 7 12 1 -3
BITMAP
3C
6E
C2
C2
FE
C0
C0
62
3E
10
08
38
ENDCHAR
STARTCHAR 022A
ENCODING 554
SWIDTH 720 0
DWIDTH 12 0
BBX 11 16 1 0
BITMAP
1F00
0000
1B00
1000
0E00
3F80
60C0
C060
C060
C060
C060
C060
C060
60C0
71C0
1F00
ENDCHAR
STARTCHAR 022B
ENCODING 555
SWIDTH 540 0
DWIDTH 9 0
BBX 8 13 1 0
BITMAP
3C
24
64
00
3C
7E
C3
C3
83
C3
C3
66
3C
ENDCHAR
STARTCHAR 022C
ENCODING 556
SWIDTH 720 0
DWIDTH 12 0
BBX 11 16 1 0
BITMAP
1F00
0000
1F00
0000
0E00
3F80
60C0
C060
C060
C060
C060
C060
C060
60C0
71C0
1F00
ENDCHAR
STARTCHAR 022D
ENCODING 557
SWIDTH 540 0
DWIDTH 9 0
BBX 8 13 1 0
BITMAP
3C
00
3C
00
3C
7E
C3
C3
83
C3
C3
66
3C
ENDCHAR
STARTCHAR 022E
ENCODING 558
SWIDTH 720 0
DWIDTH 12 0
BBX 11 15 1 0
BITMAP
0400
0400
0000
0E00
3F80
60C0
C060
C060
C060
C060
C060
C060
60C0
71C0
1F00
ENDCHAR
STARTCHAR 022F
ENCODING 559
SWIDTH 540 0
DWIDTH 9 0
BBX 8 12 1 0
BITMAP
18
18
00
3C
7E
C3
C3
83
C3
C3
66
3C
ENDCHAR
STARTCHAR 0230
ENCODING 560
SWIDTH 720 0
DWIDTH 12 0
BBX 11 16 1 0
BITMAP
1F00
0000
0400
0400
0E00
3F80
60C0
C060
C060
C060
C060
C060
C060
60C0
71C0
1F00
ENDCHAR
STARTCHAR 0231
ENCODING 561
SWIDTH 540 0
DWIDTH 9 0
BBX 8 13 1 0
BITMAP
3C
10
18
00
3C
7E
C3
C3
83
C3
C3
66
3C
ENDCHAR
STARTCHAR 0232
ENCODING 562
SWIDTH 540 0
DWIDTH 9 0
BBX 10 14 0 0
BITMAP
1E00
0000
C0C0
6080
6180
3300
3300
1E00
0C00
0C00
0C00
0C00
0C00
0C00
ENDCHAR
STARTCHAR 0233
ENCODING 563
SWIDTH 480 0
DWIDTH 8 0
BBX 8 15 0 -3
BITMAP
3E
00
00
C3
43
62
62
26
36
34
1C
18
08
10
F0
ENDCHAR
STARTCHAR 0234
ENCODING 564
SWIDTH 360 0
DWIDTH 6 0
BBX 7 16 0 -3
BITMAP
20
20
20
20
20
20
20
20
20
20
20
2C
36
22
76
9C
ENDCHAR
STARTCHAR 0235
ENCODING 565
SWIDTH 660 0
DWIDTH 11 0
BBX 11 12 1 -3
BITMAP
7C00
FE00
C600
C200
C200
C200
C200
C2C0
C360
0220
0720
09C0
ENDCHAR
STARTCHAR 0236
ENCODING 566
SWIDTH 360 0
DWIDTH 6 0
BBX 7 14 0 -3
BITMAP
20
20
3C
3C
20
20
20
20
20
2C
36
22
76
9C
ENDCHAR
STARTCHAR 0237
ENCODING 567
SWIDTH 240 0
DWIDTH 4 0
BBX 4 12 -1 -3
BITMAP
30
30
30
30
30
30
30
30
30
30
30
E0
ENDCHAR
STARTCHAR 0238
ENCODING 568
SWIDTH 900 0
DWIDTH 15 0
BBX 14 13 1 0
BITMAP
0200
0200
0200
0200
3EE0
7FF8
C218
C208
820C
C20C
C208
6218
3FF0
ENDCHAR
STARTCHAR 0239
ENCODING 569
SWIDTH 900 0
DWIDTH 15 0
BBX 14 12 1 -3
BITMAP
3FE0
7FF8
C218
C208
820C
C20C
C208
6718
7FF0
0200
0200
0200
ENDCHAR
STARTCHAR 023A
ENCODING 570
SWIDTH 660 0
DWIDTH 11 0
BBX 11 15 0 -2
BITMAP
0080
0480
0F80
0B00
1B00
1B00
1300
3780
2480
7FC0
6CC0
4840
C860
1000
1000
ENDCHAR
STARTCHAR 023B
ENCODING 571
SWIDTH 600 0
DWIDTH 10 0
BBX 9 15 1 -2
BITMAP
0180
0F00
3F80
6200
C200
C600
C400
CC00
C800
C800
7000
7080
3F80
2000
2000
ENDCHAR
STARTCHAR 023C
ENCODING 572
SWIDTH 420 0
DWIDTH 7 0
BBX 6 11 1 -1
BITMAP
04
3C
7C
C8
C8
90
D0
D0
60
3C
20
ENDCHAR
STARTCHAR 023D
ENCODING 573
SWIDTH 480 0
DWIDTH 8 0
BBX 9 12 0 0
BITMAP
2000
2000
2000
2000
2000
FC00
FC00
2000
2000
2000
2000
3F80
ENDCHAR
STARTCHAR 023E
ENCODING 574
SWIDTH 600 0
DWIDTH 10 0
BBX 10 14 0 -1
BITMAP
0040
FFC0
FF80
0980
0B00
0A00
0E00
0C00
0C00
1C00
3C00
6C00
4C00
4000
ENDCHAR
STARTCHAR 023F
ENCODING 575
SWIDTH 420 0
DWIDTH 7 0
BBX 6 12 1 -3
BITMAP
78
C8
80
C0
70
18
0C
0C
F8
40
60
38
ENDCHAR
STARTCHAR 0240
ENCODING 576
SWIDTH 420 0
DWIDTH 7 0
BBX 7 12 1 -3
BITMAP
FC
FC
18
10
30
60
40
C0
E0
30
18
0E
ENDCHAR
STARTCHAR 0241
ENCODING 577
SWIDTH 420 0
DWIDTH 7 0
BBX 7 12 0 0
BITMAP
7C
FE
02
02
06
0C
18
30
30
30
30
30
ENDCHAR
STARTCHAR 0242
ENCODING 578
SWIDTH 360 0
DWIDTH 6 0
BBX 7 9 0 0
BITMAP
78
EC
06
04
1C
30
20
20
20
ENDCHAR
STARTCHAR 0243
ENCODING 579
SWIDTH 600 0
DWIDTH 10 0
BBX 10 12 0 0
BITMAP
3E00
3F80
2080
20C0
2080
3F00
3F80
20C0
F8C0
20C0
21C0
3F00
ENDCHAR
STARTCHAR 0244
ENCODING 580
SWIDTH 660 0
DWIDTH 11 0
BBX 12 12 0 0
BITMAP
2040
2040
2040
2040
2040
FFF0
2040
2040
2040
30C0
39C0
1F80
ENDCHAR
STARTCHAR 0245
ENCODING 581
SWIDTH 600 0
DWIDTH 10 0
BBX 11 12 0 0
BITMAP
0400
0E00
0E00
1B00
1B00
1100
3180
2180
6080
60C0
40C0
C060
ENDCHAR
STARTCHAR 0246
ENCODING 582
SWIDTH 540 0
DWIDTH 9 0
BBX 8 15 1 -2
BITMAP
01
FF
FF
C2
C6
C4
FE
FE
C8
D8
D0
D0
FF
20
60
ENDCHAR
STARTCHAR 0247
ENCODING 583
SWIDTH 540 0
DWIDTH 9 0
BBX 8 11 1 -1
BITMAP
04
3C
6E
CA
CB
FF
90
D0
60
3E
20
ENDCHAR
STARTCHAR 0248
ENCODING 584
SWIDTH 480 0
DWIDTH 8 0
BBX 8 12 0 0
BITMAP
06
06
06
06
06
1F
1F
06
06
06
CE
FC
ENDCHAR
STARTCHAR 0249
ENCODING 585
SWIDTH 240 0
DWIDTH 4 0
BBX 6 15 -1 -3
BITMAP
18
10
00
10
10
10
10
7C
10
10
10
10
10
30
E0
ENDCHAR
STARTCHAR 024A
ENCODING 586
SWIDTH 780 0
DWIDTH 13 0
BBX 13 15 1 -3
BITMAP
0E00
3F80
60C0
C040
C060
C060
C060
C060
C060
60E0
71E0
1F60
0060
0060
0038
ENDCHAR
STARTCHAR 024B
ENCODING 587
SWIDTH 540 0
DWIDTH 9 0
BBX 9 12 1 -3
BITMAP
3E00
7E00
C200
C200
8200
C200
C200
6600
7E00
0200
0300
0180
ENDCHAR
STARTCHAR 024C
ENCODING 588
SWIDTH 600 0
DWIDTH 10 0
BBX 10 12 0 0
BITMAP
3E00
3F80
2180
20C0
20C0
2180
FF00
2300
2300
2180
20C0
20C0
ENDCHAR
STARTCHAR 024D
ENCODING 589
SWIDTH 360 0
DWIDTH 6 0
BBX 6 9 0 0
BITMAP
3C
7C
60
60
F8
F8
60
60
60
ENDCHAR
STARTCHAR 024E
ENCODING 590
SWIDTH 600 0
DWIDTH 10 0
BBX 10 12 0 0
BITMAP
C0C0
6080
6180
FFC0
1300
1A00
0E00
0C00
0C00
0C00
0C00
0C00
ENDCHAR
STARTCHAR 024F
ENCODING 591
SWIDTH 480 0
DWIDTH 8 0
BBX 8 12 0 -3
BITMAP
41
43
63
62
FF
36
14
1C
0C
08
18
F0
ENDCHAR
STARTCHAR 0292
ENCODING 658
SWIDTH 420 0
DWIDTH 7 0
BBX 7 12 0 -3
BITMAP
FE
FE
0C
08
10
38
0E
06
02
06
8E
FC
ENDCHAR
STARTCHAR 02BC
ENCODING 700
SWIDTH 360 0
DWIDTH 6 0
BBX 2 3 2 9
BITMAP
40
C0
C0
ENDCHAR
STARTCHAR 02C6
ENCODING 710
SWIDTH 360 0
DWIDTH 6 0
BBX 4 2 1 11
BITMAP
60
90
ENDCHAR
STARTCHAR 02C7
ENCODING 711
SWIDTH 360 0
DWIDTH 6 0
BBX 4 3 1 10
BITMAP
90
F0
60
ENDCHAR
STARTCHAR 02C9
ENCODING 713
SWIDTH 360 0
DWIDTH 6 0
BBX 5 1 1 11
BITMAP
F8
ENDCHAR
STARTCHAR 02D8
ENCODING 728
SWIDTH 360 0
DWIDTH 6 0
BBX 4 2 1 10
BITMAP
90
60
ENDCHAR
STARTCHAR 02D9
ENCODING 729
SWIDTH 360 0
DWIDTH 6 0
BBX 2 2 2 10
BITMAP
C0
C0
ENDCHAR
STARTCHAR 02DA
ENCODING 730
SWIDTH 360 0
DWIDTH 6 0
BBX 4 3 1 10
BITMAP
60
90
70
ENDCHAR
STARTCHAR 02DB
ENCODING 731
SWIDTH 360 0
DWIDTH 6 0
BBX 3 3 1 -3
BITMAP
40
C0
E0
ENDCHAR
STARTCHAR 02DC
ENCODING 732
SWIDTH 360 0
DWIDTH 6 0
BBX 5 2 1 10
BITMAP
F8
30
ENDCHAR
STARTCHAR 02DD
ENCODING 733
SWIDTH 360 0
DWIDTH 6 0
BBX 5 3 1 10
BITMAP
48
D8
90
ENDCHAR
STARTCHAR 0311
ENCODING 785
SWIDTH 360 0
DWIDTH 6 0
BBX 4 2 1 10
BITMAP
F0
90
ENDCHAR
STARTCHAR 0384
ENCODING 900
SWIDTH 360 0
DWIDTH 6 0
BBX 2 3 3 10
BITMAP
40
C0
80
ENDCHAR
STARTCHAR 0385
ENCODING 901
SWIDTH 360 0
DWIDTH 6 0
BBX 6 3 0 10
BITMAP
10
D4
A4
ENDCHAR
STARTCHAR 0386
ENCODING 902
SWIDTH 660 0
DWIDTH 11 0
BBX 11 12 0 0
BITMAP
2400
6E00
6A00
5B00
1B00
1100
3180
2080
7FC0
60C0
4040
C060
ENDCHAR
STARTCHAR 0388
ENCODING 904
SWIDTH 600 0
DWIDTH 10 0
BBX 10 12 0 0
BITMAP
FFC0
BFC0
B000
B000
3000
3F80
3F80
3000
3000
3000
3000
3FC0
ENDCHAR
STARTCHAR 0389
ENCODING 905
SWIDTH 720 0
DWIDTH 12 0
BBX 11 12 0 0
BITMAP
D020
9020
9020
9020
1020
1FE0
1FE0
1020
1020
1020
1020
1020
ENDCHAR
STARTCHAR 038A
ENCODING 906
SWIDTH 300 0
DWIDTH 5 0
BBX 4 12 0 0
BITMAP
D0
90
90
90
10
10
10
10
10
10
10
10
ENDCHAR
STARTCHAR 038C
ENCODING 908
SWIDTH 780 0
DWIDTH 13 0
BBX 12 12 0 0
BITMAP
C780
9FE0
B060
B030
2030
6010
6010
6010
2030
3030
1860
0FC0
ENDCHAR
STARTCHAR 038E
ENCODING 910
SWIDTH 720 0
DWIDTH 12 0
BBX 12 12 0 0
BITMAP
F030
9820
9860
8C40
0CC0
0780
0300
0300
0300
0300
0300
0300
ENDCHAR
STARTCHAR 038F
ENCODING 911
SWIDTH 780 0
DWIDTH 13 0
BBX 13 12 0 0
BITMAP
C780
9FE0
B060
B030
2030
2010
2010
2030
3030
1060
1840
7CF8
ENDCHAR
STARTCHAR 0390
ENCODING 912
SWIDTH 240 0
DWIDTH 4 0
BBX 6 13 -1 0
BITMAP
10
D4
A4
00
30
30
30
30
30
30
30
30
18
ENDCHAR
STARTCHAR 0391
ENCODING 913
SWIDTH 660 0
DWIDTH 11 0
BBX 11 12 0 0
BITMAP
0400
0E00
0A00
1B00
1B00
1100
3180
2080
7FC0
60C0
4040
C060
ENDCHAR
STARTCHAR 0392
ENCODING 914
SWIDTH 600 0
DWIDTH 10 0
BBX 9 12 1 0
BITMAP
7C00
FF00
C300
C100
C300
FE00
FF00
C180
C180
C180
C300
FE00
ENDCHAR
STARTCHAR 0393
ENCODING 915
SWIDTH 480 0
DWIDTH 8 0
BBX 7 12 1 0
BITMAP
FE
FE
C0
C0
C0
C0
C0
C0
C0
C0
C0
C0
ENDCHAR
STARTCHAR 0394
ENCODING 916
SWIDTH 600 0
DWIDTH 10 0
BBX 11 12 0 0
BITMAP
0400
0E00
0E00
1B00
1300
3100
3180
2180
60C0
60C0
4040
FFE0
ENDCHAR
STARTCHAR 0395
ENCODING 917
SWIDTH 540 0
DWIDTH 9 0
BBX 8 12 1 0
BITMAP
FE
FE
C0
C0
C0
FE
FE
C0
C0
C0
C0
FF
ENDCHAR
STARTCHAR 0396
ENCODING 918
SWIDTH 540 0
DWIDTH 9 0
BBX 8 12 1 0
BITMAP
FF
FF
06
0C
0C
18
30
20
60
C0
80
FF
ENDCHAR
STARTCHAR 0397
ENCODING 919
SWIDTH 660 0
DWIDTH 11 0
BBX 9 12 1 0
BITMAP
C080
C080
C080
C080
C080
FF80
FF80
C080
C080
C080
C080
C080
ENDCHAR
STARTCHAR 0398
ENCODING 920
SWIDTH 720 0
DWIDTH 12 0
BBX 11 12 1 0
BITMAP
0E00
3F80
60C0
C060
C060
C060
DF60
C060
C060
60C0
71C0
1F00
ENDCHAR
STARTCHAR 0399
ENCODING 921
SWIDTH 240 0
DWIDTH 4 0
BBX 2 12 1 0
BITMAP
C0
C0
C0
C0
C0
C0
C0
C0
C0
C0
C0
C0
ENDCHAR
STARTCHAR 039A
ENCODING 922
SWIDTH 600 0
DWIDTH 10 0
BBX 9 12 1 0
BITMAP
C180
C300
C600
CC00
D800
F000
F800
DC00
C600
C300
C300
C180
ENDCHAR
STARTCHAR 039B
ENCODING 923
SWIDTH 600 0
DWIDTH 10 0
BBX 11 12 0 0
BITMAP
0400
0E00
0E00
1B00
1B00
1100
3180
2180
6080
60C0
40C0
C060
ENDCHAR
STARTCHAR 039C
ENCODING 924
SWIDTH 840 0
DWIDTH 14 0
BBX 12 12 1 0
BITMAP
4030
6030
7070
7070
50F0
D890
C990
CD10
C710
C610
C010
C010
ENDCHAR
STARTCHAR 039D
ENCODING 925
SWIDTH 720 0
DWIDTH 12 0
BBX 10 12 1 0
BITMAP
C0C0
E0C0
E0C0
F0C0
D8C0
CCC0
C4C0
C6C0
C3C0
C1C0
C1C0
C0C0
ENDCHAR
STARTCHAR 039E
ENCODING 926
SWIDTH 540 0
DWIDTH 9 0
BBX 8 12 1 0
BITMAP
FE
FE
00
00
00
7E
7E
00
00
00
00
FF
ENDCHAR
STARTCHAR 039F
ENCODING 927
SWIDTH 720 0
DWIDTH 12 0
BBX 11 12 1 0
BITMAP
0E00
3F80
60C0
C060
C060
C060
C060
C060
C060
60C0
71C0
1F00
ENDCHAR
STARTCHAR 03A0
ENCODING 928
SWIDTH 660 0
DWIDTH 11 0
BBX 9 12 1 0
BITMAP
FF80
FF80
C080
C080
C080
C080
C080
C080
C080
C080
C080
C080
ENDCHAR
STARTCHAR 03A1
ENCODING 929
SWIDTH 600 0
DWIDTH 10 0
BBX 9 12 1 0
BITMAP
7800
FF00
C300
C180
C180
C300
FF00
FC00
C000
C000
C000
C000
ENDCHAR
STARTCHAR 03A3
ENCODING 931
SWIDTH 540 0
DWIDTH 9 0
BBX 8 12 1 0
BITMAP
FF
FF
40
60
30
18
18
30
60
C0
C0
FF
ENDCHAR
STARTCHAR 03A4
ENCODING 932
SWIDTH 540 0
DWIDTH 9 0
BBX 9 12 0 0
BITMAP
FF80
FF80
0C00
0C00
0C00
0C00
0C00
0C00
0C00
0C00
0C00
0C00
ENDCHAR
STARTCHAR 03A5
ENCODING 933
SWIDTH 540 0
DWIDTH 9 0
BBX 10 12 0 0
BITMAP
C0C0
6080
6180
3300
3300
1E00
0C00
0C00
0C00
0C00
0C00
0C00
ENDCHAR
STARTCHAR 03A6
ENCODING 934
SWIDTH 840 0
DWIDTH 14 0
BBX 12 12 1 0
BITMAP
0600
1F80
76E0
4630
C610
C610
C610
C630
6630
3FE0
0F00
0600
ENDCHAR
STARTCHAR 03A7
ENCODING 935
SWIDTH 600 0
DWIDTH 10 0
BBX 9 12 1 0
BITMAP
8180
C300
6300
2600
3C00
1C00
1C00
3400
6600
6300
C100
8180
ENDCHAR
STARTCHAR 03A8
ENCODING 936
SWIDTH 780 0
DWIDTH 13 0
BBX 12 12 1 0
BITMAP
C630
C630
C630
C630
C620
C620
C660
76E0
3F80
0600
0600
0600
ENDCHAR
STARTCHAR 03A9
ENCODING 937
SWIDTH 780 0
DWIDTH 13 0
BBX 11 12 1 0
BITMAP
0E00
3F80
60C0
4060
C060
C060
C060
C060
4040
60C0
3180
F1E0
ENDCHAR
STARTCHAR 03AA
ENCODING 938
SWIDTH 240 0
DWIDTH 4 0
BBX 5 15 0 0
BITMAP
98
D8
00
60
60
60
60
60
60
60
60
60
60
60
60
ENDCHAR
STARTCHAR 03AB
ENCODING 939
SWIDTH 540 0
DWIDTH 9 0
BBX 10 15 0 0
BITMAP
1200
3200
0000
C0C0
6080
6180
3300
3300
1E00
0C00
0C00
0C00
0C00
0C00
0C00
ENDCHAR
STARTCHAR 03AC
ENCODING 940
SWIDTH 600 0
DWIDTH 10 0
BBX 9 13 1 0
BITMAP
0C00
0800
1800
0000
3E00
7E00
C200
C200
8200
C200
C200
6700
3D80
ENDCHAR
STARTCHAR 03AD
ENCODING 941
SWIDTH 480 0
DWIDTH 8 0
BBX 7 13 1 0
BITMAP
08
18
30
00
3C
64
C0
C0
78
C0
80
C2
7E
ENDCHAR
STARTCHAR 03AE
ENCODING 942
SWIDTH 540 0
DWIDTH 9 0
BBX 7 16 1 -3
BITMAP
08
18
10
00
7C
FE
C6
C2
C2
C2
C2
C2
C2
02
02
02
ENDCHAR
STARTCHAR 03AF
ENCODING 943
SWIDTH 240 0
DWIDTH 4 0
BBX 3 13 1 0
BITMAP
60
40
C0
00
C0
C0
C0
C0
C0
C0
C0
C0
60
ENDCHAR
STARTCHAR 03B0
ENCODING 944
SWIDTH 540 0
DWIDTH 9 0
BBX 7 13 1 0
BITMAP
08
5E
52
00
C2
C2
C2
C2
C2
C2
C2
66
7C
ENDCHAR
STARTCHAR 03B1
ENCODING 945
SWIDTH 600 0
DWIDTH 10 0
BBX 9 9 1 0
BITMAP
3E00
7E00
C200
C200
8200
C200
C200
6700
3D80
ENDCHAR
STARTCHAR 03B2
ENCODING 946
SWIDTH 600 0
DWIDTH 10 0
BBX 8 16 1 -3
BITMAP
3C
66
42
C3
C2
DC
DE
C3
C1
C1
C3
C7
FE
C0
C0
C0
ENDCHAR
STARTCHAR 03B3
ENCODING 947
SWIDTH 480 0
DWIDTH 8 0
BBX 8 12 0 -3
BITMAP
C3
43
62
62
26
34
3C
18
18
18
18
18
ENDCHAR
STARTCHAR 03B4
ENCODING 948
SWIDTH 540 0
DWIDTH 9 0
BBX 8 13 1 0
BITMAP
3E
32
60
30
18
7E
C6
C3
83
C3
C3
66
7C
ENDCHAR
STARTCHAR 03B5
ENCODING 949
SWIDTH 480 0
DWIDTH 8 0
BBX 7 9 1 0
BITMAP
3C
64
C0
C0
78
C0
80
C2
7E
ENDCHAR
STARTCHAR 03B6
ENCODING 950
SWIDTH 420 0
DWIDTH 7 0
BBX 7 16 1 -3
BITMAP
FC
0C
18
30
20
60
C0
C0
80
80
C0
F0
3C
06
06
04
ENDCHAR
STARTCHAR 03B7
ENCODING 951
SWIDTH 540 0
DWIDTH 9 0
BBX 7 12 1 -3
BITMAP
7C
FE
C6
C2
C2
C2
C2
C2
C2
02
02
02
ENDCHAR
STARTCHAR 03B8
ENCODING 952
SWIDTH 600 0
DWIDTH 10 0
BBX 8 13 1 0
BITMAP
3C
66
42
C3
C3
C3
FF
C1
C3
C3
C3
66
3C
ENDCHAR
STARTCHAR 03B9
ENCODING 953
SWIDTH 240 0
DWIDTH 4 0
BBX 3 9 1 0
BITMAP
C0
C0
C0
C0
C0
C0
C0
C0
60
ENDCHAR
STARTCHAR 03BA
ENCODING 954
SWIDTH 480 0
DWIDTH 8 0
BBX 7 9 1 0
BITMAP
C6
CC
D8
F0
F0
D8
CC
C6
C2
ENDCHAR
STARTCHAR 03BB
ENCODING 955
SWIDTH 480 0
DWIDTH 8 0
BBX 8 13 0 0
BITMAP
60
30
18
18
08
1C
14
36
26
62
62
43
C3
ENDCHAR
STARTCHAR 03BC
ENCODING 956
SWIDTH 540 0
DWIDTH 9 0
BBX 7 12 1 -3
BITMAP
C2
C2
C2
C2
C2
C2
C2
E2
FE
C0
C0
C0
ENDCHAR
STARTCHAR 03BD
ENCODING 957
SWIDTH 480 0
DWIDTH 8 0
BBX 8 9 0 0
BITMAP
C3
43
62
62
26
34
3C
1C
18
ENDCHAR
STARTCHAR 03BE
ENCODING 958
SWIDTH 420 0
DWIDTH 7 0
BBX 7 16 1 -3
BITMAP
3C
64
40
C0
40
7C
3C
C0
C0
80
C0
F0
3C
06
06
04
ENDCHAR
STARTCHAR 03BF
ENCODING 959
SWIDTH 540 0
DWIDTH 9 0
BBX 8 9 1 0
BITMAP
3C
7E
C3
C3
83
C3
C3
66
3C
ENDCHAR
STARTCHAR 03C0
ENCODING 960
SWIDTH 540 0
DWIDTH 9 0
BBX 7 9 1 0
BITMAP
FE
FE
C2
C2
C2
C2
C2
C2
C2
ENDCHAR
STARTCHAR 03C1
ENCODING 961
SWIDTH 540 0
DWIDTH 9 0
BBX 8 12 1 -3
BITMAP
3C
7E
C3
C3
C3
C3
C3
C6
FC
C0
C0
C0
ENDCHAR
STARTCHAR 03C2
ENCODING 962
SWIDTH 420 0
DWIDTH 7 0
BBX 6 12 1 -3
BITMAP
3C
74
C0
C0
80
C0
C0
60
3C
04
04
0C
ENDCHAR
STARTCHAR 03C3
ENCODING 963
SWIDTH 600 0
DWIDTH 10 0
BBX 9 9 1 0
BITMAP
1F80
7F80
C200
C300
8300
8300
C300
6600
3C00
ENDCHAR
STARTCHAR 03C4
ENCODING 964
SWIDTH 420 0
DWIDTH 7 0
BBX 7 9 0 0
BITMAP
FE
FE
10
10
10
10
10
18
1E
ENDCHAR
STARTCHAR 03C5
ENCODING 965
SWIDTH 540 0
DWIDTH 9 0
BBX 7 9 1 0
BITMAP
C2
C2
C2
C2
C2
C2
C2
66
7C
ENDCHAR
STARTCHAR 03C6
ENCODING 966
SWIDTH 720 0
DWIDTH 12 0
BBX 11 12 1 -3
BITMAP
1F00
75C0
C440
C460
8460
C460
C460
64C0
3F80
0400
0400
0400
ENDCHAR
STARTCHAR 03C7
ENCODING 967
SWIDTH 480 0
DWIDTH 8 0
BBX 7 9 1 0
BITMAP
86
CC
68
38
30
78
4C
C4
86
ENDCHAR
STARTCHAR 03C8
ENCODING 968
SWIDTH 720 0
DWIDTH 12 0
BBX 11 12 1 -3
BITMAP
C460
C460
C460
C460
C460
C460
4440
64C0
3F80
0400
0400
0400
ENDCHAR
STARTCHAR 03C9
ENCODING 969
SWIDTH 780 0
DWIDTH 13 0
BBX 12 9 1 0
BITMAP
6060
4020
C630
C630
C630
C630
C630
CF60
79E0
ENDCHAR
STARTCHAR 03CA
ENCODING 970
SWIDTH 240 0
DWIDTH 4 0
BBX 5 12 0 0
BITMAP
98
90
00
60
60
60
60
60
60
60
60
30
ENDCHAR
STARTCHAR 03CB
ENCODING 971
SWIDTH 540 0
DWIDTH 9 0
BBX 7 12 1 0
BITMAP
6C
24
00
C2
C2
C2
C2
C2
C2
C2
66
7C
ENDCHAR
STARTCHAR 03CC
ENCODING 972
SWIDTH 540 0
DWIDTH 9 0
BBX 8 13 1 0
BITMAP
08
08
10
00
3C
7E
C3
C3
83
C3
C3
66
3C
ENDCHAR
STARTCHAR 03CD
ENCODING 973
SWIDTH 540 0
DWIDTH 9 0
BBX 7 13 1 0
BITMAP
08
18
10
00
C2
C2
C2
C2
C2
C2
C2
66
7C
ENDCHAR
STARTCHAR 03CE
ENCODING 974
SWIDTH 780 0
DWIDTH 13 0
BBX 12 13 1 0
BITMAP
0200
0200
0400
0000
6060
4020
C630
C630
C630
C630
C630
CF60
79E0
ENDCHAR
STARTCHAR 0400
ENCODING 1024
SWIDTH 540 0
DWIDTH 9 0
BBX 8 15 1 1
BITMAP
30
18
08
FE
FE
C0
C0
C0
FE
FE
C0
C0
C0
C0
FF
ENDCHAR
STARTCHAR 0401
ENCODING 1025
SWIDTH 540 0
DWIDTH 9 0
BBX 8 15 1 0
BITMAP
24
64
00
FE
FE
C0
C0
C0
FE
FE
C0
C0
C0
C0
FF
ENDCHAR
STARTCHAR 0402
ENCODING 1026
SWIDTH 720 0
DWIDTH 12 0
BBX 12 12 0 0
BITMAP
FF80
FF80
0800
0800
0800
0FC0
0860
0830
0830
0830
0860
08C0
ENDCHAR
STARTCHAR 0403
ENCODING 1027
SWIDTH 480 0
DWIDTH 8 0
BBX 7 15 1 1
BITMAP
0C
18
10
FE
FE
C0
C0
C0
C0
C0
C0
C0
C0
C0
C0
ENDCHAR
STARTCHAR 0404
ENCODING 1028
SWIDTH 600 0
DWIDTH 10 0
BBX 9 12 1 0
BITMAP
1F00
3F80
6000
C000
C000
FE00
FE00
C000
C000
6000
7080
3F80
ENDCHAR
STARTCHAR 0405
ENCODING 1029
SWIDTH 480 0
DWIDTH 8 0
BBX 7 12 1 0
BITMAP
3C
FE
C0
C0
C0
70
3C
06
02
02
86
FC
ENDCHAR
STARTCHAR 0406
ENCODING 1030
SWIDTH 240 0
DWIDTH 4 0
BBX 2 12 1 0
BITMAP
C0
C0
C0
C0
C0
C0
C0
C0
C0
C0
C0
C0
ENDCHAR
STARTCHAR 0407
ENCODING 1031
SWIDTH 240 0
DWIDTH 4 0
BBX 5 15 0 0
BITMAP
98
D8
00
60
60
60
60
60
60
60
60
60
60
60
60
ENDCHAR
STARTCHAR 0408
ENCODING 1032
SWIDTH 480 0
DWIDTH 8 0
BBX 7 12 0 0
BITMAP
06
06
06
06
06
06
06
06
06
06
4E
FC
ENDCHAR
STARTCHAR 0409
ENCODING 1033
SWIDTH 1020 0
DWIDTH 17 0
BBX 17 12 0 0
BITMAP
0FC000
0FC000
084000
084000
084000
087E00
184300
184180
184180
304180
704700
E07E00
ENDCHAR
STARTCHAR 040A
ENCODING 1034
SWIDTH 1020 0
DWIDTH 17 0
BBX 15 12 1 0
BITMAP
C180
C180
C180
C180
C180
FFFC
C186
C182
C182
C182
C18E
C1FC
ENDCHAR
STARTCHAR 040B
ENCODING 1035
SWIDTH 720 0
DWIDTH 12 0
BBX 11 12 0 0
BITMAP
FF80
FF80
0800
0800
0800
0FC0
0860
0820
0820
0820
0820
0820
ENDCHAR
STARTCHAR 040C
ENCODING 1036
SWIDTH 600 0
DWIDTH 10 0
BBX 9 15 1 1
BITMAP
0400
0800
0000
C180
C300
C600
CC00
D800
F000
F800
DC00
C600
C300
C300
C180
ENDCHAR
STARTCHAR 040D
ENCODING 1037
SWIDTH 720 0
DWIDTH 12 0
BBX 10 15 1 1
BITMAP
1800
0C00
0400
C0C0
C1C0
C1C0
C3C0
C6C0
CCC0
C8C0
D8C0
F0C0
E0C0
E0C0
C0C0
ENDCHAR
STARTCHAR 040E
ENCODING 1038
SWIDTH 540 0
DWIDTH 9 0
BBX 10 15 0 0
BITMAP
1300
1E00
0000
C0C0
6080
6180
2180
3100
1300
1A00
0E00
0E00
0C00
1C00
7800
ENDCHAR
STARTCHAR 040F
ENCODING 1039
SWIDTH 660 0
DWIDTH 11 0
BBX 9 15 1 -3
BITMAP
C080
C080
C080
C080
C080
C080
C080
C080
C080
C080
C080
FF80
0C00
0C00
0C00
ENDCHAR
STARTCHAR 0410
ENCODING 1040
SWIDTH 660 0
DWIDTH 11 0
BBX 11 12 0 0
BITMAP
0400
0E00
0A00
1B00
1B00
1100
3180
2080
7FC0
60C0
4040
C060
ENDCHAR
STARTCHAR 0411
ENCODING 1041
SWIDTH 600 0
DWIDTH 10 0
BBX 9 12 1 0
BITMAP
FF00
FF00
C000
C000
C000
FE00
C300
C180
C180
C180
C700
FE00
ENDCHAR
STARTCHAR 0412
ENCODING 1042
SWIDTH 600 0
DWIDTH 10 0
BBX 9 12 1 0
BITMAP
7C00
FF00
C300
C100
C300
FE00
FF00
C180
C180
C180
C300
FE00
ENDCHAR
STARTCHAR 0413
ENCODING 1043
SWIDTH 480 0
DWIDTH 8 0
BBX 7 12 1 0
BITMAP
FE
FE
C0
C0
C0
C0
C0
C0
C0
C0
C0
C0
ENDCHAR
STARTCHAR 0414
ENCODING 1044
SWIDTH 720 0
DWIDTH 12 0
BBX 12 15 0 -3
BITMAP
0FC0
0FC0
0840
0840
0840
0840
1840
1840
1040
3040
2040
FFF0
C030
C030
C030
ENDCHAR
STARTCHAR 0415
ENCODING 1045
SWIDTH 540 0
DWIDTH 9 0
BBX 8 12 1 0
BITMAP
FE
FE
C0
C0
C0
FE
FE
C0
C0
C0
C0
FF
ENDCHAR
STARTCHAR 0416
ENCODING 1046
SWIDTH 900 0
DWIDTH 15 0
BBX 13 12 1 0
BITMAP
C208
C218
6230
3260
1AC0
0F80
0FC0
1AE0
3260
6230
C218
C208
ENDCHAR
STARTCHAR 0417
ENCODING 1047
SWIDTH 540 0
DWIDTH 9 0
BBX 8 12 1 0
BITMAP
78
FE
06
06
06
7C
7E
02
03
03
86
FC
ENDCHAR
STARTCHAR 0418
ENCODING 1048
SWIDTH 720 0
DWIDTH 12 0
BBX 10 12 1 0
BITMAP
C0C0
C1C0
C1C0
C3C0
C6C0
CCC0
C8C0
D8C0
F0C0
E0C0
E0C0
C0C0
ENDCHAR
STARTCHAR 0419
ENCODING 1049
SWIDTH 720 0
DWIDTH 12 0
BBX 10 15 1 0
BITMAP
1300
1E00
0000
C0C0
C1C0
C1C0
C3C0
C6C0
CCC0
C8C0
D8C0
F0C0
E0C0
E0C0
C0C0
ENDCHAR
STARTCHAR 041A
ENCODING 1050
SWIDTH 600 0
DWIDTH 10 0
BBX 9 12 1 0
BITMAP
C180
C300
C600
CC00
D800
F000
F800
DC00
C600
C300
C300
C180
ENDCHAR
STARTCHAR 041B
ENCODING 1051
SWIDTH 660 0
DWIDTH 11 0
BBX 10 12 0 0
BITMAP
0FC0
0FC0
0840
0840
0840
0840
1840
1840
1840
3040
7040
E040
ENDCHAR
STARTCHAR 041C
ENCODING 1052
SWIDTH 840 0
DWIDTH 14 0
BBX 12 12 1 0
BITMAP
4030
6030
7070
7070
50F0
D890
C990
CD10
C710
C610
C010
C010
ENDCHAR
STARTCHAR 041D
ENCODING 1053
SWIDTH 660 0
DWIDTH 11 0
BBX 9 12 1 0
BITMAP
C080
C080
C080
C080
C080
FF80
FF80
C080
C080
C080
C080
C080
ENDCHAR
STARTCHAR 041E
ENCODING 1054
SWIDTH 720 0
DWIDTH 12 0
BBX 11 12 1 0
BITMAP
0E00
3F80
60C0
C060
C060
C060
C060
C060
C060
60C0
71C0
1F00
ENDCHAR
STARTCHAR 041F
ENCODING 1055
SWIDTH 660 0
DWIDTH 11 0
BBX 9 12 1 0
BITMAP
FF80
FF80
C080
C080
C080
C080
C080
C080
C080
C080
C080
C080
ENDCHAR
STARTCHAR 0420
ENCODING 1056
SWIDTH 600 0
DWIDTH 10 0
BBX 9 12 1 0
BITMAP
7800
FF00
C300
C180
C180
C300
FF00
FC00
C000
C000
C000
C000
ENDCHAR
STARTCHAR 0421
ENCODING 1057
SWIDTH 600 0
DWIDTH 10 0
BBX 9 12 1 0
BITMAP
0F00
3F80
6000
C000
C000
C000
C000
C000
C000
6000
7080
3F80
ENDCHAR
STARTCHAR 0422
ENCODING 1058
SWIDTH 540 0
DWIDTH 9 0
BBX 9 12 0 0
BITMAP
FF80
FF80
0C00
0C00
0C00
0C00
0C00
0C00
0C00
0C00
0C00
0C00
ENDCHAR
STARTCHAR 0423
ENCODING 1059
SWIDTH 540 0
DWIDTH 9 0
BBX 10 12 0 0
BITMAP
C0C0
6080
6180
2180
3100
1300
1A00
0E00
0E00
0C00
1C00
7800
ENDCHAR
STARTCHAR 0424
ENCODING 1060
SWIDTH 840 0
DWIDTH 14 0
BBX 12 12 1 0
BITMAP
0600
1F80
76E0
4630
C610
C610
C610
C630
6630
3FE0
0F00
0600
ENDCHAR
STARTCHAR 0425
ENCODING 1061
SWIDTH 600 0
DWIDTH 10 0
BBX 9 12 1 0
BITMAP
8180
C300
6300
2600
3C00
1C00
1C00
3400
6600
6300
C100
8180
ENDCHAR
STARTCHAR 0426
ENCODING 1062
SWIDTH 660 0
DWIDTH 11 0
BBX 11 15 1 -3
BITMAP
C080
C080
C080
C080
C080
C080
C080
C080
C080
C080
C080
FFE0
0060
0060
0060
ENDCHAR
STARTCHAR 0427
ENCODING 1063
SWIDTH 600 0
DWIDTH 10 0
BBX 8 12 1 0
BITMAP
C3
C3
C3
C3
C3
C3
77
3F
03
03
03
03
ENDCHAR
STARTCHAR 0428
ENCODING 1064
SWIDTH 960 0
DWIDTH 16 0
BBX 14 12 1 0
BITMAP
C30C
C30C
C30C
C30C
C30C
C30C
C30C
C30C
C30C
C30C
C30C
FFFC
ENDCHAR
STARTCHAR 0429
ENCODING 1065
SWIDTH 960 0
DWIDTH 16 0
BBX 15 15 1 -3
BITMAP
C30C
C30C
C30C
C30C
C30C
C30C
C30C
C30C
C30C
C30C
C30C
FFFE
0002
0002
0002
ENDCHAR
STARTCHAR 042A
ENCODING 1066
SWIDTH 720 0
DWIDTH 12 0
BBX 11 12 0 0
BITMAP
F800
F800
1800
1800
1800
1FC0
1860
1820
1820
1820
18E0
1FC0
ENDCHAR
STARTCHAR 042B
ENCODING 1067
SWIDTH 840 0
DWIDTH 14 0
BBX 12 12 1 0
BITMAP
C030
C030
C030
C030
C030
FE30
C330
C130
C130
C130
C730
FE30
ENDCHAR
STARTCHAR 042C
ENCODING 1068
SWIDTH 600 0
DWIDTH 10 0
BBX 9 12 1 0
BITMAP
C000
C000
C000
C000
C000
FE00
C300
C180
C180
C180
C700
FE00
ENDCHAR
STARTCHAR 042D
ENCODING 1069
SWIDTH 600 0
DWIDTH 10 0
BBX 9 12 0 0
BITMAP
7C00
7F00
0300
0180
0180
1F80
1F80
0080
0180
0180
4700
FE00
ENDCHAR
STARTCHAR 042E
ENCODING 1070
SWIDTH 1020 0
DWIDTH 17 0
BBX 15 12 1 0
BITMAP
C0F0
C3F8
C30C
C606
C606
FC06
FC06
C406
C606
C604
C31C
C1F8
ENDCHAR
STARTCHAR 042F
ENCODING 1071
SWIDTH 600 0
DWIDTH 10 0
BBX 8 12 1 0
BITMAP
1F
7F
C1
C1
C1
C1
7F
31
21
61
C1
C1
ENDCHAR
STARTCHAR 0430
ENCODING 1072
SWIDTH 480 0
DWIDTH 8 0
BBX 6 9 1 0
BITMAP
78
4C
04
04
7C
C4
84
C4
7C
ENDCHAR
STARTCHAR 0431
ENCODING 1073
SWIDTH 540 0
DWIDTH 9 0
BBX 8 13 1 0
BITMAP
0E
3E
60
40
C8
FE
C3
C3
C3
C3
C3
66
3C
ENDCHAR
STARTCHAR 0432
ENCODING 1074
SWIDTH 540 0
DWIDTH 9 0
BBX 7 9 1 0
BITMAP
FC
C6
C2
C6
FC
C2
C2
C6
FC
ENDCHAR
STARTCHAR 0433
ENCODING 1075
SWIDTH 360 0
DWIDTH 6 0
BBX 6 9 1 0
BITMAP
FC
FC
C0
C0
C0
C0
C0
C0
C0
ENDCHAR
STARTCHAR 0434
ENCODING 1076
SWIDTH 600 0
DWIDTH 10 0
BBX 10 11 0 -2
BITMAP
1F80
1F80
1180
1180
1180
3180
2180
6180
FFC0
C0C0
C0C0
ENDCHAR
STARTCHAR 0435
ENCODING 1077
SWIDTH 540 0
DWIDTH 9 0
BBX 7 9 1 0
BITMAP
3C
6E
C2
C2
FE
C0
C0
62
3E
ENDCHAR
STARTCHAR 0436
ENCODING 1078
SWIDTH 720 0
DWIDTH 12 0
BBX 11 9 1 0
BITMAP
C460
44C0
2480
3500
1F00
3580
64C0
C440
8460
ENDCHAR
STARTCHAR 0437
ENCODING 1079
SWIDTH 480 0
DWIDTH 8 0
BBX 6 9 1 0
BITMAP
F8
DC
0C
0C
78
0C
04
0C
F8
ENDCHAR
STARTCHAR 0438
ENCODING 1080
SWIDTH 540 0
DWIDTH 9 0
BBX 8 9 1 0
BITMAP
C3
C7
C7
CB
DB
F3
E3
E3
C3
ENDCHAR
STARTCHAR 0439
ENCODING 1081
SWIDTH 540 0
DWIDTH 9 0
BBX 8 12 1 0
BITMAP
24
3C
00
C3
C7
C7
CB
DB
F3
E3
E3
C3
ENDCHAR
STARTCHAR 043A
ENCODING 1082
SWIDTH 480 0
DWIDTH 8 0
BBX 7 9 1 0
BITMAP
C6
CC
D8
F0
F0
D8
CC
C6
C2
ENDCHAR
STARTCHAR 043B
ENCODING 1083
SWIDTH 540 0
DWIDTH 9 0
BBX 9 9 0 0
BITMAP
1F80
1F80
1180
1180
1180
3180
3180
6180
C180
ENDCHAR
STARTCHAR 043C
ENCODING 1084
SWIDTH 720 0
DWIDTH 12 0
BBX 10 9 1 0
BITMAP
4080
61C0
61C0
F3C0
D2C0
DEC0
CCC0
CCC0
C040
ENDCHAR
STARTCHAR 043D
ENCODING 1085
SWIDTH 540 0
DWIDTH 9 0
BBX 7 9 1 0
BITMAP
C2
C2
C2
C2
FE
C2
C2
C2
C2
ENDCHAR
STARTCHAR 043E
ENCODING 1086
SWIDTH 540 0
DWIDTH 9 0
BBX 8 9 1 0
BITMAP
3C
7E
C3
C3
83
C3
C3
66
3C
ENDCHAR
STARTCHAR 043F
ENCODING 1087
SWIDTH 540 0
DWIDTH 9 0
BBX 7 9 1 0
BITMAP
FE
FE
C2
C2
C2
C2
C2
C2
C2
ENDCHAR
STARTCHAR 0440
ENCODING 1088
SWIDTH 540 0
DWIDTH 9 0
BBX 8 12 1 -3
BITMAP
7C
FE
C3
C3
C3
C3
C3
C6
FC
C0
C0
C0
ENDCHAR
STARTCHAR 0441
ENCODING 1089
SWIDTH 420 0
DWIDTH 7 0
BBX 6 9 1 0
BITMAP
3C
7C
C0
C0
80
C0
C0
60
3C
ENDCHAR
STARTCHAR 0442
ENCODING 1090
SWIDTH 420 0
DWIDTH 7 0
BBX 7 9 0 0
BITMAP
FE
FE
18
18
18
18
18
18
18
ENDCHAR
STARTCHAR 0443
ENCODING 1091
SWIDTH 480 0
DWIDTH 8 0
BBX 8 12 0 -3
BITMAP
C3
43
62
62
26
36
34
1C
18
08
10
F0
ENDCHAR
STARTCHAR 0444
ENCODING 1092
SWIDTH 720 0
DWIDTH 12 0
BBX 11 16 1 -3
BITMAP
0400
0400
0400
0400
1F00
7FC0
C440
C460
8460
C460
C460
65C0
3F80
0400
0400
0400
ENDCHAR
STARTCHAR 0445
ENCODING 1093
SWIDTH 480 0
DWIDTH 8 0
BBX 7 9 1 0
BITMAP
86
CC
68
38
30
78
4C
C4
86
ENDCHAR
STARTCHAR 0446
ENCODING 1094
SWIDTH 540 0
DWIDTH 9 0
BBX 8 11 1 -2
BITMAP
C2
C2
C2
C2
C2
C2
C2
C2
FF
01
01
ENDCHAR
STARTCHAR 0447
ENCODING 1095
SWIDTH 480 0
DWIDTH 8 0
BBX 7 9 1 0
BITMAP
86
86
86
86
C6
7E
06
06
06
ENDCHAR
STARTCHAR 0448
ENCODING 1096
SWIDTH 780 0
DWIDTH 13 0
BBX 11 9 1 0
BITMAP
C620
C620
C620
C620
C620
C620
C620
C620
FFE0
ENDCHAR
STARTCHAR 0449
ENCODING 1097
SWIDTH 780 0
DWIDTH 13 0
BBX 13 11 1 -2
BITMAP
C620
C620
C620
C620
C620
C620
C620
C620
FFF8
0018
0018
ENDCHAR
STARTCHAR 044A
ENCODING 1098
SWIDTH 540 0
DWIDTH 9 0
BBX 9 9 0 0
BITMAP
F000
F000
3000
3600
3F80
3080
3080
3180
3F00
ENDCHAR
STARTCHAR 044B
ENCODING 1099
SWIDTH 720 0
DWIDTH 12 0
BBX 10 9 1 0
BITMAP
C040
C040
C040
D040
FE40
C640
C240
C640
FC40
ENDCHAR
STARTCHAR 044C
ENCODING 1100
SWIDTH 480 0
DWIDTH 8 0
BBX 7 9 1 0
BITMAP
C0
C0
C0
D8
FE
C2
C2
C6
FC
ENDCHAR
STARTCHAR 044D
ENCODING 1101
SWIDTH 480 0
DWIDTH 8 0
BBX 6 9 1 0
BITMAP
F0
F8
0C
04
7C
04
04
0C
F8
ENDCHAR
STARTCHAR 044E
ENCODING 1102
SWIDTH 780 0
DWIDTH 13 0
BBX 12 9 1 0
BITMAP
C380
C7E0
CC20
C830
F830
C830
CC20
C660
C7C0
ENDCHAR
STARTCHAR 044F
ENCODING 1103
SWIDTH 540 0
DWIDTH 9 0
BBX 7 9 1 0
BITMAP
3E
E6
C6
C6
FE
7E
46
C6
86
ENDCHAR
STARTCHAR 0450
ENCODING 1104
SWIDTH 540 0
DWIDTH 9 0
BBX 7 13 1 0
BITMAP
20
30
18
00
3C
6E
C2
C2
FE
C0
C0
62
3E
ENDCHAR
STARTCHAR 0451
ENCODING 1105
SWIDTH 540 0
DWIDTH 9 0
BBX 7 12 1 0
BITMAP
6C
24
00
3C
6E
C2
C2
FE
C0
C0
62
3E
ENDCHAR
STARTCHAR 0452
ENCODING 1106
SWIDTH 540 0
DWIDTH 9 0
BBX 8 16 0 -3
BITMAP
60
60
FC
60
7E
7F
63
61
61
61
61
61
61
01
03
07
ENDCHAR
STARTCHAR 0453
ENCODING 1107
SWIDTH 360 0
DWIDTH 6 0
BBX 6 13 1 0
BITMAP
08
18
30
00
FC
FC
C0
C0
C0
C0
C0
C0
C0
ENDCHAR
STARTCHAR 0454
ENCODING 1108
SWIDTH 480 0
DWIDTH 8 0
BBX 7 9 1 0
BITMAP
3C
74
C0
C0
F8
80
C0
62
3E
ENDCHAR
STARTCHAR 0455
ENCODING 1109
SWIDTH 420 0
DWIDTH 7 0
BBX 6 9 1 0
BITMAP
78
C8
80
C0
70
18
0C
0C
F8
ENDCHAR
STARTCHAR 0456
ENCODING 1110
SWIDTH 240 0
DWIDTH 4 0
BBX 2 12 1 0
BITMAP
C0
C0
00
C0
C0
C0
C0
C0
C0
C0
C0
C0
ENDCHAR
STARTCHAR 0457
ENCODING 1111
SWIDTH 240 0
DWIDTH 4 0
BBX 5 12 0 0
BITMAP
98
90
00
60
60
60
60
60
60
60
60
60
ENDCHAR
STARTCHAR 0458
ENCODING 1112
SWIDTH 240 0
DWIDTH 4 0
BBX 4 15 -1 -3
BITMAP
30
30
00
30
30
30
30
30
30
30
30
30
30
30
E0
ENDCHAR
STARTCHAR 0459
ENCODING 1113
SWIDTH 840 0
DWIDTH 14 0
BBX 14 9 0 0
BITMAP
1F80
1F80
1180
11A0
11F8
318C
318C
618C
C1F8
ENDCHAR
STARTCHAR 045A
ENCODING 1114
SWIDTH 840 0
DWIDTH 14 0
BBX 13 9 1 0
BITMAP
C200
C200
C200
C2C0
FFF0
C218
C218
C210
C3F0
ENDCHAR
STARTCHAR 045B
ENCODING 1115
SWIDTH 540 0
DWIDTH 9 0
BBX 8 13 0 0
BITMAP
60
60
FC
60
7C
7F
63
61
61
61
61
61
61
ENDCHAR
STARTCHAR 045C
ENCODING 1116
SWIDTH 480 0
DWIDTH 8 0
BBX 7 13 1 0
BITMAP
08
08
10
00
C6
CC
D8
F0
F0
D8
CC
C6
C2
ENDCHAR
STARTCHAR 045D
ENCODING 1117
SWIDTH 540 0
DWIDTH 9 0
BBX 8 12 1 1
BITMAP
30
08
00
C3
C7
C7
CB
DB
F3
E3
E3
C3
ENDCHAR
STARTCHAR 045E
ENCODING 1118
SWIDTH 480 0
DWIDTH 8 0
BBX 8 15 0 -3
BITMAP
36
1C
00
C3
43
62
62
26
36
34
1C
18
08
10
F0
ENDCHAR
STARTCHAR 045F
ENCODING 1119
SWIDTH 540 0
DWIDTH 9 0
BBX 7 11 1 -2
BITMAP
C2
C2
C2
C2
C2
C2
C2
C2
FE
18
18
ENDCHAR
STARTCHAR 0462
ENCODING 1122
SWIDTH 720 0
DWIDTH 12 0
BBX 11 12 0 0
BITMAP
1800
FF00
1800
1800
1800
1FC0
1860
1820
1820
1820
18E0
1FC0
ENDCHAR
STARTCHAR 0463
ENCODING 1123
SWIDTH 540 0
DWIDTH 9 0
BBX 9 13 0 0
BITMAP
3000
3000
3000
3000
FE00
FE00
3000
3600
3F80
3080
3080
3180
3F00
ENDCHAR
STARTCHAR 0472
ENCODING 1138
SWIDTH 720 0
DWIDTH 12 0
BBX 11 12 1 0
BITMAP
0E00
3F80
60C0
C060
C060
F860
E7E0
C160
C060
60C0
71C0
1F00
ENDCHAR
STARTCHAR 0473
ENCODING 1139
SWIDTH 540 0
DWIDTH 9 0
BBX 8 9 1 0
BITMAP
3C
7E
C3
C3
FF
C7
C3
66
3C
ENDCHAR
STARTCHAR 0474
ENCODING 1140
SWIDTH 720 0
DWIDTH 12 0
BBX 12 12 0 0
BITMAP
C030
4070
60C0
60C0
2080
3180
3100
1300
1B00
0A00
0E00
0C00
ENDCHAR
STARTCHAR 0475
ENCODING 1141
SWIDTH 540 0
DWIDTH 9 0
BBX 9 9 0 0
BITMAP
C180
4300
6200
6600
2600
3400
3C00
1800
1800
ENDCHAR
STARTCHAR 048A
ENCODING 1162
SWIDTH 720 0
DWIDTH 12 0
BBX 11 18 1 -3
BITMAP
1300
1E00
0000
C0C0
C1C0
C1C0
C3C0
C6C0
CCC0
C8C0
D8C0
F0C0
E0C0
E0C0
C0E0
0060
0040
00C0
ENDCHAR
STARTCHAR 048B
ENCODING 1163
SWIDTH 600 0
DWIDTH 10 0
BBX 9 15 1 -3
BITMAP
2400
3C00
0000
C300
C700
C700
CB00
DB00
F300
E300
E300
C380
0180
0100
0100
ENDCHAR
STARTCHAR 048C
ENCODING 1164
SWIDTH 600 0
DWIDTH 10 0
BBX 10 12 0 0
BITMAP
2000
2000
F800
2000
2000
3F80
2180
20C0
20C0
20C0
2180
3F00
ENDCHAR
STARTCHAR 048D
ENCODING 1165
SWIDTH 480 0
DWIDTH 8 0
BBX 8 9 0 0
BITMAP
60
FC
60
60
7F
63
61
63
7E
ENDCHAR
STARTCHAR 048E
ENCODING 1166
SWIDTH 600 0
DWIDTH 10 0
BBX 9 12 1 0
BITMAP
7800
FF00
C300
C180
C980
CB00
FF00
FC00
C200
C200
C000
C000
ENDCHAR
STARTCHAR 048F
ENCODING 1167
SWIDTH 540 0
DWIDTH 9 0
BBX 8 12 1 -3
BITMAP
7C
FE
C3
C3
C3
CB
CB
CE
FC
C6
C0
C0
ENDCHAR
STARTCHAR 0490
ENCODING 1168
SWIDTH 480 0
DWIDTH 8 0
BBX 7 14 1 0
BITMAP
02
02
FE
FE
C0
C0
C0
C0
C0
C0
C0
C0
C0
C0
ENDCHAR
STARTCHAR 0491
ENCODING 1169
SWIDTH 420 0
DWIDTH 7 0
BBX 6 11 1 0
BITMAP
0C
0C
FC
FC
C0
C0
C0
C0
C0
C0
C0
ENDCHAR
STARTCHAR 0492
ENCODING 1170
SWIDTH 480 0
DWIDTH 8 0
BBX 8 12 0 0
BITMAP
3F
3F
20
20
20
FC
FC
20
20
20
20
20
ENDCHAR
STARTCHAR 0493
ENCODING 1171
SWIDTH 420 0
DWIDTH 7 0
BBX 7 9 0 0
BITMAP
7E
7E
60
60
F8
F8
60
60
60
ENDCHAR
STARTCHAR 0494
ENCODING 1172
SWIDTH 600 0
DWIDTH 10 0
BBX 9 15 1 -3
BITMAP
FE00
FE00
C000
C000
C000
FE00
C300
C100
C180
C180
C180
C180
0300
0700
1E00
ENDCHAR
STARTCHAR 0495
ENCODING 1173
SWIDTH 540 0
DWIDTH 9 0
BBX 7 12 1 -3
BITMAP
FC
FC
C0
C0
FC
C6
C2
C2
C2
02
06
1C
ENDCHAR
STARTCHAR 0496
ENCODING 1174
SWIDTH 900 0
DWIDTH 15 0
BBX 14 15 1 -3
BITMAP
C208
C218
6230
3260
1AC0
0F80
1FC0
1AE0
3260
6230
C218
C20C
0004
0004
0004
ENDCHAR
STARTCHAR 0497
ENCODING 1175
SWIDTH 720 0
DWIDTH 12 0
BBX 12 11 1 -2
BITMAP
C460
44C0
2480
3500
1F00
3580
64C0
C440
8470
0030
0030
ENDCHAR
STARTCHAR 0498
ENCODING 1176
SWIDTH 540 0
DWIDTH 9 0
BBX 8 15 1 -3
BITMAP
78
FE
06
06
06
7C
7E
02
03
03
86
FC
10
18
38
ENDCHAR
STARTCHAR 0499
ENCODING 1177
SWIDTH 480 0
DWIDTH 8 0
BBX 6 12 1 -3
BITMAP
F8
DC
0C
0C
78
0C
04
0C
F8
20
10
70
ENDCHAR
STARTCHAR 049A
ENCODING 1178
SWIDTH 600 0
DWIDTH 10 0
BBX 10 15 1 -3
BITMAP
C180
C300
C600
CC00
D800
F000
F800
DC00
C600
C300
C300
C1C0
00C0
00C0
00C0
ENDCHAR
STARTCHAR 049B
ENCODING 1179
SWIDTH 540 0
DWIDTH 9 0
BBX 8 11 1 -2
BITMAP
C6
CC
D8
F0
F0
D8
CC
C6
C3
01
01
ENDCHAR
STARTCHAR 049C
ENCODING 1180
SWIDTH 660 0
DWIDTH 11 0
BBX 10 12 1 0
BITMAP
C0C0
C180
C100
D300
D600
FC00
FC00
D600
D300
C180
C0C0
C0C0
ENDCHAR
STARTCHAR 049D
ENCODING 1181
SWIDTH 600 0
DWIDTH 10 0
BBX 9 9 1 0
BITMAP
C100
C300
D600
DC00
F800
D400
D600
C300
C180
ENDCHAR
STARTCHAR 049E
ENCODING 1182
SWIDTH 600 0
DWIDTH 10 0
BBX 10 12 0 0
BITMAP
20C0
2180
FB00
2600
2C00
3800
3C00
2600
2300
2180
20C0
20C0
ENDCHAR
STARTCHAR 049F
ENCODING 1183
SWIDTH 540 0
DWIDTH 9 0
BBX 9 9 0 0
BITMAP
6180
F300
6600
6C00
7800
6C00
6600
6300
6180
ENDCHAR
STARTCHAR 04A0
ENCODING 1184
SWIDTH 720 0
DWIDTH 12 0
BBX 12 12 0 0
BITMAP
F830
F860
18C0
1980
1B00
1E00
1E00
1B80
19C0
18C0
1860
1830
ENDCHAR
STARTCHAR 04A1
ENCODING 1185
SWIDTH 600 0
DWIDTH 10 0
BBX 10 9 0 0
BITMAP
F080
F100
3200
3400
3C00
3600
3300
3180
30C0
ENDCHAR
STARTCHAR 04A2
ENCODING 1186
SWIDTH 720 0
DWIDTH 12 0
BBX 11 15 1 -3
BITMAP
C080
C080
C080
C080
C080
FF80
FF80
C080
C080
C080
C080
C0E0
0060
0060
0060
ENDCHAR
STARTCHAR 04A3
ENCODING 1187
SWIDTH 540 0
DWIDTH 9 0
BBX 9 11 1 -2
BITMAP
C200
C200
C200
C200
FE00
C200
C200
C200
C380
0180
0180
ENDCHAR
STARTCHAR 04A4
ENCODING 1188
SWIDTH 780 0
DWIDTH 13 0
BBX 12 12 1 0
BITMAP
C0F0
C0F0
C080
C080
C080
FF80
FF80
C080
C080
C080
C080
C080
ENDCHAR
STARTCHAR 04A5
ENCODING 1189
SWIDTH 600 0
DWIDTH 10 0
BBX 10 9 1 0
BITMAP
C3C0
C3C0
C200
C200
FE00
C200
C200
C200
C200
ENDCHAR
STARTCHAR 04A6
ENCODING 1190
SWIDTH 1020 0
DWIDTH 17 0
BBX 16 15 1 -3
BITMAP
FF80
FF80
C180
C180
C180
C1FC
C18E
C186
C182
C183
C183
C182
0006
000C
0038
ENDCHAR
STARTCHAR 04A7
ENCODING 1191
SWIDTH 840 0
DWIDTH 14 0
BBX 13 12 1 -3
BITMAP
FE00
FE00
C200
C200
C3F0
C210
C218
C218
C218
0018
0030
0060
ENDCHAR
STARTCHAR 04A8
ENCODING 1192
SWIDTH 780 0
DWIDTH 13 0
BBX 11 15 1 -3
BITMAP
0F00
3F00
6000
C380
C7C0
C460
CC60
CC20
CC60
6C60
74C0
1F80
0200
0380
00E0
ENDCHAR
STARTCHAR 04A9
ENCODING 1193
SWIDTH 600 0
DWIDTH 10 0
BBX 8 11 1 -2
BITMAP
38
60
C4
8F
99
99
D9
7B
3E
0C
07
ENDCHAR
STARTCHAR 04AA
ENCODING 1194
SWIDTH 600 0
DWIDTH 10 0
BBX 9 15 1 -3
BITMAP
0F00
3F80
6000
C000
C000
C000
C000
C000
C000
6000
7080
3F80
0800
0400
1C00
ENDCHAR
STARTCHAR 04AB
ENCODING 1195
SWIDTH 420 0
DWIDTH 7 0
BBX 6 12 1 -3
BITMAP
3C
7C
C0
C0
80
C0
C0
60
3C
10
08
38
ENDCHAR
STARTCHAR 04AC
ENCODING 1196
SWIDTH 540 0
DWIDTH 9 0
BBX 9 15 0 -3
BITMAP
FF80
FF80
0C00
0C00
0C00
0C00
0C00
0C00
0C00
0C00
0C00
0E00
0600
0600
0600
ENDCHAR
STARTCHAR 04AD
ENCODING 1197
SWIDTH 420 0
DWIDTH 7 0
BBX 7 11 0 -2
BITMAP
FE
FE
18
18
18
18
18
18
1C
0C
0C
ENDCHAR
STARTCHAR 04AE
ENCODING 1198
SWIDTH 540 0
DWIDTH 9 0
BBX 10 12 0 0
BITMAP
C0C0
6080
6180
3300
3300
1E00
0C00
0C00
0C00
0C00
0C00
0C00
ENDCHAR
STARTCHAR 04AF
ENCODING 1199
SWIDTH 480 0
DWIDTH 8 0
BBX 8 12 0 -3
BITMAP
C3
43
62
62
26
34
3C
1C
18
18
18
18
ENDCHAR
STARTCHAR 04B0
ENCODING 1200
SWIDTH 540 0
DWIDTH 9 0
BBX 10 12 0 0
BITMAP
C0C0
6080
6180
3300
3300
1E00
0C00
3F00
0C00
0C00
0C00
0C00
ENDCHAR
STARTCHAR 04B1
ENCODING 1201
SWIDTH 480 0
DWIDTH 8 0
BBX 8 12 0 -3
BITMAP
C3
43
62
62
26
34
3C
18
7E
18
18
18
ENDCHAR
STARTCHAR 04B2
ENCODING 1202
SWIDTH 600 0
DWIDTH 10 0
BBX 10 15 1 -3
BITMAP
8180
C300
6300
2600
3C00
1C00
1C00
3400
6600
6300
C100
81C0
00C0
00C0
00C0
ENDCHAR
STARTCHAR 04B3
ENCODING 1203
SWIDTH 480 0
DWIDTH 8 0
BBX 8 11 1 -2
BITMAP
86
CC
68
38
30
78
4C
C4
87
03
03
ENDCHAR
STARTCHAR 04B4
ENCODING 1204
SWIDTH 840 0
DWIDTH 14 0
BBX 14 15 0 -3
BITMAP
FF10
FF10
0810
0810
0810
0810
0810
0810
0810
0810
0810
0FFC
000C
000C
000C
ENDCHAR
STARTCHAR 04B5
ENCODING 1205
SWIDTH 660 0
DWIDTH 11 0
BBX 11 11 0 -2
BITMAP
FCC0
FCC0
10C0
10C0
10C0
10C0
10C0
10C0
1FE0
0060
0060
ENDCHAR
STARTCHAR 04B6
ENCODING 1206
SWIDTH 600 0
DWIDTH 10 0
BBX 10 15 1 -3
BITMAP
C300
C300
C300
C300
C300
C300
7700
3F00
0300
0300
0300
03C0
00C0
00C0
00C0
ENDCHAR
STARTCHAR 04B7
ENCODING 1207
SWIDTH 540 0
DWIDTH 9 0
BBX 8 11 1 -2
BITMAP
86
86
86
86
C6
7E
06
06
07
03
03
ENDCHAR
STARTCHAR 04B8
ENCODING 1208
SWIDTH 600 0
DWIDTH 10 0
BBX 8 12 1 0
BITMAP
C1
C1
C1
C1
D9
D9
7F
3F
19
19
01
01
ENDCHAR
STARTCHAR 04B9
ENCODING 1209
SWIDTH 480 0
DWIDTH 8 0
BBX 7 9 1 0
BITMAP
86
86
86
96
D6
7E
16
06
06
ENDCHAR
STARTCHAR 04BA
ENCODING 1210
SWIDTH 600 0
DWIDTH 10 0
BBX 9 12 1 0
BITMAP
C000
C000
C000
C000
DC00
FF00
C100
C180
C180
C180
C180
C180
ENDCHAR
STARTCHAR 04BB
ENCODING 1211
SWIDTH 540 0
DWIDTH 9 0
BBX 7 13 1 0
BITMAP
C0
C0
C0
C0
FC
FE
C6
C2
C2
C2
C2
C2
C2
ENDCHAR
STARTCHAR 04BC
ENCODING 1212
SWIDTH 780 0
DWIDTH 13 0
BBX 13 12 0 0
BITMAP
03C0
07F0
0C30
C818
D818
7FF8
3FF8
1800
1800
0C00
0E10
03F0
ENDCHAR
STARTCHAR 04BD
ENCODING 1213
SWIDTH 660 0
DWIDTH 11 0
BBX 10 9 0 0
BITMAP
0700
0DC0
98C0
D040
7FC0
1000
1800
1C00
0FC0
ENDCHAR
STARTCHAR 04BE
ENCODING 1214
SWIDTH 780 0
DWIDTH 13 0
BBX 13 15 0 -3
BITMAP
03C0
07F0
0C30
C818
D818
7FF8
3FF8
1800
1800
0C00
0E10
03F0
0180
0180
0180
ENDCHAR
STARTCHAR 04BF
ENCODING 1215
SWIDTH 660 0
DWIDTH 11 0
BBX 10 11 0 -2
BITMAP
0700
0DC0
98C0
D040
7FC0
1000
1800
1C00
0FC0
0200
0200
ENDCHAR
STARTCHAR 04C0
ENCODING 1216
SWIDTH 240 0
DWIDTH 4 0
BBX 2 12 1 0
BITMAP
C0
C0
C0
C0
C0
C0
C0
C0
C0
C0
C0
C0
ENDCHAR
STARTCHAR 04C1
ENCODING 1217
SWIDTH 900 0
DWIDTH 15 0
BBX 13 15 1 0
BITMAP
0880
0780
0000
C208
C218
6230
3260
1AC0
0F80
0FC0
1AE0
3260
6230
C218
C208
ENDCHAR
STARTCHAR 04C2
ENCODING 1218
SWIDTH 720 0
DWIDTH 12 0
BBX 11 12 1 0
BITMAP
1B00
0E00
0000
C460
44C0
2480
3500
1F00
3580
64C0
C440
8460
ENDCHAR
STARTCHAR 04C3
ENCODING 1219
SWIDTH 600 0
DWIDTH 10 0
BBX 9 15 1 -3
BITMAP
C180
C300
C600
CC00
D800
F000
FE00
C300
C180
C180
C180
C180
0100
0700
0E00
ENDCHAR
STARTCHAR 04C4
ENCODING 1220
SWIDTH 540 0
DWIDTH 9 0
BBX 7 12 1 -3
BITMAP
C6
C4
C8
D0
FC
C6
C2
C2
C2
02
06
1C
ENDCHAR
STARTCHAR 04C5
ENCODING 1221
SWIDTH 720 0
DWIDTH 12 0
BBX 12 15 0 -3
BITMAP
0FC0
0FC0
0840
0840
0840
0840
1840
1840
1840
3040
7040
E070
0030
0060
0040
ENDCHAR
STARTCHAR 04C6
ENCODING 1222
SWIDTH 600 0
DWIDTH 10 0
BBX 10 12 0 -3
BITMAP
1F80
1F80
1180
1180
1180
3180
3180
6180
C1C0
00C0
0080
0080
ENDCHAR
STARTCHAR 04C7
ENCODING 1223
SWIDTH 660 0
DWIDTH 11 0
BBX 9 15 1 -3
BITMAP
C080
C080
C080
C080
C080
FF80
FF80
C080
C080
C080
C080
C080
0080
0180
0380
ENDCHAR
STARTCHAR 04C8
ENCODING 1224
SWIDTH 540 0
DWIDTH 9 0
BBX 7 12 1 -3
BITMAP
C2
C2
C2
C2
FE
C2
C2
C2
C2
02
02
0E
ENDCHAR
STARTCHAR 04C9
ENCODING 1225
SWIDTH 720 0
DWIDTH 12 0
BBX 11 15 1 -3
BITMAP
C080
C080
C080
C080
C080
FF80
FF80
C080
C080
C080
C080
C0E0
0060
00C0
0080
ENDCHAR
STARTCHAR 04CA
ENCODING 1226
SWIDTH 540 0
DWIDTH 9 0
BBX 9 11 1 -3
BITMAP
C200
C200
C200
C200
FE00
C200
C200
C200
C380
0180
0100
ENDCHAR
STARTCHAR 04CB
ENCODING 1227
SWIDTH 600 0
DWIDTH 10 0
BBX 8 15 1 -3
BITMAP
C1
C1
C1
C1
C1
C1
77
3F
01
01
01
07
06
06
06
ENDCHAR
STARTCHAR 04CC
ENCODING 1228
SWIDTH 480 0
DWIDTH 8 0
BBX 7 11 1 -2
BITMAP
86
86
86
86
C6
7E
06
06
0E
08
08
ENDCHAR
STARTCHAR 04CD
ENCODING 1229
SWIDTH 840 0
DWIDTH 14 0
BBX 14 15 1 -3
BITMAP
4030
6030
7070
7070
50F0
D890
C990
CD10
C710
C610
C010
C01C
000C
0018
0010
ENDCHAR
STARTCHAR 04CE
ENCODING 1230
SWIDTH 720 0
DWIDTH 12 0
BBX 11 12 1 -3
BITMAP
4080
61C0
61C0
F3C0
D2C0
DEC0
CCC0
CCC0
C060
0020
0060
0040
ENDCHAR
STARTCHAR 04CF
ENCODING 1231
SWIDTH 240 0
DWIDTH 4 0
BBX 2 12 1 0
BITMAP
C0
C0
C0
C0
C0
C0
C0
C0
C0
C0
C0
C0
ENDCHAR
STARTCHAR 04D0
ENCODING 1232
SWIDTH 660 0
DWIDTH 11 0
BBX 11 15 0 0
BITMAP
1100
0F00
0000
0400
0E00
0A00
1B00
1B00
1100
3180
2080
7FC0
60C0
4040
C060
ENDCHAR
STARTCHAR 04D1
ENCODING 1233
SWIDTH 480 0
DWIDTH 8 0
BBX 6 12 1 0
BITMAP
6C
38
00
78
4C
04
04
7C
C4
84
C4
7C
ENDCHAR
STARTCHAR 04D2
ENCODING 1234
SWIDTH 660 0
DWIDTH 11 0
BBX 11 15 0 0
BITMAP
1B00
1B00
0000
0400
0E00
0A00
1B00
1B00
1100
3180
2080
7FC0
60C0
4040
C060
ENDCHAR
STARTCHAR 04D3
ENCODING 1235
SWIDTH 480 0
DWIDTH 8 0
BBX 6 12 1 0
BITMAP
6C
4C
00
78
4C
04
04
7C
C4
84
C4
7C
ENDCHAR
STARTCHAR 04D4
ENCODING 1236
SWIDTH 900 0
DWIDTH 15 0
BBX 15 12 0 0
BITMAP
01FE
03FE
02C0
06C0
0CC0
08FC
18FC
10C0
3FC0
60C0
60C0
C0FE
ENDCHAR
STARTCHAR 04D5
ENCODING 1237
SWIDTH 840 0
DWIDTH 14 0
BBX 12 9 1 0
BITMAP
79E0
4F70
0610
0610
7FF0
C600
8600
C710
7DF0
ENDCHAR
STARTCHAR 04D6
ENCODING 1238
SWIDTH 540 0
DWIDTH 9 0
BBX 8 15 1 0
BITMAP
64
3C
00
FE
FE
C0
C0
C0
FE
FE
C0
C0
C0
C0
FF
ENDCHAR
STARTCHAR 04D7
ENCODING 1239
SWIDTH 540 0
DWIDTH 9 0
BBX 7 12 1 0
BITMAP
64
38
00
3C
6E
C2
C2
FE
C0
C0
62
3E
ENDCHAR
STARTCHAR 04D8
ENCODING 1240
SWIDTH 660 0
DWIDTH 11 0
BBX 10 12 1 0
BITMAP
3C00
7F00
0180
0080
00C0
00C0
FFC0
C0C0
C080
C180
6300
3E00
ENDCHAR
STARTCHAR 04D9
ENCODING 1241
SWIDTH 540 0
DWIDTH 9 0
BBX 7 9 1 0
BITMAP
78
7E
06
02
FE
C2
C2
C6
7C
ENDCHAR
STARTCHAR 04DA
ENCODING 1242
SWIDTH 660 0
DWIDTH 11 0
BBX 10 15 1 0
BITMAP
3200
3600
0000
3C00
7F00
0180
0080
00C0
00C0
FFC0
C0C0
C080
C180
6300
3E00
ENDCHAR
STARTCHAR 04DB
ENCODING 1243
SWIDTH 540 0
DWIDTH 9 0
BBX 7 12 1 0
BITMAP
6C
64
00
78
7E
06
02
FE
C2
C2
C6
7C
ENDCHAR
STARTCHAR 04DC
ENCODING 1244
SWIDTH 900 0
DWIDTH 15 0
BBX 13 15 1 0
BITMAP
0D80
0D80
0000
C208
C218
6230
3260
1AC0
0F80
0FC0
1AE0
3260
6230
C218
C208
ENDCHAR
STARTCHAR 04DD
ENCODING 1245
SWIDTH 720 0
DWIDTH 12 0
BBX 11 12 1 0
BITMAP
1B00
1300
0000
C460
44C0
2480
3500
1F00
3580
64C0
C440
8460
ENDCHAR
STARTCHAR 04DE
ENCODING 1246
SWIDTH 540 0
DWIDTH 9 0
BBX 8 15 1 0
BITMAP
4C
6C
00
78
FE
06
06
06
7C
7E
02
03
03
86
FC
ENDCHAR
STARTCHAR 04DF
ENCODING 1247
SWIDTH 480 0
DWIDTH 8 0
BBX 6 12 1 0
BITMAP
D8
48
00
F8
DC
0C
0C
78
0C
04
0C
F8
ENDCHAR
STARTCHAR 04E0
ENCODING 1248
SWIDTH 540 0
DWIDTH 9 0
BBX 8 12 1 0
BITMAP
FE
FE
06
0C
18
38
1E
02
03
03
86
FC
ENDCHAR
STARTCHAR 04E1
ENCODING 1249
SWIDTH 420 0
DWIDTH 7 0
BBX 7 12 0 -3
BITMAP
FE
FE
0C
08
10
38
0E
06
02
06
8E
FC
ENDCHAR
STARTCHAR 04E2
ENCODING 1250
SWIDTH 720 0
DWIDTH 12 0
BBX 10 14 1 0
BITMAP
1E00
0000
C0C0
C1C0
C1C0
C3C0
C6C0
CCC0
C8C0
D8C0
F0C0
E0C0
E0C0
C0C0
ENDCHAR
STARTCHAR 04E3
ENCODING 1251
SWIDTH 540 0
DWIDTH 9 0
BBX 8 12 1 0
BITMAP
3C
00
00
C3
C7
C7
CB
DB
F3
E3
E3
C3
ENDCHAR
STARTCHAR 04E4
ENCODING 1252
SWIDTH 720 0
DWIDTH 12 0
BBX 10 15 1 0
BITMAP
1200
1300
0000
C0C0
C1C0
C1C0
C3C0
C6C0
CCC0
C8C0
D8C0
F0C0
E0C0
E0C0
C0C0
ENDCHAR
STARTCHAR 04E5
ENCODING 1253
SWIDTH 540 0
DWIDTH 9 0
BBX 8 12 1 0
BITMAP
66
24
00
C3
C7
C7
CB
DB
F3
E3
E3
C3
ENDCHAR
STARTCHAR 04E6
ENCODING 1254
SWIDTH 720 0
DWIDTH 12 0
BBX 11 15 1 0
BITMAP
1B00
1B00
0000
0E00
3F80
60C0
C060
C060
C060
C060
C060
C060
60C0
71C0
1F00
ENDCHAR
STARTCHAR 04E7
ENCODING 1255
SWIDTH 540 0
DWIDTH 9 0
BBX 8 12 1 0
BITMAP
64
24
00
3C
7E
C3
C3
83
C3
C3
66
3C
ENDCHAR
STARTCHAR 04E8
ENCODING 1256
SWIDTH 720 0
DWIDTH 12 0
BBX 11 12 1 0
BITMAP
0E00
3F80
60C0
C060
C060
C060
FFE0
C060
C060
60C0
71C0
1F00
ENDCHAR
STARTCHAR 04E9
ENCODING 1257
SWIDTH 540 0
DWIDTH 9 0
BBX 8 9 1 0
BITMAP
3C
7E
C3
C3
FF
C3
C3
66
3C
ENDCHAR
STARTCHAR 04EA
ENCODING 1258
SWIDTH 720 0
DWIDTH 12 0
BBX 11 15 1 0
BITMAP
1B00
1B00
0000
0E00
3F80
60C0
C060
C060
C060
FFE0
C060
C060
60C0
71C0
1F00
ENDCHAR
STARTCHAR 04EB
ENCODING 1259
SWIDTH 540 0
DWIDTH 9 0
BBX 8 12 1 0
BITMAP
64
24
00
3C
7E
C3
C3
FF
C3
C3
66
3C
ENDCHAR
STARTCHAR 04EC
ENCODING 1260
SWIDTH 600 0
DWIDTH 10 0
BBX 9 15 0 0
BITMAP
2400
2600
0000
7C00
7F00
0300
0180
0180
1F80
1F80
0080
0180
0180
4700
FE00
ENDCHAR
STARTCHAR 04ED
ENCODING 1261
SWIDTH 480 0
DWIDTH 8 0
BBX 6 12 1 0
BITMAP
D8
D8
00
F0
F8
0C
04
7C
04
04
0C
F8
ENDCHAR
STARTCHAR 04EE
ENCODING 1262
SWIDTH 540 0
DWIDTH 9 0
BBX 10 14 0 0
BITMAP
1E00
0000
C0C0
6080
6180
2180
3100
1300
1A00
0E00
0E00
0C00
1C00
7800
ENDCHAR
STARTCHAR 04EF
ENCODING 1263
SWIDTH 480 0
DWIDTH 8 0
BBX 8 15 0 -3
BITMAP
3E
00
00
C3
43
62
62
26
36
34
1C
18
08
10
F0
ENDCHAR
STARTCHAR 04F0
ENCODING 1264
SWIDTH 540 0
DWIDTH 9 0
BBX 10 15 0 0
BITMAP
1200
1300
0000
C0C0
6080
6180
2180
3100
1300
1A00
0E00
0E00
0C00
1C00
7800
ENDCHAR
STARTCHAR 04F1
ENCODING 1265
SWIDTH 480 0
DWIDTH 8 0
BBX 8 15 0 -3
BITMAP
36
26
00
C3
43
62
62
26
36
34
1C
18
08
10
F0
ENDCHAR
STARTCHAR 04F2
ENCODING 1266
SWIDTH 540 0
DWIDTH 9 0
BBX 10 15 0 1
BITMAP
0D80
1B00
1200
C0C0
6080
6180
2180
3100
1300
1A00
0E00
0E00
0C00
1C00
7800
ENDCHAR
STARTCHAR 04F3
ENCODING 1267
SWIDTH 480 0
DWIDTH 8 0
BBX 8 16 0 -3
BITMAP
08
1A
36
00
C3
43
62
62
26
36
34
1C
18
08
10
F0
ENDCHAR
STARTCHAR 04F4
ENCODING 1268
SWIDTH 600 0
DWIDTH 10 0
BBX 8 15 1 0
BITMAP
24
26
00
C3
C3
C3
C3
C3
C3
77
3F
03
03
03
03
ENDCHAR
STARTCHAR 04F5
ENCODING 1269
SWIDTH 480 0
DWIDTH 8 0
BBX 7 12 1 0
BITMAP
6C
48
00
86
86
86
86
C6
7E
06
06
06
ENDCHAR
STARTCHAR 04F6
ENCODING 1270
SWIDTH 480 0
DWIDTH 8 0
BBX 7 15 1 -3
BITMAP
FE
FE
C0
C0
C0
C0
C0
C0
C0
C0
C0
F0
30
30
30
ENDCHAR
STARTCHAR 04F7
ENCODING 1271
SWIDTH 360 0
DWIDTH 6 0
BBX 6 11 1 -2
BITMAP
FC
FC
C0
C0
C0
C0
C0
C0
E0
20
20
ENDCHAR
STARTCHAR 04F8
ENCODING 1272
SWIDTH 840 0
DWIDTH 14 0
BBX 12 15 1 0
BITMAP
0900
0980
0000
C030
C030
C030
C030
C030
FE30
C330
C130
C130
C130
C730
FE30
ENDCHAR
STARTCHAR 04F9
ENCODING 1273
SWIDTH 720 0
DWIDTH 12 0
BBX 10 12 1 0
BITMAP
1B00
1300
0000
C040
C040
C040
D040
FE40
C640
C240
C640
FC40
ENDCHAR
STARTCHAR 1E80
ENCODING 7808
SWIDTH 900 0
DWIDTH 15 0
BBX 15 15 0 1
BITMAP
0300
0100
0000
C006
4006
6186
6184
6384
62CC
224C
364C
3468
3C38
1838
1830
ENDCHAR
STARTCHAR 1E81
ENCODING 7809
SWIDTH 720 0
DWIDTH 12 0
BBX 13 13 0 0
BITMAP
0400
0600
0300
0000
C218
4210
4710
6530
6520
2DA0
38E0
18C0
18C0
ENDCHAR
STARTCHAR 1E82
ENCODING 7810
SWIDTH 900 0
DWIDTH 15 0
BBX 15 15 0 1
BITMAP
00C0
0180
0100
C006
4006
6186
6184
6384
62CC
224C
364C
3468
3C38
1838
1830
ENDCHAR
STARTCHAR 1E83
ENCODING 7811
SWIDTH 720 0
DWIDTH 12 0
BBX 13 13 0 0
BITMAP
0100
0300
0600
0000
C218
4210
4710
6530
6520
2DA0
38E0
18C0
18C0
ENDCHAR
STARTCHAR 1E84
ENCODING 7812
SWIDTH 900 0
DWIDTH 15 0
BBX 15 15 0 0
BITMAP
0640
06C0
0000
C006
4006
6186
6184
6384
62CC
224C
364C
3468
3C38
1838
1830
ENDCHAR
STARTCHAR 1E85
ENCODING 7813
SWIDTH 720 0
DWIDTH 12 0
BBX 13 12 0 0
BITMAP
0D80
0D80
0000
C218
4210
4710
6530
6520
2DA0
38E0
18C0
18C0
ENDCHAR
STARTCHAR 1EF2
ENCODING 7922
SWIDTH 540 0
DWIDTH 9 0
BBX 10 15 0 1
BITMAP
1800
0C00
0400
C0C0
6080
6180
3300
3300
1E00
0C00
0C00
0C00
0C00
0C00
0C00
ENDCHAR
STARTCHAR 1EF3
ENCODING 7923
SWIDTH 480 0
DWIDTH 8 0
BBX 8 16 0 -3
BITMAP
10
18
08
00
C3
43
62
62
26
36
34
1C
18
08
10
F0
ENDCHAR
STARTCHAR 1F00
ENCODING 7936
SWIDTH 600 0
DWIDTH 10 0
BBX 9 13 1 0
BITMAP
1800
0800
1800
0000
3E00
7E00
C200
C200
8200
C200
C200
6700
3D80
ENDCHAR
STARTCHAR 1F01
ENCODING 7937
SWIDTH 600 0
DWIDTH 10 0
BBX 9 13 1 0
BITMAP
1800
1000
1800
0000
3E00
7E00
C200
C200
8200
C200
C200
6700
3D80
ENDCHAR
STARTCHAR 1F02
ENCODING 7938
SWIDTH 600 0
DWIDTH 10 0
BBX 9 13 1 0
BITMAP
2C00
2400
2600
0000
3E00
7E00
C200
C200
8200
C200
C200
6700
3D80
ENDCHAR
STARTCHAR 1F03
ENCODING 7939
SWIDTH 600 0
DWIDTH 10 0
BBX 9 13 1 0
BITMAP
6800
6800
2400
0000
3E00
7E00
C200
C200
8200
C200
C200
6700
3D80
ENDCHAR
STARTCHAR 1F04
ENCODING 7940
SWIDTH 600 0
DWIDTH 10 0
BBX 9 13 1 0
BITMAP
3200
1600
3400
0000
3E00
7E00
C200
C200
8200
C200
C200
6700
3D80
ENDCHAR
STARTCHAR 1F05
ENCODING 7941
SWIDTH 600 0
DWIDTH 10 0
BBX 9 13 1 0
BITMAP
6600
6400
2C00
0000
3E00
7E00
C200
C200
8200
C200
C200
6700
3D80
ENDCHAR
STARTCHAR 1F06
ENCODING 7942
SWIDTH 600 0
DWIDTH 10 0
BBX 9 15 1 0
BITMAP
1800
2400
0000
1800
1000
0000
3E00
7E00
C200
C200
8200
C200
C200
6700
3D80
ENDCHAR
STARTCHAR 1F07
ENCODING 7943
SWIDTH 600 0
DWIDTH 10 0
BBX 9 15 1 0
BITMAP
1800
2400
0000
1800
0800
0000
3E00
7E00
C200
C200
8200
C200
C200
6700
3D80
ENDCHAR
STARTCHAR 1F08
ENCODING 7944
SWIDTH 660 0
DWIDTH 11 0
BBX 11 12 0 0
BITMAP
2400
6E00
2A00
5B00
1B00
1100
3180
2080
7FC0
60C0
4040
C060
ENDCHAR
STARTCHAR 1F09
ENCODING 7945
SWIDTH 660 0
DWIDTH 11 0
BBX 11 12 0 0
BITMAP
C400
CE00
4A00
1B00
1B00
1100
3180
2080
7FC0
60C0
4040
C060
ENDCHAR
STARTCHAR 1F0A
ENCODING 7946
SWIDTH 780 0
DWIDTH 13 0
BBX 13 12 0 0
BITMAP
8100
D380
9A80
06C0
06C0
0440
0C60
0820
1FF0
1830
1010
3018
ENDCHAR
STARTCHAR 1F0B
ENCODING 7947
SWIDTH 720 0
DWIDTH 12 0
BBX 13 12 -1 0
BITMAP
5180
D980
49C0
0340
0260
0620
0430
0430
0FF0
0818
1818
1808
ENDCHAR
STARTCHAR 1F0C
ENCODING 7948
SWIDTH 720 0
DWIDTH 12 0
BBX 12 12 0 0
BITMAP
9200
D700
A500
2D80
0D80
08C0
18C0
1040
3FE0
3060
2020
6030
ENDCHAR
STARTCHAR 1F0D
ENCODING 7949
SWIDTH 720 0
DWIDTH 12 0
BBX 13 12 -1 0
BITMAP
4180
CD80
5BC0
02C0
0660
0660
0420
0C30
0FF0
0810
1818
1018
ENDCHAR
STARTCHAR 1F0E
ENCODING 7950
SWIDTH 660 0
DWIDTH 11 0
BBX 12 13 -1 0
BITMAP
7000
8A00
2700
2500
6D80
0D80
0880
18C0
1040
3FE0
3060
2020
6030
ENDCHAR
STARTCHAR 1F0F
ENCODING 7951
SWIDTH 660 0
DWIDTH 11 0
BBX 12 13 -1 0
BITMAP
7000
8A00
2700
2700
3580
0C80
08C0
18C0
1840
1FE0
3060
3030
6030
ENDCHAR
STARTCHAR 1F10
ENCODING 7952
SWIDTH 480 0
DWIDTH 8 0
BBX 7 13 1 0
BITMAP
18
18
10
00
3C
64
C0
C0
78
C0
80
C2
7E
ENDCHAR
STARTCHAR 1F11
ENCODING 7953
SWIDTH 480 0
DWIDTH 8 0
BBX 7 13 1 0
BITMAP
30
30
10
00
3C
64
C0
C0
78
C0
80
C2
7E
ENDCHAR
STARTCHAR 1F12
ENCODING 7954
SWIDTH 480 0
DWIDTH 8 0
BBX 7 13 1 0
BITMAP
68
6C
44
00
3C
64
C0
C0
78
C0
80
C2
7E
ENDCHAR
STARTCHAR 1F13
ENCODING 7955
SWIDTH 480 0
DWIDTH 8 0
BBX 7 13 1 0
BITMAP
D0
D8
4C
00
3C
64
C0
C0
78
C0
80
C2
7E
ENDCHAR
STARTCHAR 1F14
ENCODING 7956
SWIDTH 480 0
DWIDTH 8 0
BBX 7 13 1 0
BITMAP
34
34
28
00
3C
64
C0
C0
78
C0
80
C2
7E
ENDCHAR
STARTCHAR 1F15
ENCODING 7957
SWIDTH 480 0
DWIDTH 8 0
BBX 7 13 1 0
BITMAP
64
4C
68
00
3C
64
C0
C0
78
C0
80
C2
7E
ENDCHAR
STARTCHAR 1F18
ENCODING 7960
SWIDTH 600 0
DWIDTH 10 0
BBX 10 12 0 0
BITMAP
BFC0
FFC0
B000
3000
3000
3F80
3F80
3000
3000
3000
3000
3FC0
ENDCHAR
STARTCHAR 1F19
ENCODING 7961
SWIDTH 600 0
DWIDTH 10 0
BBX 11 12 -1 0
BITMAP
5FE0
DFE0
5800
1800
1800
1FC0
1FC0
1800
1800
1800
1800
1FE0
ENDCHAR
STARTCHAR 1F1A
ENCODING 7962
SWIDTH 780 0
DWIDTH 13 0
BBX 13 12 0 0
BITMAP
83F8
D3F8
9A00
0200
0200
03F0
03F0
0200
0200
0200
0200
03F8
ENDCHAR
STARTCHAR 1F1B
ENCODING 7963
SWIDTH 780 0
DWIDTH 13 0
BBX 14 12 -1 0
BITMAP
53F8
DBF8
4B00
0300
0300
03F8
03F8
0300
0300
0300
0300
03FC
ENDCHAR
STARTCHAR 1F1C
ENCODING 7964
SWIDTH 780 0
DWIDTH 13 0
BBX 13 12 0 0
BITMAP
97F0
D7F0
A600
2600
0600
07F0
07F0
0600
0600
0600
0600
07F8
ENDCHAR
STARTCHAR 1F1D
ENCODING 7965
SWIDTH 780 0
DWIDTH 13 0
BBX 14 12 -1 0
BITMAP
41FC
CDFC
5900
0100
0100
01F8
01F8
0100
0100
0100
0100
01FC
ENDCHAR
STARTCHAR 1F20
ENCODING 7968
SWIDTH 540 0
DWIDTH 9 0
BBX 7 16 1 -3
BITMAP
18
18
10
00
7C
FE
C6
C2
C2
C2
C2
C2
C2
02
02
02
ENDCHAR
STARTCHAR 1F21
ENCODING 7969
SWIDTH 540 0
DWIDTH 9 0
BBX 7 16 1 -3
BITMAP
10
10
18
00
7C
FE
C6
C2
C2
C2
C2
C2
C2
02
02
02
ENDCHAR
STARTCHAR 1F22
ENCODING 7970
SWIDTH 540 0
DWIDTH 9 0
BBX 7 16 1 -3
BITMAP
28
2C
66
00
7C
FE
C6
C2
C2
C2
C2
C2
C2
02
02
02
ENDCHAR
STARTCHAR 1F23
ENCODING 7971
SWIDTH 540 0
DWIDTH 9 0
BBX 7 16 1 -3
BITMAP
68
48
64
00
7C
FE
C6
C2
C2
C2
C2
C2
C2
02
02
02
ENDCHAR
STARTCHAR 1F24
ENCODING 7972
SWIDTH 540 0
DWIDTH 9 0
BBX 7 16 1 -3
BITMAP
32
36
2C
00
7C
FE
C6
C2
C2
C2
C2
C2
C2
02
02
02
ENDCHAR
STARTCHAR 1F25
ENCODING 7973
SWIDTH 540 0
DWIDTH 9 0
BBX 7 16 1 -3
BITMAP
64
64
28
00
7C
FE
C6
C2
C2
C2
C2
C2
C2
02
02
02
ENDCHAR
STARTCHAR 1F26
ENCODING 7974
SWIDTH 540 0
DWIDTH 9 0
BBX 7 18 1 -3
BITMAP
18
24
00
18
10
00
7C
FE
C6
C2
C2
C2
C2
C2
C2
02
02
02
ENDCHAR
STARTCHAR 1F27
ENCODING 7975
SWIDTH 540 0
DWIDTH 9 0
BBX 7 18 1 -3
BITMAP
18
24
00
18
18
00
7C
FE
C6
C2
C2
C2
C2
C2
C2
02
02
02
ENDCHAR
STARTCHAR 1F28
ENCODING 7976
SWIDTH 720 0
DWIDTH 12 0
BBX 11 12 0 0
BITMAP
B020
F020
B020
3020
3020
3FE0
3FE0
3020
3020
3020
3020
3020
ENDCHAR
STARTCHAR 1F29
ENCODING 7977
SWIDTH 720 0
DWIDTH 12 0
BBX 12 12 -1 0
BITMAP
5810
D810
5810
1810
1810
1FF0
1FF0
1810
1810
1810
1810
1810
ENDCHAR
STARTCHAR 1F2A
ENCODING 7978
SWIDTH 900 0
DWIDTH 15 0
BBX 15 12 0 0
BITMAP
8206
D206
9A06
0206
0206
03FE
03FE
0206
0206
0206
0206
0206
ENDCHAR
STARTCHAR 1F2B
ENCODING 7979
SWIDTH 900 0
DWIDTH 15 0
BBX 15 12 -1 0
BITMAP
5302
DB02
4B02
0302
0302
03FE
03FE
0302
0302
0302
0302
0302
ENDCHAR
STARTCHAR 1F2C
ENCODING 7980
SWIDTH 900 0
DWIDTH 15 0
BBX 14 12 0 0
BITMAP
9604
D604
A604
2604
0604
07FC
07FC
0604
0604
0604
0604
0604
ENDCHAR
STARTCHAR 1F2D
ENCODING 7981
SWIDTH 960 0
DWIDTH 16 0
BBX 16 12 -1 0
BITMAP
4103
CD03
5903
0103
0103
01FF
01FF
0103
0103
0103
0103
0103
ENDCHAR
STARTCHAR 1F2E
ENCODING 7982
SWIDTH 840 0
DWIDTH 14 0
BBX 14 13 -1 0
BITMAP
7000
8E04
2604
2604
6604
0604
07FC
07FC
0604
0604
0604
0604
0604
ENDCHAR
STARTCHAR 1F2F
ENCODING 7983
SWIDTH 840 0
DWIDTH 14 0
BBX 14 13 -1 0
BITMAP
7000
8E04
2604
2604
3604
0604
07FC
07FC
0604
0604
0604
0604
0604
ENDCHAR
STARTCHAR 1F30
ENCODING 7984
SWIDTH 240 0
DWIDTH 4 0
BBX 3 13 1 0
BITMAP
40
40
C0
00
C0
C0
C0
C0
C0
C0
C0
C0
60
ENDCHAR
STARTCHAR 1F31
ENCODING 7985
SWIDTH 240 0
DWIDTH 4 0
BBX 3 13 1 0
BITMAP
C0
C0
40
00
C0
C0
C0
C0
C0
C0
C0
C0
60
ENDCHAR
STARTCHAR 1F32
ENCODING 7986
SWIDTH 240 0
DWIDTH 4 0
BBX 5 13 0 0
BITMAP
F0
D0
98
00
60
60
60
60
60
60
60
60
30
ENDCHAR
STARTCHAR 1F33
ENCODING 7987
SWIDTH 240 0
DWIDTH 4 0
BBX 5 13 -1 0
BITMAP
D0
D8
48
00
30
30
30
30
30
30
30
30
18
ENDCHAR
STARTCHAR 1F34
ENCODING 7988
SWIDTH 240 0
DWIDTH 4 0
BBX 5 13 0 0
BITMAP
48
58
D0
00
60
60
60
60
60
60
60
60
30
ENDCHAR
STARTCHAR 1F35
ENCODING 7989
SWIDTH 240 0
DWIDTH 4 0
BBX 6 13 -1 0
BITMAP
C4
C8
58
00
30
30
30
30
30
30
30
30
18
ENDCHAR
STARTCHAR 1F36
ENCODING 7990
SWIDTH 240 0
DWIDTH 4 0
BBX 4 15 0 0
BITMAP
60
90
00
60
60
00
60
60
60
60
60
60
60
60
30
ENDCHAR
STARTCHAR 1F37
ENCODING 7991
SWIDTH 240 0
DWIDTH 4 0
BBX 4 15 0 0
BITMAP
60
90
00
60
20
00
60
60
60
60
60
60
60
60
30
ENDCHAR
STARTCHAR 1F38
ENCODING 7992
SWIDTH 300 0
DWIDTH 5 0
BBX 4 12 0 0
BITMAP
B0
F0
B0
30
30
30
30
30
30
30
30
30
ENDCHAR
STARTCHAR 1F39
ENCODING 7993
SWIDTH 300 0
DWIDTH 5 0
BBX 5 12 -1 0
BITMAP
58
D8
58
18
18
18
18
18
18
18
18
18
ENDCHAR
STARTCHAR 1F3A
ENCODING 7994
SWIDTH 480 0
DWIDTH 8 0
BBX 7 12 0 0
BITMAP
82
D2
9A
02
02
02
02
02
02
02
02
02
ENDCHAR
STARTCHAR 1F3B
ENCODING 7995
SWIDTH 480 0
DWIDTH 8 0
BBX 8 12 -1 0
BITMAP
53
DB
4B
03
03
03
03
03
03
03
03
03
ENDCHAR
STARTCHAR 1F3C
ENCODING 7996
SWIDTH 480 0
DWIDTH 8 0
BBX 7 12 0 0
BITMAP
96
D6
A6
26
06
06
06
06
06
06
06
06
ENDCHAR
STARTCHAR 1F3D
ENCODING 7997
SWIDTH 480 0
DWIDTH 8 0
BBX 8 12 -1 0
BITMAP
41
CD
59
01
01
01
01
01
01
01
01
01
ENDCHAR
STARTCHAR 1F3E
ENCODING 7998
SWIDTH 420 0
DWIDTH 7 0
BBX 7 13 -1 0
BITMAP
70
8E
26
26
66
06
06
06
06
06
06
06
06
ENDCHAR
STARTCHAR 1F3F
ENCODING 7999
SWIDTH 420 0
DWIDTH 7 0
BBX 7 13 -1 0
BITMAP
70
8E
26
26
36
06
06
06
06
06
06
06
06
ENDCHAR
STARTCHAR 1F40
ENCODING 8000
SWIDTH 540 0
DWIDTH 9 0
BBX 8 13 1 0
BITMAP
18
08
10
00
3C
7E
C3
C3
83
C3
C3
66
3C
ENDCHAR
STARTCHAR 1F41
ENCODING 8001
SWIDTH 540 0
DWIDTH 9 0
BBX 8 13 1 0
BITMAP
18
10
18
00
3C
7E
C3
C3
83
C3
C3
66
3C
ENDCHAR
STARTCHAR 1F42
ENCODING 8002
SWIDTH 540 0
DWIDTH 9 0
BBX 8 13 1 0
BITMAP
28
2C
26
00
3C
7E
C3
C3
83
C3
C3
66
3C
ENDCHAR
STARTCHAR 1F43
ENCODING 8003
SWIDTH 540 0
DWIDTH 9 0
BBX 8 13 1 0
BITMAP
68
48
24
00
3C
7E
C3
C3
83
C3
C3
66
3C
ENDCHAR
STARTCHAR 1F44
ENCODING 8004
SWIDTH 540 0
DWIDTH 9 0
BBX 8 13 1 0
BITMAP
32
16
2C
00
3C
7E
C3
C3
83
C3
C3
66
3C
ENDCHAR
STARTCHAR 1F45
ENCODING 8005
SWIDTH 540 0
DWIDTH 9 0
BBX 8 13 1 0
BITMAP
66
64
2C
00
3C
7E
C3
C3
83
C3
C3
66
3C
ENDCHAR
STARTCHAR 1F48
ENCODING 8008
SWIDTH 780 0
DWIDTH 13 0
BBX 12 12 0 0
BITMAP
8780
DFC0
B060
2030
6030
6030
6030
6030
6030
3060
18E0
0FC0
ENDCHAR
STARTCHAR 1F49
ENCODING 8009
SWIDTH 780 0
DWIDTH 13 0
BBX 14 12 -1 0
BITMAP
43C0
C7F0
4C18
1818
180C
100C
100C
180C
1808
1818
0E30
07E0
ENDCHAR
STARTCHAR 1F4A
ENCODING 8010
SWIDTH 960 0
DWIDTH 16 0
BBX 16 12 0 0
BITMAP
80F0
D1FC
9B06
0602
0603
0603
0603
0603
0603
0306
038E
00F8
ENDCHAR
STARTCHAR 1F4B
ENCODING 8011
SWIDTH 960 0
DWIDTH 16 0
BBX 17 12 -1 0
BITMAP
507800
D8FE00
498300
030300
030180
020180
020180
020180
030100
030300
01C600
00FC00
ENDCHAR
STARTCHAR 1F4C
ENCODING 8012
SWIDTH 900 0
DWIDTH 15 0
BBX 15 12 0 0
BITMAP
91E0
D3F8
A60C
2C0C
0C06
0806
0806
0C06
0C04
0C0C
0718
03F0
ENDCHAR
STARTCHAR 1F4D
ENCODING 8013
SWIDTH 960 0
DWIDTH 16 0
BBX 16 12 -1 0
BITMAP
4078
CDFC
5B06
0203
0603
0603
0603
0603
0603
0306
018E
00FC
ENDCHAR
STARTCHAR 1F50
ENCODING 8016
SWIDTH 540 0
DWIDTH 9 0
BBX 7 13 1 0
BITMAP
18
18
10
00
C2
C2
C2
C2
C2
C2
C2
66
7C
ENDCHAR
STARTCHAR 1F51
ENCODING 8017
SWIDTH 540 0
DWIDTH 9 0
BBX 7 13 1 0
BITMAP
10
10
10
00
C2
C2
C2
C2
C2
C2
C2
66
7C
ENDCHAR
STARTCHAR 1F52
ENCODING 8018
SWIDTH 540 0
DWIDTH 9 0
BBX 7 13 1 0
BITMAP
28
2C
66
00
C2
C2
C2
C2
C2
C2
C2
66
7C
ENDCHAR
STARTCHAR 1F53
ENCODING 8019
SWIDTH 540 0
DWIDTH 9 0
BBX 7 13 1 0
BITMAP
58
48
6C
00
C2
C2
C2
C2
C2
C2
C2
66
7C
ENDCHAR
STARTCHAR 1F54
ENCODING 8020
SWIDTH 540 0
DWIDTH 9 0
BBX 7 13 1 0
BITMAP
32
36
2C
00
C2
C2
C2
C2
C2
C2
C2
66
7C
ENDCHAR
STARTCHAR 1F55
ENCODING 8021
SWIDTH 540 0
DWIDTH 9 0
BBX 7 13 1 0
BITMAP
64
64
28
00
C2
C2
C2
C2
C2
C2
C2
66
7C
ENDCHAR
STARTCHAR 1F56
ENCODING 8022
SWIDTH 540 0
DWIDTH 9 0
BBX 7 15 1 0
BITMAP
18
24
00
18
10
00
C2
C2
C2
C2
C2
C2
C2
66
7C
ENDCHAR
STARTCHAR 1F57
ENCODING 8023
SWIDTH 540 0
DWIDTH 9 0
BBX 7 15 1 0
BITMAP
18
24
00
18
18
00
C2
C2
C2
C2
C2
C2
C2
66
7C
ENDCHAR
STARTCHAR 1F59
ENCODING 8025
SWIDTH 660 0
DWIDTH 11 0
BBX 13 12 -1 0
BITMAP
5818
D830
4C20
0460
0640
03C0
0380
0180
0180
0180
0180
0180
ENDCHAR
STARTCHAR 1F5B
ENCODING 8027
SWIDTH 840 0
DWIDTH 14 0
BBX 15 12 -1 0
BITMAP
5302
DB06
4984
018C
00D8
00D0
0070
0020
0020
0020
0020
0020
ENDCHAR
STARTCHAR 1F5D
ENCODING 8029
SWIDTH 900 0
DWIDTH 15 0
BBX 16 12 -1 0
BITMAP
4303
CD83
5886
00C6
006C
0068
0038
0010
0010
0010
0010
0010
ENDCHAR
STARTCHAR 1F5F
ENCODING 8031
SWIDTH 840 0
DWIDTH 14 0
BBX 15 13 -1 0
BITMAP
7000
8E06
2304
230C
3188
0098
00F0
0060
0060
0060
0060
0060
0060
ENDCHAR
STARTCHAR 1F60
ENCODING 8032
SWIDTH 780 0
DWIDTH 13 0
BBX 12 13 1 0
BITMAP
0600
0200
0600
0000
6060
4020
C630
C630
C630
C630
C630
CF60
79E0
ENDCHAR
STARTCHAR 1F61
ENCODING 8033
SWIDTH 780 0
DWIDTH 13 0
BBX 12 13 1 0
BITMAP
0600
0400
0600
0000
6060
4020
C630
C630
C630
C630
C630
CF60
79E0
ENDCHAR
STARTCHAR 1F62
ENCODING 8034
SWIDTH 780 0
DWIDTH 13 0
BBX 12 13 1 0
BITMAP
0A00
0900
0980
0000
6060
4020
C630
C630
C630
C630
C630
CF60
79E0
ENDCHAR
STARTCHAR 1F63
ENCODING 8035
SWIDTH 780 0
DWIDTH 13 0
BBX 12 13 1 0
BITMAP
1A00
1A00
0900
0000
6060
4020
C630
C630
C630
C630
C630
CF60
79E0
ENDCHAR
STARTCHAR 1F64
ENCODING 8036
SWIDTH 780 0
DWIDTH 13 0
BBX 12 13 1 0
BITMAP
0C80
0580
0F00
0000
6060
4020
C630
C630
C630
C630
C630
CF60
79E0
ENDCHAR
STARTCHAR 1F65
ENCODING 8037
SWIDTH 780 0
DWIDTH 13 0
BBX 12 13 1 0
BITMAP
1980
1900
0B00
0000
6060
4020
C630
C630
C630
C630
C630
CF60
79E0
ENDCHAR
STARTCHAR 1F66
ENCODING 8038
SWIDTH 780 0
DWIDTH 13 0
BBX 12 15 1 0
BITMAP
0600
0900
0000
0600
0400
0000
6060
4020
C630
C630
C630
C630
C630
CF60
79E0
ENDCHAR
STARTCHAR 1F67
ENCODING 8039
SWIDTH 780 0
DWIDTH 13 0
BBX 12 15 1 0
BITMAP
0600
0900
0000
0600
0200
0000
6060
4020
C630
C630
C630
C630
C630
CF60
79E0
ENDCHAR
STARTCHAR 1F68
ENCODING 8040
SWIDTH 780 0
DWIDTH 13 0
BBX 12 12 0 0
BITMAP
8780
DFC0
B060
2030
6030
6030
6030
6030
3020
3060
18C0
78F0
ENDCHAR
STARTCHAR 1F69
ENCODING 8041
SWIDTH 780 0
DWIDTH 13 0
BBX 14 12 -1 0
BITMAP
43C0
C7F0
4C18
1818
180C
180C
180C
1808
1818
0C10
0630
1E7C
ENDCHAR
STARTCHAR 1F6A
ENCODING 8042
SWIDTH 960 0
DWIDTH 16 0
BBX 16 12 0 0
BITMAP
80F0
D1FC
9B06
0602
0603
0603
0603
0603
0202
0306
018C
078F
ENDCHAR
STARTCHAR 1F6B
ENCODING 8043
SWIDTH 960 0
DWIDTH 16 0
BBX 17 12 -1 0
BITMAP
507800
D9FE00
498300
030300
030100
020180
020180
030100
030300
018200
00C600
07CF80
ENDCHAR
STARTCHAR 1F6C
ENCODING 8044
SWIDTH 900 0
DWIDTH 15 0
BBX 15 12 0 0
BITMAP
91E0
D3F8
A60C
2C0C
0C04
0806
0C06
0C04
0C0C
0608
0318
0F3E
ENDCHAR
STARTCHAR 1F6D
ENCODING 8045
SWIDTH 960 0
DWIDTH 16 0
BBX 16 12 -1 0
BITMAP
4078
CDFC
5B06
0203
0603
0603
0603
0603
0202
0306
018C
078F
ENDCHAR
STARTCHAR 1F6E
ENCODING 8046
SWIDTH 840 0
DWIDTH 14 0
BBX 15 13 -1 0
BITMAP
7000
89E0
27F8
2C18
6C0C
0804
0804
0804
080C
0C0C
0408
0210
1F3E
ENDCHAR
STARTCHAR 1F6F
ENCODING 8047
SWIDTH 840 0
DWIDTH 14 0
BBX 15 13 -1 0
BITMAP
7000
89E0
23F8
260C
3C04
0C06
0C06
0C06
0C06
0404
060C
0318
0F1E
ENDCHAR
STARTCHAR 1F70
ENCODING 8048
SWIDTH 600 0
DWIDTH 10 0
BBX 9 13 1 0
BITMAP
2000
3000
0800
0000
3E00
7E00
C200
C200
8200
C200
C200
6700
3D80
ENDCHAR
STARTCHAR 1F71
ENCODING 8049
SWIDTH 600 0
DWIDTH 10 0
BBX 9 13 1 0
BITMAP
0400
0C00
1000
0000
3E00
7E00
C200
C200
8200
C200
C200
6700
3D80
ENDCHAR
STARTCHAR 1F72
ENCODING 8050
SWIDTH 480 0
DWIDTH 8 0
BBX 7 13 1 0
BITMAP
20
30
18
00
3C
64
C0
C0
78
C0
80
C2
7E
ENDCHAR
STARTCHAR 1F73
ENCODING 8051
SWIDTH 480 0
DWIDTH 8 0
BBX 7 13 1 0
BITMAP
08
18
30
00
3C
64
C0
C0
78
C0
80
C2
7E
ENDCHAR
STARTCHAR 1F74
ENCODING 8052
SWIDTH 540 0
DWIDTH 9 0
BBX 7 16 1 -3
BITMAP
20
30
18
00
7C
FE
C6
C2
C2
C2
C2
C2
C2
02
02
02
ENDCHAR
STARTCHAR 1F75
ENCODING 8053
SWIDTH 540 0
DWIDTH 9 0
BBX 7 16 1 -3
BITMAP
04
0C
30
00
7C
FE
C6
C2
C2
C2
C2
C2
C2
02
02
02
ENDCHAR
STARTCHAR 1F76
ENCODING 8054
SWIDTH 240 0
DWIDTH 4 0
BBX 4 13 0 0
BITMAP
80
C0
20
00
60
60
60
60
60
60
60
60
30
ENDCHAR
STARTCHAR 1F77
ENCODING 8055
SWIDTH 240 0
DWIDTH 4 0
BBX 3 13 1 0
BITMAP
20
60
C0
00
C0
C0
C0
C0
C0
C0
C0
C0
60
ENDCHAR
STARTCHAR 1F78
ENCODING 8056
SWIDTH 540 0
DWIDTH 9 0
BBX 8 13 1 0
BITMAP
20
30
08
00
3C
7E
C3
C3
83
C3
C3
66
3C
ENDCHAR
STARTCHAR 1F79
ENCODING 8057
SWIDTH 540 0
DWIDTH 9 0
BBX 8 13 1 0
BITMAP
04
0C
10
00
3C
7E
C3
C3
83
C3
C3
66
3C
ENDCHAR
STARTCHAR 1F7A
ENCODING 8058
SWIDTH 540 0
DWIDTH 9 0
BBX 7 13 1 0
BITMAP
20
30
18
00
C2
C2
C2
C2
C2
C2
C2
66
7C
ENDCHAR
STARTCHAR 1F7B
ENCODING 8059
SWIDTH 540 0
DWIDTH 9 0
BBX 7 12 1 1
BITMAP
0C
30
00
C2
C2
C2
C2
C2
C2
C2
66
7C
ENDCHAR
STARTCHAR 1F7C
ENCODING 8060
SWIDTH 780 0
DWIDTH 13 0
BBX 12 13 1 0
BITMAP
0800
0C00
0200
0000
6060
4020
C630
C630
C630
C630
C630
CF60
79E0
ENDCHAR
STARTCHAR 1F7D
ENCODING 8061
SWIDTH 780 0
DWIDTH 13 0
BBX 12 13 1 0
BITMAP
0100
0300
0400
0000
6060
4020
C630
C630
C630
C630
C630
CF60
79E0
ENDCHAR
STARTCHAR 1F80
ENCODING 8064
SWIDTH 600 0
DWIDTH 10 0
BBX 9 16 1 -3
BITMAP
1800
0800
1800
0000
3E00
7E00
C200
C200
8200
C200
C200
6700
3D80
0000
1800
0C00
ENDCHAR
STARTCHAR 1F81
ENCODING 8065
SWIDTH 600 0
DWIDTH 10 0
BBX 9 16 1 -3
BITMAP
1800
1000
1800
0000
3E00
7E00
C200
C200
8200
C200
C200
6700
3D80
0000
1800
0C00
ENDCHAR
STARTCHAR 1F82
ENCODING 8066
SWIDTH 600 0
DWIDTH 10 0
BBX 9 16 1 -3
BITMAP
2C00
2400
2600
0000
3E00
7E00
C200
C200
8200
C200
C200
6700
3D80
0000
1800
0C00
ENDCHAR
STARTCHAR 1F83
ENCODING 8067
SWIDTH 600 0
DWIDTH 10 0
BBX 9 16 1 -3
BITMAP
6800
6800
2400
0000
3E00
7E00
C200
C200
8200
C200
C200
6700
3D80
0000
1800
0C00
ENDCHAR
STARTCHAR 1F84
ENCODING 8068
SWIDTH 600 0
DWIDTH 10 0
BBX 9 16 1 -3
BITMAP
3200
1600
3400
0000
3E00
7E00
C200
C200
8200
C200
C200
6700
3D80
0000
1800
0C00
ENDCHAR
STARTCHAR 1F85
ENCODING 8069
SWIDTH 600 0
DWIDTH 10 0
BBX 9 16 1 -3
BITMAP
6600
6400
2C00
0000
3E00
7E00
C200
C200
8200
C200
C200
6700
3D80
0000
1800
0C00
ENDCHAR
STARTCHAR 1F86
ENCODING 8070
SWIDTH 600 0
DWIDTH 10 0
BBX 9 18 1 -3
BITMAP
1800
2400
0000
1800
1000
0000
3E00
7E00
C200
C200
8200
C200
C200
6700
3D80
0000
1800
0C00
ENDCHAR
STARTCHAR 1F87
ENCODING 8071
SWIDTH 600 0
DWIDTH 10 0
BBX 9 18 1 -3
BITMAP
1800
2400
0000
1800
0800
0000
3E00
7E00
C200
C200
8200
C200
C200
6700
3D80
0000
1800
0C00
ENDCHAR
STARTCHAR 1F88
ENCODING 8072
SWIDTH 900 0
DWIDTH 15 0
BBX 15 12 0 0
BITMAP
2400
6E00
2A00
5B0C
1B0C
110C
318C
208C
7FCC
60CC
404C
C066
ENDCHAR
STARTCHAR 1F89
ENCODING 8073
SWIDTH 900 0
DWIDTH 15 0
BBX 15 12 0 0
BITMAP
4400
4E00
4A00
3B0C
1B0C
110C
318C
208C
7FCC
60CC
404C
C066
ENDCHAR
STARTCHAR 1F8A
ENCODING 8074
SWIDTH 1020 0
DWIDTH 17 0
BBX 17 12 0 0
BITMAP
810000
D38000
9A8000
06C300
06C300
044300
0C6300
082300
1FF300
183300
101300
301980
ENDCHAR
STARTCHAR 1F8B
ENCODING 8075
SWIDTH 1020 0
DWIDTH 17 0
BBX 18 12 -1 0
BITMAP
518000
D98000
49C000
034180
026180
062180
043180
043180
0FF180
081980
181980
1808C0
ENDCHAR
STARTCHAR 1F8C
ENCODING 8076
SWIDTH 960 0
DWIDTH 16 0
BBX 16 12 0 0
BITMAP
9200
D700
A500
2D86
0D86
08C6
18C6
1046
3FE6
3066
2022
6033
ENDCHAR
STARTCHAR 1F8D
ENCODING 8077
SWIDTH 1020 0
DWIDTH 17 0
BBX 18 12 -1 0
BITMAP
418000
CD8000
5BC000
02C100
066100
066100
042100
0C3100
0FF100
081100
181980
1019C0
ENDCHAR
STARTCHAR 1F8E
ENCODING 8078
SWIDTH 900 0
DWIDTH 15 0
BBX 16 13 -1 0
BITMAP
7000
8A00
2700
2500
6D86
0D86
0886
18C6
1046
3FE6
3066
2026
6033
ENDCHAR
STARTCHAR 1F8F
ENCODING 8079
SWIDTH 900 0
DWIDTH 15 0
BBX 16 13 -1 0
BITMAP
7000
8A00
2700
2700
3582
0C82
08C2
18C2
1842
1FE2
3062
3032
6033
ENDCHAR
STARTCHAR 1F90
ENCODING 8080
SWIDTH 540 0
DWIDTH 9 0
BBX 7 16 1 -3
BITMAP
18
18
10
00
7C
FE
C6
C2
C2
C2
C2
C2
C2
02
C2
62
ENDCHAR
STARTCHAR 1F91
ENCODING 8081
SWIDTH 540 0
DWIDTH 9 0
BBX 7 16 1 -3
BITMAP
10
10
18
00
7C
FE
C6
C2
C2
C2
C2
C2
C2
02
C2
62
ENDCHAR
STARTCHAR 1F92
ENCODING 8082
SWIDTH 540 0
DWIDTH 9 0
BBX 7 16 1 -3
BITMAP
28
2C
66
00
7C
FE
C6
C2
C2
C2
C2
C2
C2
02
C2
62
ENDCHAR
STARTCHAR 1F93
ENCODING 8083
SWIDTH 540 0
DWIDTH 9 0
BBX 7 16 1 -3
BITMAP
68
48
64
00
7C
FE
C6
C2
C2
C2
C2
C2
C2
02
C2
62
ENDCHAR
STARTCHAR 1F94
ENCODING 8084
SWIDTH 540 0
DWIDTH 9 0
BBX 7 16 1 -3
BITMAP
32
36
2C
00
7C
FE
C6
C2
C2
C2
C2
C2
C2
02
C2
62
ENDCHAR
STARTCHAR 1F95
ENCODING 8085
SWIDTH 540 0
DWIDTH 9 0
BBX 7 16 1 -3
BITMAP
64
64
28
00
7C
FE
C6
C2
C2
C2
C2
C2
C2
02
C2
62
ENDCHAR
STARTCHAR 1F96
ENCODING 8086
SWIDTH 540 0
DWIDTH 9 0
BBX 7 18 1 -3
BITMAP
18
24
00
18
10
00
7C
FE
C6
C2
C2
C2
C2
C2
C2
02
C2
62
ENDCHAR
STARTCHAR 1F97
ENCODING 8087
SWIDTH 540 0
DWIDTH 9 0
BBX 7 18 1 -3
BITMAP
18
24
00
18
18
00
7C
FE
C6
C2
C2
C2
C2
C2
C2
02
C2
62
ENDCHAR
STARTCHAR 1F98
ENCODING 8088
SWIDTH 1020 0
DWIDTH 17 0
BBX 17 12 0 0
BITMAP
B02000
F02000
B02000
302300
302300
3FE300
3FE300
302300
302300
302300
302300
302180
ENDCHAR
STARTCHAR 1F99
ENCODING 8089
SWIDTH 1020 0
DWIDTH 17 0
BBX 18 12 -1 0
BITMAP
581000
D81000
581000
181180
181180
1FF180
1FF180
181180
181180
181180
181180
1810C0
ENDCHAR
STARTCHAR 1F9A
ENCODING 8090
SWIDTH 1200 0
DWIDTH 20 0
BBX 20 12 0 0
BITMAP
820600
D20600
9A0600
020660
020660
03FE60
03FE60
020660
020660
020660
020660
020630
ENDCHAR
STARTCHAR 1F9B
ENCODING 8091
SWIDTH 1200 0
DWIDTH 20 0
BBX 21 12 -1 0
BITMAP
530200
DB0200
4B0200
030230
030230
03FE30
03FE30
030230
030230
030230
030230
030218
ENDCHAR
STARTCHAR 1F9C
ENCODING 8092
SWIDTH 1200 0
DWIDTH 20 0
BBX 20 12 0 0
BITMAP
960400
D60400
A60400
260460
060460
07FC60
07FC60
060460
060460
060460
060460
060430
ENDCHAR
STARTCHAR 1F9D
ENCODING 8093
SWIDTH 1200 0
DWIDTH 20 0
BBX 21 12 -1 0
BITMAP
410300
CD0300
590300
010330
010330
01FF30
01FF30
010330
010330
010330
010330
010318
ENDCHAR
STARTCHAR 1F9E
ENCODING 8094
SWIDTH 1140 0
DWIDTH 19 0
BBX 20 13 -1 0
BITMAP
700000
8E0400
260400
260400
660460
060460
07FC60
07FC60
060460
060460
060460
060460
060430
ENDCHAR
STARTCHAR 1F9F
ENCODING 8095
SWIDTH 1140 0
DWIDTH 19 0
BBX 20 13 -1 0
BITMAP
700000
8E0400
260400
260400
360460
060460
07FC60
07FC60
060460
060460
060460
060460
060430
ENDCHAR
STARTCHAR 1FA0
ENCODING 8096
SWIDTH 780 0
DWIDTH 13 0
BBX 12 16 1 -3
BITMAP
0600
0200
0600
0000
6060
4020
C630
C630
C630
C630
C630
CF60
79E0
0000
0600
0300
ENDCHAR
STARTCHAR 1FA1
ENCODING 8097
SWIDTH 780 0
DWIDTH 13 0
BBX 12 16 1 -3
BITMAP
0600
0400
0600
0000
6060
4020
C630
C630
C630
C630
C630
CF60
79E0
0000
0600
0300
ENDCHAR
STARTCHAR 1FA2
ENCODING 8098
SWIDTH 780 0
DWIDTH 13 0
BBX 12 16 1 -3
BITMAP
0A00
0900
0980
0000
6060
4020
C630
C630
C630
C630
C630
CF60
79E0
0000
0600
0300
ENDCHAR
STARTCHAR 1FA3
ENCODING 8099
SWIDTH 780 0
DWIDTH 13 0
BBX 12 16 1 -3
BITMAP
1A00
1A00
0900
0000
6060
4020
C630
C630
C630
C630
C630
CF60
79E0
0000
0600
0300
ENDCHAR
STARTCHAR 1FA4
ENCODING 8100
SWIDTH 780 0
DWIDTH 13 0
BBX 12 16 1 -3
BITMAP
0C80
0580
0F00
0000
6060
4020
C630
C630
C630
C630
C630
CF60
79E0
0000
0600
0300
ENDCHAR
STARTCHAR 1FA5
ENCODING 8101
SWIDTH 780 0
DWIDTH 13 0
BBX 12 16 1 -3
BITMAP
1980
1900
0B00
0000
6060
4020
C630
C630
C630
C630
C630
CF60
79E0
0000
0600
0300
ENDCHAR
STARTCHAR 1FA6
ENCODING 8102
SWIDTH 780 0
DWIDTH 13 0
BBX 12 18 1 -3
BITMAP
0600
0900
0000
0600
0400
0000
6060
4020
C630
C630
C630
C630
C630
CF60
79E0
0000
0600
0300
ENDCHAR
STARTCHAR 1FA7
ENCODING 8103
SWIDTH 780 0
DWIDTH 13 0
BBX 12 18 1 -3
BITMAP
0600
0900
0000
0600
0200
0000
6060
4020
C630
C630
C630
C630
C630
CF60
79E0
0000
0600
0300
ENDCHAR
STARTCHAR 1FA8
ENCODING 8104
SWIDTH 1020 0
DWIDTH 17 0
BBX 17 12 0 0
BITMAP
878000
DFC000
B06000
203100
603100
603100
603100
603100
302100
306100
18C100
78F180
ENDCHAR
STARTCHAR 1FA9
ENCODING 8105
SWIDTH 1080 0
DWIDTH 18 0
BBX 19 12 -1 0
BITMAP
43C000
C7F000
4C1800
1818C0
180CC0
180CC0
180CC0
1808C0
1818C0
0C10C0
0630C0
1E7C60
ENDCHAR
STARTCHAR 1FAA
ENCODING 8106
SWIDTH 1260 0
DWIDTH 21 0
BBX 21 12 0 0
BITMAP
80F000
D1FC00
9B0600
060230
060330
060330
060330
060330
020230
030630
018C30
078F18
ENDCHAR
STARTCHAR 1FAB
ENCODING 8107
SWIDTH 1260 0
DWIDTH 21 0
BBX 22 12 -1 0
BITMAP
507800
D9FE00
498300
030318
030118
020198
020198
030118
030318
018218
00C618
07CF8C
ENDCHAR
STARTCHAR 1FAC
ENCODING 8108
SWIDTH 1200 0
DWIDTH 20 0
BBX 20 12 0 0
BITMAP
91E000
D3F800
A60C00
2C0C60
0C0460
080660
0C0660
0C0460
0C0C60
060860
031860
0F3E30
ENDCHAR
STARTCHAR 1FAD
ENCODING 8109
SWIDTH 1200 0
DWIDTH 20 0
BBX 21 12 -1 0
BITMAP
407800
CDFC00
5B0600
020310
060310
060310
060310
060310
020210
030610
018C10
078F18
ENDCHAR
STARTCHAR 1FAE
ENCODING 8110
SWIDTH 1140 0
DWIDTH 19 0
BBX 20 13 -1 0
BITMAP
700000
89E000
27F800
2C1800
6C0C40
080440
080440
080440
080C40
0C0C40
040840
021060
1F3E70
ENDCHAR
STARTCHAR 1FAF
ENCODING 8111
SWIDTH 1140 0
DWIDTH 19 0
BBX 20 13 -1 0
BITMAP
700000
89E000
23F800
260C00
3C0460
0C0660
0C0660
0C0660
0C0660
040460
060C60
031860
0F1E30
ENDCHAR
STARTCHAR 1FB0
ENCODING 8112
SWIDTH 600 0
DWIDTH 10 0
BBX 9 12 1 0
BITMAP
2400
1800
0000
3E00
7E00
C200
C200
8200
C200
C200
6700
3D80
ENDCHAR
STARTCHAR 1FB1
ENCODING 8113
SWIDTH 600 0
DWIDTH 10 0
BBX 9 12 1 0
BITMAP
3C00
0000
0000
3E00
7E00
C200
C200
8200
C200
C200
6700
3D80
ENDCHAR
STARTCHAR 1FB2
ENCODING 8114
SWIDTH 600 0
DWIDTH 10 0
BBX 9 16 1 -3
BITMAP
2000
3000
0800
0000
3E00
7E00
C200
C200
8200
C200
C200
6700
3D80
0000
1800
0C00
ENDCHAR
STARTCHAR 1FB3
ENCODING 8115
SWIDTH 600 0
DWIDTH 10 0
BBX 9 12 1 -3
BITMAP
3E00
7E00
C200
C200
8200
C200
C200
6700
3D80
0000
1800
0C00
ENDCHAR
STARTCHAR 1FB4
ENCODING 8116
SWIDTH 600 0
DWIDTH 10 0
BBX 9 16 1 -3
BITMAP
0400
0C00
1000
0000
3E00
7E00
C200
C200
8200
C200
C200
6700
3D80
0000
1800
0C00
ENDCHAR
STARTCHAR 1FB6
ENCODING 8118
SWIDTH 600 0
DWIDTH 10 0
BBX 9 12 1 0
BITMAP
3C00
2400
0000
3E00
7E00
C200
C200
8200
C200
C200
6700
3D80
ENDCHAR
STARTCHAR 1FB7
ENCODING 8119
SWIDTH 600 0
DWIDTH 10 0
BBX 9 15 1 -3
BITMAP
3C00
2400
0000
3E00
7E00
C200
C200
8200
C200
C200
6700
3D80
0000
1800
0C00
ENDCHAR
STARTCHAR 1FB8
ENCODING 8120
SWIDTH 660 0
DWIDTH 11 0
BBX 11 15 0 0
BITMAP
1100
0E00
0000
0400
0E00
0A00
1B00
1B00
1100
3180
2080
7FC0
60C0
4040
C060
ENDCHAR
STARTCHAR 1FB9
ENCODING 8121
SWIDTH 660 0
DWIDTH 11 0
BBX 11 14 0 0
BITMAP
1F00
0000
0400
0E00
0A00
1B00
1B00
1100
3180
2080
7FC0
60C0
4040
C060
ENDCHAR
STARTCHAR 1FBA
ENCODING 8122
SWIDTH 660 0
DWIDTH 11 0
BBX 11 12 0 0
BITMAP
8400
CE00
4A00
1B00
1B00
1100
3180
2080
7FC0
60C0
4040
C060
ENDCHAR
STARTCHAR 1FBB
ENCODING 8123
SWIDTH 660 0
DWIDTH 11 0
BBX 11 12 0 0
BITMAP
2400
6E00
4A00
1B00
1B00
1100
3180
2080
7FC0
60C0
4040
C060
ENDCHAR
STARTCHAR 1FBC
ENCODING 8124
SWIDTH 900 0
DWIDTH 15 0
BBX 15 12 0 0
BITMAP
0400
0E00
0A00
1B0C
1B0C
110C
318C
208C
7FCC
60CC
404C
C066
ENDCHAR
STARTCHAR 1FBD
ENCODING 8125
SWIDTH 360 0
DWIDTH 6 0
BBX 2 3 2 10
BITMAP
40
40
C0
ENDCHAR
STARTCHAR 1FBE
ENCODING 8126
SWIDTH 240 0
DWIDTH 4 0
BBX 2 2 2 -3
BITMAP
80
C0
ENDCHAR
STARTCHAR 1FBF
ENCODING 8127
SWIDTH 360 0
DWIDTH 6 0
BBX 2 3 2 10
BITMAP
40
40
C0
ENDCHAR
STARTCHAR 1FC0
ENCODING 8128
SWIDTH 360 0
DWIDTH 6 0
BBX 4 2 1 10
BITMAP
F0
90
ENDCHAR
STARTCHAR 1FC1
ENCODING 8129
SWIDTH 360 0
DWIDTH 6 0
BBX 5 4 1 10
BITMAP
F0
90
90
98
ENDCHAR
STARTCHAR 1FC2
ENCODING 8130
SWIDTH 540 0
DWIDTH 9 0
BBX 7 16 1 -3
BITMAP
20
30
18
00
7C
FE
C6
C2
C2
C2
C2
C2
C2
02
C2
62
ENDCHAR
STARTCHAR 1FC3
ENCODING 8131
SWIDTH 540 0
DWIDTH 9 0
BBX 7 12 1 -3
BITMAP
7C
FE
C6
C2
C2
C2
C2
C2
C2
02
C2
62
ENDCHAR
STARTCHAR 1FC4
ENCODING 8132
SWIDTH 540 0
DWIDTH 9 0
BBX 7 16 1 -3
BITMAP
04
0C
30
00
7C
FE
C6
C2
C2
C2
C2
C2
C2
02
C2
62
ENDCHAR
STARTCHAR 1FC6
ENCODING 8134
SWIDTH 540 0
DWIDTH 9 0
BBX 7 15 1 -3
BITMAP
3C
24
00
7C
FE
C6
C2
C2
C2
C2
C2
C2
02
02
02
ENDCHAR
STARTCHAR 1FC7
ENCODING 8135
SWIDTH 540 0
DWIDTH 9 0
BBX 7 15 1 -3
BITMAP
3C
24
00
7C
FE
C6
C2
C2
C2
C2
C2
C2
02
C2
62
ENDCHAR
STARTCHAR 1FC8
ENCODING 8136
SWIDTH 660 0
DWIDTH 11 0
BBX 11 12 0 0
BITMAP
9FE0
9FE0
5800
1800
1800
1FC0
1FC0
1800
1800
1800
1800
1FE0
ENDCHAR
STARTCHAR 1FC9
ENCODING 8137
SWIDTH 660 0
DWIDTH 11 0
BBX 11 12 0 0
BITMAP
5FE0
5FE0
9800
1800
1800
1FC0
1FC0
1800
1800
1800
1800
1FE0
ENDCHAR
STARTCHAR 1FCA
ENCODING 8138
SWIDTH 780 0
DWIDTH 13 0
BBX 12 12 0 0
BITMAP
9810
9810
5810
1810
1810
1FF0
1FF0
1810
1810
1810
1810
1810
ENDCHAR
STARTCHAR 1FCB
ENCODING 8139
SWIDTH 780 0
DWIDTH 13 0
BBX 12 12 0 0
BITMAP
5810
5810
9810
1810
1810
1FF0
1FF0
1810
1810
1810
1810
1810
ENDCHAR
STARTCHAR 1FCC
ENCODING 8140
SWIDTH 960 0
DWIDTH 16 0
BBX 15 12 1 0
BITMAP
C080
C080
C080
C08C
C08C
FF8C
FF8C
C08C
C08C
C08C
C08C
C086
ENDCHAR
STARTCHAR 1FCD
ENCODING 8141
SWIDTH 360 0
DWIDTH 6 0
BBX 5 3 1 10
BITMAP
B0
90
98
ENDCHAR
STARTCHAR 1FCE
ENCODING 8142
SWIDTH 360 0
DWIDTH 6 0
BBX 4 3 1 10
BITMAP
D0
D0
A0
ENDCHAR
STARTCHAR 1FCF
ENCODING 8143
SWIDTH 360 0
DWIDTH 6 0
BBX 4 5 1 10
BITMAP
60
90
00
60
60
ENDCHAR
STARTCHAR 1FD0
ENCODING 8144
SWIDTH 240 0
DWIDTH 4 0
BBX 4 12 0 0
BITMAP
90
60
00
60
60
60
60
60
60
60
60
30
ENDCHAR
STARTCHAR 1FD1
ENCODING 8145
SWIDTH 240 0
DWIDTH 4 0
BBX 4 12 0 0
BITMAP
F0
00
00
60
60
60
60
60
60
60
60
30
ENDCHAR
STARTCHAR 1FD2
ENCODING 8146
SWIDTH 240 0
DWIDTH 4 0
BBX 6 13 -1 0
BITMAP
20
F4
94
00
30
30
30
30
30
30
30
30
18
ENDCHAR
STARTCHAR 1FD3
ENCODING 8147
SWIDTH 240 0
DWIDTH 4 0
BBX 6 13 -1 0
BITMAP
10
D4
A4
00
30
30
30
30
30
30
30
30
18
ENDCHAR
STARTCHAR 1FD6
ENCODING 8150
SWIDTH 240 0
DWIDTH 4 0
BBX 4 12 0 0
BITMAP
F0
90
00
60
60
60
60
60
60
60
60
30
ENDCHAR
STARTCHAR 1FD7
ENCODING 8151
SWIDTH 240 0
DWIDTH 4 0
BBX 5 14 0 0
BITMAP
F0
90
90
98
00
60
60
60
60
60
60
60
60
30
ENDCHAR
STARTCHAR 1FD8
ENCODING 8152
SWIDTH 240 0
DWIDTH 4 0
BBX 4 15 0 0
BITMAP
90
70
00
60
60
60
60
60
60
60
60
60
60
60
60
ENDCHAR
STARTCHAR 1FD9
ENCODING 8153
SWIDTH 240 0
DWIDTH 4 0
BBX 5 14 0 0
BITMAP
F8
00
60
60
60
60
60
60
60
60
60
60
60
60
ENDCHAR
STARTCHAR 1FDA
ENCODING 8154
SWIDTH 360 0
DWIDTH 6 0
BBX 5 12 0 0
BITMAP
98
98
58
18
18
18
18
18
18
18
18
18
ENDCHAR
STARTCHAR 1FDB
ENCODING 8155
SWIDTH 360 0
DWIDTH 6 0
BBX 5 12 0 0
BITMAP
58
58
98
18
18
18
18
18
18
18
18
18
ENDCHAR
STARTCHAR 1FDD
ENCODING 8157
SWIDTH 360 0
DWIDTH 6 0
BBX 5 3 1 10
BITMAP
A0
B0
98
ENDCHAR
STARTCHAR 1FDE
ENCODING 8158
SWIDTH 360 0
DWIDTH 6 0
BBX 6 3 0 10
BITMAP
CC
C8
58
ENDCHAR
STARTCHAR 1FDF
ENCODING 8159
SWIDTH 360 0
DWIDTH 6 0
BBX 4 5 1 10
BITMAP
60
90
00
60
20
ENDCHAR
STARTCHAR 1FE0
ENCODING 8160
SWIDTH 540 0
DWIDTH 9 0
BBX 7 12 1 0
BITMAP
24
18
00
C2
C2
C2
C2
C2
C2
C2
66
7C
ENDCHAR
STARTCHAR 1FE1
ENCODING 8161
SWIDTH 540 0
DWIDTH 9 0
BBX 7 12 1 0
BITMAP
7C
00
00
C2
C2
C2
C2
C2
C2
C2
66
7C
ENDCHAR
STARTCHAR 1FE2
ENCODING 8162
SWIDTH 540 0
DWIDTH 9 0
BBX 7 13 1 0
BITMAP
10
56
4A
00
C2
C2
C2
C2
C2
C2
C2
66
7C
ENDCHAR
STARTCHAR 1FE3
ENCODING 8163
SWIDTH 540 0
DWIDTH 9 0
BBX 7 13 1 0
BITMAP
08
5E
52
00
C2
C2
C2
C2
C2
C2
C2
66
7C
ENDCHAR
STARTCHAR 1FE4
ENCODING 8164
SWIDTH 540 0
DWIDTH 9 0
BBX 8 16 1 -3
BITMAP
18
08
18
00
3C
7E
C3
C3
C3
C3
C3
C6
FC
C0
C0
C0
ENDCHAR
STARTCHAR 1FE5
ENCODING 8165
SWIDTH 540 0
DWIDTH 9 0
BBX 8 16 1 -3
BITMAP
18
10
18
00
3C
7E
C3
C3
C3
C3
C3
C6
FC
C0
C0
C0
ENDCHAR
STARTCHAR 1FE6
ENCODING 8166
SWIDTH 540 0
DWIDTH 9 0
BBX 7 12 1 0
BITMAP
3C
24
00
C2
C2
C2
C2
C2
C2
C2
66
7C
ENDCHAR
STARTCHAR 1FE7
ENCODING 8167
SWIDTH 540 0
DWIDTH 9 0
BBX 7 14 1 0
BITMAP
3C
04
24
64
00
C2
C2
C2
C2
C2
C2
C2
66
7C
ENDCHAR
STARTCHAR 1FE8
ENCODING 8168
SWIDTH 540 0
DWIDTH 9 0
BBX 10 15 0 0
BITMAP
1200
1E00
0000
C0C0
6080
6180
3300
3300
1E00
0C00
0C00
0C00
0C00
0C00
0C00
ENDCHAR
STARTCHAR 1FE9
ENCODING 8169
SWIDTH 540 0
DWIDTH 9 0
BBX 10 14 0 0
BITMAP
1E00
0000
C0C0
6080
6180
3300
3300
1E00
0C00
0C00
0C00
0C00
0C00
0C00
ENDCHAR
STARTCHAR 1FEA
ENCODING 8170
SWIDTH 720 0
DWIDTH 12 0
BBX 12 12 0 0
BITMAP
B030
9830
4860
0C60
06C0
0680
0380
0100
0100
0100
0100
0100
ENDCHAR
STARTCHAR 1FEB
ENCODING 8171
SWIDTH 780 0
DWIDTH 13 0
BBX 13 12 0 0
BITMAP
5818
4C10
8C30
0620
0660
03C0
0180
0180
0180
0180
0180
0180
ENDCHAR
STARTCHAR 1FEC
ENCODING 8172
SWIDTH 660 0
DWIDTH 11 0
BBX 12 12 -1 0
BITMAP
4F00
DFE0
5860
1830
1830
1860
1FE0
1F80
1800
1800
1800
1800
ENDCHAR
STARTCHAR 1FED
ENCODING 8173
SWIDTH 360 0
DWIDTH 6 0
BBX 6 3 0 10
BITMAP
20
F4
94
ENDCHAR
STARTCHAR 1FEE
ENCODING 8174
SWIDTH 360 0
DWIDTH 6 0
BBX 6 3 0 10
BITMAP
10
D4
A4
ENDCHAR
STARTCHAR 1FEF
ENCODING 8175
SWIDTH 360 0
DWIDTH 6 0
BBX 3 3 1 10
BITMAP
80
C0
20
ENDCHAR
STARTCHAR 1FF2
ENCODING 8178
SWIDTH 780 0
DWIDTH 13 0
BBX 12 16 1 -3
BITMAP
0800
0C00
0200
0000
6060
4020
C630
C630
C630
C630
C630
CF60
79E0
0000
0600
0300
ENDCHAR
STARTCHAR 1FF3
ENCODING 8179
SWIDTH 780 0
DWIDTH 13 0
BBX 12 12 1 -3
BITMAP
6060
4020
C630
C630
C630
C630
C630
CF60
79E0
0000
0600
0300
ENDCHAR
STARTCHAR 1FF4
ENCODING 8180
SWIDTH 780 0
DWIDTH 13 0
BBX 12 16 1 -3
BITMAP
0100
0300
0400
0000
6060
4020
C630
C630
C630
C630
C630
CF60
79E0
0000
0600
0300
ENDCHAR
STARTCHAR 1FF6
ENCODING 8182
SWIDTH 780 0
DWIDTH 13 0
BBX 12 12 1 0
BITMAP
0F00
0900
0000
6060
4020
C630
C630
C630
C630
C630
CF60
79E0
ENDCHAR
STARTCHAR 1FF7
ENCODING 8183
SWIDTH 780 0
DWIDTH 13 0
BBX 12 15 1 -3
BITMAP
0F00
0900
0000
6060
4020
C630
C630
C630
C630
C630
CF60
79E0
0000
0600
0300
ENDCHAR
STARTCHAR 1FF8
ENCODING 8184
SWIDTH 840 0
DWIDTH 14 0
BBX 14 12 0 0
BITMAP
83C0
87F0
4C18
1818
180C
100C
100C
180C
1808
1818
0E30
07E0
ENDCHAR
STARTCHAR 1FF9
ENCODING 8185
SWIDTH 780 0
DWIDTH 13 0
BBX 13 12 0 0
BITMAP
4780
4FE0
9830
3010
3018
3018
3018
3018
3018
1830
1C70
07C0
ENDCHAR
STARTCHAR 1FFA
ENCODING 8186
SWIDTH 840 0
DWIDTH 14 0
BBX 14 12 0 0
BITMAP
83C0
87F0
4C18
1818
1808
100C
180C
1808
1818
0C10
0630
1E7C
ENDCHAR
STARTCHAR 1FFB
ENCODING 8187
SWIDTH 780 0
DWIDTH 13 0
BBX 13 12 0 0
BITMAP
4780
4FE0
9830
3010
3018
3018
3018
3018
1010
1830
0C60
3C78
ENDCHAR
STARTCHAR 1FFC
ENCODING 8188
SWIDTH 1020 0
DWIDTH 17 0
BBX 16 12 1 0
BITMAP
0E00
3F80
60C0
4066
C066
C066
C066
C066
4046
60C6
3182
F1E3
ENDCHAR
STARTCHAR 1FFD
ENCODING 8189
SWIDTH 360 0
DWIDTH 6 0
BBX 3 3 2 10
BITMAP
20
60
C0
ENDCHAR
STARTCHAR 1FFE
ENCODING 8190
SWIDTH 360 0
DWIDTH 6 0
BBX 2 3 2 10
BITMAP
C0
C0
40
ENDCHAR
STARTCHAR 2013
ENCODING 8211
SWIDTH 480 0
DWIDTH 8 0
BBX 8 2 0 4
BITMAP
FF
FF
ENDCHAR
STARTCHAR 2014
ENCODING 8212
SWIDTH 960 0
DWIDTH 16 0
BBX 17 2 0 4
BITMAP
FFFF80
FFFF80
ENDCHAR
STARTCHAR 2015
ENCODING 8213
SWIDTH 960 0
DWIDTH 16 0
BBX 17 2 0 4
BITMAP
FFFF80
FFFF80
ENDCHAR
STARTCHAR 2018
ENCODING 8216
SWIDTH 180 0
DWIDTH 3 0
BBX 2 4 1 9
BITMAP
40
40
C0
C0
ENDCHAR
STARTCHAR 2019
ENCODING 8217
SWIDTH 180 0
DWIDTH 3 0
BBX 2 4 1 8
BITMAP
C0
C0
C0
80
ENDCHAR
STARTCHAR 201A
ENCODING 8218
SWIDTH 180 0
DWIDTH 3 0
BBX 2 4 1 -2
BITMAP
C0
C0
C0
80
ENDCHAR
STARTCHAR 201C
ENCODING 8220
SWIDTH 360 0
DWIDTH 6 0
BBX 5 4 1 9
BITMAP
48
48
D8
D8
ENDCHAR
STARTCHAR 201D
ENCODING 8221
SWIDTH 360 0
DWIDTH 6 0
BBX 5 4 1 8
BITMAP
D8
D8
D8
90
ENDCHAR
STARTCHAR 201E
ENCODING 8222
SWIDTH 360 0
DWIDTH 6 0
BBX 5 4 1 -2
BITMAP
D8
D8
D8
90
ENDCHAR
STARTCHAR 2020
ENCODING 8224
SWIDTH 420 0
DWIDTH 7 0
BBX 6 14 1 -2
BITMAP
30
30
30
30
FC
30
30
30
30
30
30
30
30
20
ENDCHAR
STARTCHAR 2021
ENCODING 8225
SWIDTH 420 0
DWIDTH 7 0
BBX 6 14 1 -2
BITMAP
30
30
30
30
FC
30
30
30
FC
FC
30
30
30
20
ENDCHAR
STARTCHAR 2022
ENCODING 8226
SWIDTH 360 0
DWIDTH 6 0
BBX 4 4 1 4
BITMAP
60
F0
F0
F0
ENDCHAR
STARTCHAR 2026
ENCODING 8230
SWIDTH 960 0
DWIDTH 16 0
BBX 13 2 2 0
BITMAP
C618
C618
ENDCHAR
STARTCHAR 2030
ENCODING 8240
SWIDTH 1200 0
DWIDTH 20 0
BBX 19 12 1 0
BITMAP
704000
D8C000
888000
890000
8B0000
720000
06E180
049240
0D9660
091660
199240
30F3C0
ENDCHAR
STARTCHAR 2039
ENCODING 8249
SWIDTH 240 0
DWIDTH 4 0
BBX 3 7 1 1
BITMAP
60
40
C0
80
C0
60
20
ENDCHAR
STARTCHAR 203A
ENCODING 8250
SWIDTH 240 0
DWIDTH 4 0
BBX 3 7 1 1
BITMAP
80
C0
60
60
40
C0
80
ENDCHAR
STARTCHAR 2044
ENCODING 8260
SWIDTH 120 0
DWIDTH 2 0
BBX 7 12 -2 0
BITMAP
02
06
04
08
18
10
30
20
60
40
C0
80
ENDCHAR
STARTCHAR 2070
ENCODING 8304
SWIDTH 300 0
DWIDTH 5 0
BBX 5 7 0 5
BITMAP
30
48
48
C8
48
48
30
ENDCHAR
STARTCHAR 2074
ENCODING 8308
SWIDTH 300 0
DWIDTH 5 0
BBX 6 7 0 5
BITMAP
18
18
28
48
FC
08
08
ENDCHAR
STARTCHAR 2075
ENCODING 8309
SWIDTH 300 0
DWIDTH 5 0
BBX 4 7 1 5
BITMAP
F0
80
80
F0
10
10
E0
ENDCHAR
STARTCHAR 2076
ENCODING 8310
SWIDTH 300 0
DWIDTH 5 0
BBX 4 7 1 5
BITMAP
30
60
80
F0
90
90
70
ENDCHAR
STARTCHAR 2077
ENCODING 8311
SWIDTH 300 0
DWIDTH 5 0
BBX 4 7 1 5
BITMAP
F0
10
20
20
40
40
40
ENDCHAR
STARTCHAR 2078
ENCODING 8312
SWIDTH 300 0
DWIDTH 5 0
BBX 4 7 1 5
BITMAP
60
90
90
70
90
90
F0
ENDCHAR
STARTCHAR 2079
ENCODING 8313
SWIDTH 300 0
DWIDTH 5 0
BBX 4 7 1 5
BITMAP
60
90
90
F0
10
30
C0
ENDCHAR
STARTCHAR 2080
ENCODING 8320
SWIDTH 300 0
DWIDTH 5 0
BBX 5 7 0 0
BITMAP
30
78
48
C8
48
48
78
ENDCHAR
STARTCHAR 2081
ENCODING 8321
SWIDTH 300 0
DWIDTH 5 0
BBX 3 6 1 0
BITMAP
60
A0
20
20
20
20
ENDCHAR
STARTCHAR 2082
ENCODING 8322
SWIDTH 300 0
DWIDTH 5 0
BBX 4 7 1 0
BITMAP
60
B0
10
20
40
80
F0
ENDCHAR
STARTCHAR 2083
ENCODING 8323
SWIDTH 300 0
DWIDTH 5 0
BBX 4 7 1 0
BITMAP
40
B0
10
60
10
10
F0
ENDCHAR
STARTCHAR 2084
ENCODING 8324
SWIDTH 300 0
DWIDTH 5 0
BBX 5 6 1 0
BITMAP
30
50
90
F8
10
10
ENDCHAR
STARTCHAR 2085
ENCODING 8325
SWIDTH 300 0
DWIDTH 5 0
BBX 4 6 1 0
BITMAP
F0
80
E0
10
10
F0
ENDCHAR
STARTCHAR 2086
ENCODING 8326
SWIDTH 300 0
DWIDTH 5 0
BBX 4 6 1 0
BITMAP
70
80
F0
90
90
F0
ENDCHAR
STARTCHAR 2087
ENCODING 8327
SWIDTH 300 0
DWIDTH 5 0
BBX 4 6 1 0
BITMAP
F0
30
20
40
40
40
ENDCHAR
STARTCHAR 2088
ENCODING 8328
SWIDTH 300 0
DWIDTH 5 0
BBX 4 7 1 0
BITMAP
60
90
90
F0
90
90
F0
ENDCHAR
STARTCHAR 2089
ENCODING 8329
SWIDTH 300 0
DWIDTH 5 0
BBX 4 7 1 0
BITMAP
60
B0
90
90
70
30
E0
ENDCHAR
STARTCHAR 20AC
ENCODING 8364
SWIDTH 540 0
DWIDTH 9 0
BBX 8 12 1 0
BITMAP
0F
1F
30
60
FE
60
60
FC
60
20
30
1F
ENDCHAR
STARTCHAR 20AE
ENCODING 8366
SWIDTH 540 0
DWIDTH 9 0
BBX 8 12 1 0
BITMAP
FF
FF
10
10
1E
38
50
16
38
70
10
10
ENDCHAR
STARTCHAR 20B4
ENCODING 8372
SWIDTH 540 0
DWIDTH 9 0
BBX 8 12 1 0
BITMAP
78
7E
06
02
FF
0C
38
FF
C0
C0
42
7E
ENDCHAR
STARTCHAR 20B9
ENCODING 8377
SWIDTH 540 0
DWIDTH 9 0
BBX 8 12 1 0
BITMAP
FF
FF
04
FF
04
0C
F8
C0
60
30
18
0C
ENDCHAR
STARTCHAR 2113
ENCODING 8467
SWIDTH 420 0
DWIDTH 7 0
BBX 7 13 0 0
BITMAP
1C
36
22
22
26
24
2C
38
30
60
A0
32
1E
ENDCHAR
STARTCHAR 2116
ENCODING 8470
SWIDTH 1080 0
DWIDTH 18 0
BBX 17 12 1 0
BITMAP
C08600
E09900
F09080
F09080
D89180
CC8F00
C48000
C68000
C29F80
C39F80
C18000
C08000
ENDCHAR
STARTCHAR 2122
ENCODING 8482
SWIDTH 720 0
DWIDTH 12 0
BBX 12 6 0 6
BITMAP
FA20
2230
2370
2750
2490
2410
ENDCHAR
STARTCHAR 2126
ENCODING 8486
SWIDTH 780 0
DWIDTH 13 0
BBX 11 12 1 0
BITMAP
0E00
3F80
60C0
4060
C060
C060
C060
C060
4040
60C0
3180
F1E0
ENDCHAR
STARTCHAR 212E
ENCODING 8494
SWIDTH 900 0
DWIDTH 15 0
BBX 13 12 1 0
BITMAP
0780
1860
2010
6018
E018
E018
FFE0
E000
6000
6000
2030
1FC0
ENDCHAR
STARTCHAR 2153
ENCODING 8531
SWIDTH 840 0
DWIDTH 14 0
BBX 13 12 1 0
BITMAP
20C0
E080
2180
2100
2300
2260
24D0
0C10
0870
1818
1018
30F0
ENDCHAR
STARTCHAR 2154
ENCODING 8532
SWIDTH 840 0
DWIDTH 14 0
BBX 13 12 1 0
BITMAP
E040
90C0
1080
2180
4300
8260
F6D0
0410
0C70
0818
1818
10F0
ENDCHAR
STARTCHAR 2155
ENCODING 8533
SWIDTH 840 0
DWIDTH 14 0
BBX 13 12 1 0
BITMAP
20C0
E080
2180
2100
2300
2200
2478
0C40
0870
1818
1008
30F0
ENDCHAR
STARTCHAR 2156
ENCODING 8534
SWIDTH 840 0
DWIDTH 14 0
BBX 13 12 1 0
BITMAP
E040
90C0
1080
2180
4100
8300
F278
0640
0C70
0818
1808
10F0
ENDCHAR
STARTCHAR 2157
ENCODING 8535
SWIDTH 840 0
DWIDTH 14 0
BBX 13 12 1 0
BITMAP
E040
30C0
3080
6180
1300
1200
E678
0440
0C70
0818
1808
10F0
ENDCHAR
STARTCHAR 2158
ENCODING 8536
SWIDTH 840 0
DWIDTH 14 0
BBX 14 12 0 0
BITMAP
1820
1860
2840
48C0
FC80
0980
093C
0220
0638
040C
0C04
0878
ENDCHAR
STARTCHAR 2159
ENCODING 8537
SWIDTH 840 0
DWIDTH 14 0
BBX 13 12 1 0
BITMAP
2040
E0C0
2080
2180
2300
2200
2678
0440
0CF8
0888
18C8
1070
ENDCHAR
STARTCHAR 215A
ENCODING 8538
SWIDTH 840 0
DWIDTH 14 0
BBX 13 12 1 0
BITMAP
F040
80C0
8080
F180
1100
1300
E278
0440
0CF8
0888
18C8
1070
ENDCHAR
STARTCHAR 215B
ENCODING 8539
SWIDTH 840 0
DWIDTH 14 0
BBX 13 12 1 0
BITMAP
20C0
E080
2180
2100
2300
2220
24D8
0CC8
0870
18D8
1088
3070
ENDCHAR
STARTCHAR 215C
ENCODING 8540
SWIDTH 840 0
DWIDTH 14 0
BBX 13 12 1 0
BITMAP
E040
30C0
3080
6180
1300
1220
E6D8
04C8
0C70
08D8
1888
1070
ENDCHAR
STARTCHAR 215D
ENCODING 8541
SWIDTH 840 0
DWIDTH 14 0
BBX 13 12 1 0
BITMAP
F040
80C0
8080
F180
1300
1220
E6D8
04C8
0C70
08D8
1888
1070
ENDCHAR
STARTCHAR 215E
ENCODING 8542
SWIDTH 840 0
DWIDTH 14 0
BBX 13 12 1 0
BITMAP
F0C0
1080
2100
2300
4200
4620
44D8
0CC8
0870
10D8
3088
2070
ENDCHAR
STARTCHAR 2202
ENCODING 8706
SWIDTH 540 0
DWIDTH 9 0
BBX 8 13 1 0
BITMAP
78
4E
06
03
03
7F
C3
C3
83
83
86
C6
7C
ENDCHAR
STARTCHAR 2206
ENCODING 8710
SWIDTH 600 0
DWIDTH 10 0
BBX 11 12 0 0
BITMAP
0400
0E00
0E00
1B00
1300
3100
3180
2180
60C0
60C0
4040
FFE0
ENDCHAR
STARTCHAR 220F
ENCODING 8719
SWIDTH 660 0
DWIDTH 11 0
BBX 9 14 1 -2
BITMAP
FF80
FF80
C080
C080
C080
C080
C080
C080
C080
C080
C080
C080
C080
C080
ENDCHAR
STARTCHAR 2211
ENCODING 8721
SWIDTH 480 0
DWIDTH 8 0
BBX 8 14 0 -2
BITMAP
FF
FF
60
20
30
18
0C
0C
18
30
20
60
FF
FF
ENDCHAR
STARTCHAR 2212
ENCODING 8722
SWIDTH 540 0
DWIDTH 9 0
BBX 8 2 1 4
BITMAP
FF
FF
ENDCHAR
STARTCHAR 2215
ENCODING 8725
SWIDTH 120 0
DWIDTH 2 0
BBX 7 12 -2 0
BITMAP
02
06
04
08
18
10
30
20
60
40
C0
80
ENDCHAR
STARTCHAR 2219
ENCODING 8729
SWIDTH 240 0
DWIDTH 4 0
BBX 2 2 1 4
BITMAP
C0
C0
ENDCHAR
STARTCHAR 221A
ENCODING 8730
SWIDTH 540 0
DWIDTH 9 0
BBX 9 13 0 0
BITMAP
0080
0080
0080
0180
0100
0100
2300
E200
3200
1600
1E00
0C00
0C00
ENDCHAR
STARTCHAR 221E
ENCODING 8734
SWIDTH 540 0
DWIDTH 9 0
BBX 8 4 1 3
BITMAP
EF
99
99
FF
ENDCHAR
STARTCHAR 222B
ENCODING 8747
SWIDTH 360 0
DWIDTH 6 0
BBX 6 16 0 -3
BITMAP
0C
18
30
30
30
30
30
30
30
30
30
30
30
30
60
E0
ENDCHAR
STARTCHAR 2248
ENCODING 8776
SWIDTH 540 0
DWIDTH 9 0
BBX 8 6 1 2
BITMAP
F3
9E
04
60
F2
8E
ENDCHAR
STARTCHAR 2260
ENCODING 8800
SWIDTH 540 0
DWIDTH 9 0
BBX 8 8 1 1
BITMAP
04
0C
FF
18
10
FF
FF
60
ENDCHAR
STARTCHAR 2264
ENCODING 8804
SWIDTH 540 0
DWIDTH 9 0
BBX 8 10 1 0
BITMAP
02
0E
38
E0
E0
3C
0E
00
00
FF
ENDCHAR
STARTCHAR 2265
ENCODING 8805
SWIDTH 540 0
DWIDTH 9 0
BBX 8 10 1 0
BITMAP
80
E0
3C
07
0F
38
E0
80
00
FF
ENDCHAR
STARTCHAR 25CA
ENCODING 9674
SWIDTH 540 0
DWIDTH 9 0
BBX 8 12 1 0
BITMAP
10
18
38
6C
46
C2
83
C6
64
2C
38
10
ENDCHAR
STARTCHAR E0FF
ENCODING 57599
SWIDTH 780 0
DWIDTH 13 0
BBX 13 12 0 0
BITMAP
0780
1FC0
3F60
78F0
6730
6FB8
DFF8
6730
7A70
79F0
3F60
0F80
ENDCHAR
STARTCHAR EFFD
ENCODING 61437
SWIDTH 1680 0
DWIDTH 28 0
BBX 28 7 0 0
BITMAP
300C30C0
781259E0
48120920
C81E3130
48120930
49930920
799E79E0
ENDCHAR
STARTCHAR F000
ENCODING 61440
SWIDTH 960 0
DWIDTH 16 0
BBX 14 12 1 0
BITMAP
7CFC
8000
8504
8504
8504
8000
3878
8000
8504
8504
8000
3878
ENDCHAR
STARTCHAR F001
ENCODING 61441
SWIDTH 600 0
DWIDTH 10 0
BBX 9 13 1 0
BITMAP
3800
6180
C100
C000
F900
F900
C100
C100
C100
C100
C100
C100
C100
ENDCHAR
STARTCHAR F002
ENCODING 61442
SWIDTH 660 0
DWIDTH 11 0
BBX 10 13 1 0
BITMAP
3900
6100
C100
C100
F900
F900
C100
C100
C100
C100
C100
C180
C1C0
ENDCHAR
STARTCHAR F0FF
ENCODING 61695
SWIDTH 420 0
DWIDTH 7 0
BBX 7 7 0 6
BITMAP
38
76
DE
BA
DE
6E
3C
ENDCHAR
STARTCHAR F200
ENCODING 61952
SWIDTH 3480 0
DWIDTH 58 0
BBX 58 13 0 0
BITMAP
0020000000000700
0020000000000E80
0020000004001BC0
0020000004001FC0
C22E10CF8790DFC0
C23F10CFC790DEC0
C22190C84410CF80
C22190C86410C000
C22090C86410C000
C22090C86410C000
422190C86410C000
622318C86618C000
3E3E0FC867CFC000
ENDCHAR
STARTCHAR F506
ENCODING 62726
SWIDTH 840 0
DWIDTH 14 0
BBX 13 12 1 0
BITMAP
20C0
E080
2180
2100
2200
2600
24F8
0C10
0830
1820
1060
3040
ENDCHAR
STARTCHAR F507
ENCODING 62727
SWIDTH 840 0
DWIDTH 14 0
BBX 13 12 1 0
BITMAP
E040
90C0
1080
2180
4300
8200
F6F8
0410
0C30
0820
1860
1040
ENDCHAR
STARTCHAR F508
ENCODING 62728
SWIDTH 840 0
DWIDTH 14 0
BBX 13 12 1 0
BITMAP
E040
30C0
3080
6100
1300
1200
E6F8
0410
0C30
0820
1060
3040
ENDCHAR
STARTCHAR F509
ENCODING 62729
SWIDTH 840 0
DWIDTH 14 0
BBX 14 12 0 0
BITMAP
1820
1860
2840
4880
FD80
0900
0B7C
0208
0618
0410
0830
1820
ENDCHAR
STARTCHAR F50A
ENCODING 62730
SWIDTH 840 0
DWIDTH 14 0
BBX 13 12 1 0
BITMAP
F040
80C0
8080
F100
1300
1200
E6F8
0410
0C30
0820
1060
3040
ENDCHAR
STARTCHAR F50B
ENCODING 62731
SWIDTH 840 0
DWIDTH 14 0
BBX 13 12 1 0
BITMAP
3040
60C0
8080
F100
9300
9200
76F8
0410
0C30
0820
1060
3040
ENDCHAR
STARTCHAR F50C
ENCODING 62732
SWIDTH 840 0
DWIDTH 14 0
BBX 13 12 1 0
BITMAP
20C0
E080
2180
2100
2300
2220
24D8
0C88
08C8
1838
1010
3060
ENDCHAR
STARTCHAR F50D
ENCODING 62733
SWIDTH 840 0
DWIDTH 14 0
BBX 13 12 1 0
BITMAP
E040
90C0
1080
2180
4100
8320
F2D8
0488
0CC8
0838
1810
1060
ENDCHAR
STARTCHAR F50E
ENCODING 62734
SWIDTH 840 0
DWIDTH 14 0
BBX 14 12 0 0
BITMAP
1820
1860
2840
48C0
FC80
0990
096C
0244
0664
041C
0C08
0830
ENDCHAR
STARTCHAR F50F
ENCODING 62735
SWIDTH 840 0
DWIDTH 14 0
BBX 13 12 1 0
BITMAP
F040
80C0
8080
F180
1300
1220
E6D8
0488
0CC8
0838
1810
1060
ENDCHAR
STARTCHAR F510
ENCODING 62736
SWIDTH 840 0
DWIDTH 14 0
BBX 13 12 1 0
BITMAP
F0C0
1080
2100
2300
4200
4620
44D8
0C88
08C8
1038
3010
2060
ENDCHAR
STARTCHAR F511
ENCODING 62737
SWIDTH 840 0
DWIDTH 14 0
BBX 13 12 1 0
BITMAP
6040
90C0
9080
7180
9300
9220
F6D8
0488
0CC8
0838
1810
1060
ENDCHAR
STARTCHAR F800
ENCODING 63488
SWIDTH 540 0
DWIDTH 9 0
BBX 8 12 1 0
BITMAP
38
7C
C6
C2
C2
83
83
C3
C2
C6
66
3C
ENDCHAR
STARTCHAR F801
ENCODING 63489
SWIDTH 360 0
DWIDTH 6 0
BBX 4 12 1 0
BITMAP
10
30
F0
B0
30
30
30
30
30
30
30
30
ENDCHAR
STARTCHAR F802
ENCODING 63490
SWIDTH 480 0
DWIDTH 8 0
BBX 8 12 0 0
BITMAP
3C
FE
06
02
06
04
0C
18
30
60
40
7F
ENDCHAR
STARTCHAR F803
ENCODING 63491
SWIDTH 480 0
DWIDTH 8 0
BBX 8 12 0 0
BITMAP
38
7E
06
02
06
3C
1E
02
03
03
06
FC
ENDCHAR
STARTCHAR F804
ENCODING 63492
SWIDTH 480 0
DWIDTH 8 0
BBX 8 12 0 0
BITMAP
02
06
0A
1A
32
22
62
42
FF
02
02
02
ENDCHAR
STARTCHAR F805
ENCODING 63493
SWIDTH 480 0
DWIDTH 8 0
BBX 8 12 0 0
BITMAP
3E
3E
60
60
60
7C
0E
02
03
02
06
FC
ENDCHAR
STARTCHAR F806
ENCODING 63494
SWIDTH 540 0
DWIDTH 9 0
BBX 7 12 1 0
BITMAP
04
3E
60
40
C0
FC
C6
82
C2
C2
46
7C
ENDCHAR
STARTCHAR F807
ENCODING 63495
SWIDTH 420 0
DWIDTH 7 0
BBX 8 12 0 0
BITMAP
FF
FF
06
04
0C
08
18
18
10
30
30
30
ENDCHAR
STARTCHAR F808
ENCODING 63496
SWIDTH 540 0
DWIDTH 9 0
BBX 7 12 1 0
BITMAP
38
6E
C6
C2
C6
7C
7C
C6
82
82
C6
7C
ENDCHAR
STARTCHAR F809
ENCODING 63497
SWIDTH 540 0
DWIDTH 9 0
BBX 7 12 1 0
BITMAP
38
6C
C6
82
82
C2
7E
06
06
0C
38
F0
ENDCHAR
STARTCHAR F80A
ENCODING 63498
SWIDTH 300 0
DWIDTH 5 0
BBX 5 7 0 7
BITMAP
30
48
48
C8
48
48
30
ENDCHAR
STARTCHAR F80B
ENCODING 63499
SWIDTH 300 0
DWIDTH 5 0
BBX 3 7 1 7
BITMAP
20
E0
20
20
20
20
20
ENDCHAR
STARTCHAR F80C
ENCODING 63500
SWIDTH 300 0
DWIDTH 5 0
BBX 4 7 1 7
BITMAP
E0
90
10
20
40
80
F0
ENDCHAR
STARTCHAR F80D
ENCODING 63501
SWIDTH 300 0
DWIDTH 5 0
BBX 4 7 1 7
BITMAP
E0
30
30
60
10
10
E0
ENDCHAR
STARTCHAR F80E
ENCODING 63502
SWIDTH 300 0
DWIDTH 5 0
BBX 6 7 0 7
BITMAP
18
18
28
48
FC
08
08
ENDCHAR
STARTCHAR F80F
ENCODING 63503
SWIDTH 300 0
DWIDTH 5 0
BBX 4 7 1 7
BITMAP
F0
80
80
F0
10
10
E0
ENDCHAR
STARTCHAR F810
ENCODING 63504
SWIDTH 300 0
DWIDTH 5 0
BBX 4 7 1 7
BITMAP
30
60
80
F0
90
90
70
ENDCHAR
STARTCHAR F811
ENCODING 63505
SWIDTH 300 0
DWIDTH 5 0
BBX 4 7 1 7
BITMAP
F0
10
20
20
40
40
40
ENDCHAR
STARTCHAR F812
ENCODING 63506
SWIDTH 300 0
DWIDTH 5 0
BBX 4 7 1 7
BITMAP
60
90
90
70
90
90
F0
ENDCHAR
STARTCHAR F813
ENCODING 63507
SWIDTH 300 0
DWIDTH 5 0
BBX 4 7 1 7
BITMAP
60
90
90
F0
10
30
C0
ENDCHAR
STARTCHAR F814
ENCODING 63508
SWIDTH 300 0
DWIDTH 5 0
BBX 5 7 0 -2
BITMAP
30
78
48
C8
48
48
78
ENDCHAR
STARTCHAR F815
ENCODING 63509
SWIDTH 300 0
DWIDTH 5 0
BBX 3 6 1 -2
BITMAP
60
A0
20
20
20
20
ENDCHAR
STARTCHAR F816
ENCODING 63510
SWIDTH 300 0
DWIDTH 5 0
BBX 4 7 1 -2
BITMAP
60
B0
10
20
40
80
F0
ENDCHAR
STARTCHAR F817
ENCODING 63511
SWIDTH 300 0
DWIDTH 5 0
BBX 4 7 1 -2
BITMAP
40
B0
10
60
10
10
F0
ENDCHAR
STARTCHAR F818
ENCODING 63512
SWIDTH 300 0
DWIDTH 5 0
BBX 5 6 1 -2
BITMAP
30
50
90
F8
10
10
ENDCHAR
STARTCHAR F819
ENCODING 63513
SWIDTH 300 0
DWIDTH 5 0
BBX 4 6 1 -2
BITMAP
F0
80
E0
10
10
F0
ENDCHAR
STARTCHAR F81A
ENCODING 63514
SWIDTH 300 0
DWIDTH 5 0
BBX 4 6 1 -2
BITMAP
70
80
F0
90
90
F0
ENDCHAR
STARTCHAR F81B
ENCODING 63515
SWIDTH 300 0
DWIDTH 5 0
BBX 4 6 1 -2
BITMAP
F0
30
20
40
40
40
ENDCHAR
STARTCHAR F81C
ENCODING 63516
SWIDTH 300 0
DWIDTH 5 0
BBX 4 7 1 -2
BITMAP
60
90
90
F0
90
90
F0
ENDCHAR
STARTCHAR F81D
ENCODING 63517
SWIDTH 300 0
DWIDTH 5 0
BBX 4 7 1 -2
BITMAP
60
B0
90
90
70
30
E0
ENDCHAR
STARTCHAR FB00
ENCODING 64256
SWIDTH 720 0
DWIDTH 12 0
BBX 12 13 1 0
BITMAP
3CF0
61D0
C180
C100
F9F0
F9F0
C100
C100
C100
C100
C100
C100
C100
ENDCHAR
STARTCHAR FB01
ENCODING 64257
SWIDTH 600 0
DWIDTH 10 0
BBX 9 13 1 0
BITMAP
3800
6180
C100
C000
F900
F900
C100
C100
C100
C100
C100
C100
C100
ENDCHAR
STARTCHAR FB02
ENCODING 64258
SWIDTH 660 0
DWIDTH 11 0
BBX 10 13 1 0
BITMAP
3900
6100
C100
C100
F900
F900
C100
C100
C100
C100
C100
C180
C1C0
ENDCHAR
STARTCHAR FB03
ENCODING 64259
SWIDTH 1020 0
DWIDTH 17 0
BBX 15 13 1 0
BITMAP
3CF0
61D6
C186
C100
F9F6
F9F6
C106
C106
C106
C106
C106
C106
C106
ENDCHAR
STARTCHAR FB04
ENCODING 64260
SWIDTH 1020 0
DWIDTH 17 0
BBX 16 13 1 0
BITMAP
3CF6
61D6
C186
C106
F9F6
F9F6
C106
C106
C106
C106
C106
C106
C103
ENDCHAR
ENDFONT
